<?xml version="1.0" encoding="UTF-8"?>
<svg version="1.1" xmlns="http://www.w3.org/2000/svg" width="159" height="139">
<path d="M0 0 C0 3.3 0 6.6 0 10 C2.33294775 10.04241723 4.66702567 10.04092937 7 10 C8.58272601 8.41727399 8.34735747 6.61965997 8.5625 4.4375 C8.68818359 3.19806641 8.68818359 3.19806641 8.81640625 1.93359375 C8.87699219 1.29550781 8.93757813 0.65742188 9 0 C12.54293666 1.86470351 14.77228817 3.09364418 16 7 C16.5095187 10.90631 16.41614657 12.44404134 14.0234375 15.640625 C11.47489466 19.87179652 11.34020643 23.03665494 11.25 27.875 C11.20552734 29.050625 11.20552734 29.050625 11.16015625 30.25 C11.090054 32.16612807 11.04269342 34.08306537 11 36 C11.61230469 36.29132812 12.22460938 36.58265625 12.85546875 36.8828125 C15.4882921 38.25437439 17.15314143 39.67432625 19 42 C18.81367553 45.07435378 17.75085936 46.37371096 16 49 C16 49.99 16 50.98 16 52 C18.64 52.33 21.28 52.66 24 53 C24 56.63 24 60.26 24 64 C21.36 64.33 18.72 64.66 16 65 C16.57452746 68.93075644 16.57452746 68.93075644 19 72 C18.88679697 75.28288776 17.71715137 76.30354487 15.4375 78.75 C14.633125 79.4925 13.82875 80.235 13 81 C12.46375 80.690625 11.9275 80.38125 11.375 80.0625 C8.6015043 78.82172561 5.99957163 78.4090325 3 78 C2.67 80.31 2.34 82.62 2 85 C-2.455 85.495 -2.455 85.495 -7 86 C-7.33 87.98 -7.66 89.96 -8 92 C-15.67536627 92.02312821 -23.35072896 92.04091753 -31.02612209 92.05181217 C-34.58977422 92.05703995 -38.15340257 92.06413569 -41.71704102 92.07543945 C-45.81006097 92.08834176 -49.9030558 92.09322906 -53.99609375 92.09765625 C-55.92418129 92.10539818 -55.92418129 92.10539818 -57.89122009 92.11329651 C-59.66294334 92.11340981 -59.66294334 92.11340981 -61.47045898 92.11352539 C-63.03932106 92.11685631 -63.03932106 92.11685631 -64.63987732 92.12025452 C-67 92 -67 92 -68 91 C-68.53244119 82.97242512 -69.10817645 74.20898396 -65 67 C-60.72490436 62.17681518 -55.60959973 60.46539095 -49.609375 58.30859375 C-46.72923976 56.86421455 -46.03640083 55.98913167 -45 53 C-45.94875 52.2575 -46.8975 51.515 -47.875 50.75 C-50.31826322 48.70434329 -51.99848412 47.10469924 -53 44 C-53 42.68 -53 41.36 -53 40 C-55.64 40 -58.28 40 -61 40 C-62.98194676 30.75091512 -61.21861769 20.49946529 -56.41796875 12.296875 C-51.91462265 6.80746891 -47.06300477 4.7029847 -40.1875 3.125 C-33.98306522 2.54672258 -27.61642145 4.46914311 -22.625 8.1875 C-14.33045334 17.07451428 -13.60105885 28.34205312 -14 40 C-11.525 39.505 -11.525 39.505 -9 39 C-9 37.02 -9 35.04 -9 33 C-7.02 32.34 -5.04 31.68 -3 31 C-3.22032724 23.12078178 -3.22032724 23.12078178 -5.625 15.75 C-7.2812113 12.4375774 -7.26283133 10.49358097 -6.65625 6.90234375 C-5.74201356 4.25214646 -3.16703154 0 0 0 Z M-49.8125 11.6875 C-54.05085525 15.66458677 -55.86615324 19.54614282 -56.1875 25.4375 C-56.125625 26.283125 -56.06375 27.12875 -56 28 C-55.34 28 -54.68 28 -54 28 C-53.84144531 27.40832031 -53.68289062 26.81664063 -53.51953125 26.20703125 C-51.96330203 20.93648697 -50.50083649 17.45413033 -46 14 C-41.21906195 11.66265251 -37.04947495 11.60912666 -32 13 C-27.63138807 15.30794593 -25.00666642 17.45859704 -23 22 C-22.3125 25.8125 -22.3125 25.8125 -22 29 C-21.01 28.67 -20.02 28.34 -19 28 C-19.03372197 20.71605465 -20.93067683 16.24200084 -26 11 C-33.33202265 5.171982 -42.72717118 6.10873584 -49.8125 11.6875 Z M-29.875 51.5 C-30.24625 51.995 -30.6175 52.49 -31 53 C-27.58357241 53.25015873 -27.58357241 53.25015873 -24 53 C-23.34 52.01 -22.68 51.02 -22 50 C-26.25731568 49.59250325 -26.25731568 49.59250325 -29.875 51.5 Z " fill="#F69815" transform="translate(109,21)"/>
<path d="M0 0 C0.57234375 0.81855469 1.1446875 1.63710937 1.734375 2.48046875 C3.69409349 5.14651177 3.69409349 5.14651177 6.140625 5.48828125 C6.83671875 5.43027344 7.5328125 5.37226562 8.25 5.3125 C9.4875 5.209375 10.725 5.10625 12 5 C12.66 3.35 13.32 1.7 14 0 C22.41497774 2.5712432 30.15786376 5.09565718 36 12 C37.14077657 15.42232972 37.09815117 18.08673217 37.0625 21.6875 C37.05347656 22.86699219 37.04445312 24.04648438 37.03515625 25.26171875 C37.02355469 26.16535156 37.01195312 27.06898437 37 28 C37.66 28.33 38.32 28.66 39 29 C38.34 30.98 37.68 32.96 37 35 C29.32463373 35.02312821 21.64927104 35.04091753 13.97387791 35.05181217 C10.41022578 35.05703995 6.84659743 35.06413569 3.28295898 35.07543945 C-0.81006097 35.08834176 -4.9030558 35.09322906 -8.99609375 35.09765625 C-10.92418129 35.10539818 -10.92418129 35.10539818 -12.89122009 35.11329651 C-14.66294334 35.11340981 -14.66294334 35.11340981 -16.47045898 35.11352539 C-18.03932106 35.11685631 -18.03932106 35.11685631 -19.63987732 35.12025452 C-22 35 -22 35 -23 34 C-23.63319099 24.45342811 -24.1290026 14.91016526 -17.6875 7.25 C-12.62750148 3.53588344 -5.90514553 1.90097151 0 0 Z " fill="#4097DB" transform="translate(64,78)"/>
<path d="M0 0 C5.45807808 4.80830688 8.81723668 9.93877485 9.625 17.3125 C9.96463126 25.38321134 9.74761718 33.31385259 8.625 41.3125 C3.82648636 43.27077192 -0.17417914 43.42934311 -5.25 42.9375 C-6.28253906 42.85242188 -6.28253906 42.85242188 -7.3359375 42.765625 C-9.01657689 42.62557172 -10.69596005 42.47057755 -12.375 42.3125 C-12.375 41.3225 -12.375 40.3325 -12.375 39.3125 C-7.755 39.3125 -3.135 39.3125 1.625 39.3125 C1.955 34.0325 2.285 28.7525 2.625 23.3125 C0.975 23.3125 -0.675 23.3125 -2.375 23.3125 C-5.1875 20.8125 -5.1875 20.8125 -7.375 18.3125 C-7.80167969 18.6734375 -8.22835937 19.034375 -8.66796875 19.40625 C-14.98693808 24.09661899 -20.72656915 23.8371637 -28.375 23.3125 C-28.36339844 23.95058594 -28.35179687 24.58867188 -28.33984375 25.24609375 C-28.33082031 26.07238281 -28.32179688 26.89867188 -28.3125 27.75 C-28.30089844 28.57371094 -28.28929687 29.39742187 -28.27734375 30.24609375 C-28.375 32.3125 -28.375 32.3125 -29.375 33.3125 C-31.70797433 33.35342937 -34.04205225 33.35491723 -36.375 33.3125 C-38.35694676 24.06341512 -36.59361769 13.81196529 -31.79296875 5.609375 C-23.60442972 -4.37213984 -11.26133799 -5.630669 0 0 Z M-25.1875 5 C-29.42585525 8.97708677 -31.24115324 12.85864282 -31.5625 18.75 C-31.500625 19.595625 -31.43875 20.44125 -31.375 21.3125 C-30.715 21.3125 -30.055 21.3125 -29.375 21.3125 C-29.21644531 20.72082031 -29.05789062 20.12914063 -28.89453125 19.51953125 C-27.33830203 14.24898697 -25.87583649 10.76663033 -21.375 7.3125 C-16.59406195 4.97515251 -12.42447495 4.92162666 -7.375 6.3125 C-3.00638807 8.62044593 -0.38166642 10.77109704 1.625 15.3125 C2.3125 19.125 2.3125 19.125 2.625 22.3125 C3.615 21.9825 4.605 21.6525 5.625 21.3125 C5.59127803 14.02855465 3.69432317 9.55450084 -1.375 4.3125 C-8.70702265 -1.515518 -18.10217118 -0.57876416 -25.1875 5 Z " fill="#EC9627" transform="translate(84.375,27.6875)"/>
<path d="M0 0 C0.721875 0.804375 1.44375 1.60875 2.1875 2.4375 C5.11413373 5.10398851 6.24352424 5.4507338 10 6 C10.02701408 8.10409639 10.04640223 10.20829178 10.0625 12.3125 C10.07410156 13.48425781 10.08570313 14.65601563 10.09765625 15.86328125 C10 19 10 19 9 22 C4.38 22 -0.24 22 -5 22 C-5 22.99 -5 23.98 -5 25 C-2.03 25 0.94 25 4 25 C3.67 26.32 3.34 27.64 3 29 C3.86454438 31.70465742 3.86454438 31.70465742 5 34 C3.68 34 2.36 34 1 34 C0.71125 34.639375 0.4225 35.27875 0.125 35.9375 C-1 38 -1 38 -3 39 C-5.875 39.375 -5.875 39.375 -9 39 C-11.25 36.5625 -11.25 36.5625 -13 34 C-13.66 33.67 -14.32 33.34 -15 33 C-14.34 31.68 -13.68 30.36 -13 29 C-13.928125 28.360625 -14.85625 27.72125 -15.8125 27.0625 C-19.74287051 23.75614566 -21.19298283 20.01157661 -22 15 C-21.94333139 11.8785041 -21.5398473 9.09185271 -21 6 C-20.154375 5.98582031 -19.30875 5.97164062 -18.4375 5.95703125 C-10.96716905 5.64293779 -5.85011 4.7896671 0 0 Z " fill="#FDC377" transform="translate(77,45)"/>
<path d="M0 0 C0 3.3 0 6.6 0 10 C2.33294775 10.04241723 4.66702567 10.04092937 7 10 C8.58272601 8.41727399 8.34735747 6.61965997 8.5625 4.4375 C8.64628906 3.61121094 8.73007813 2.78492188 8.81640625 1.93359375 C8.87699219 1.29550781 8.93757813 0.65742188 9 0 C12.54293666 1.86470351 14.77228817 3.09364418 16 7 C16.5095187 10.90631 16.41614657 12.44404134 14.0234375 15.640625 C11.47489466 19.87179652 11.34020643 23.03665494 11.25 27.875 C11.20552734 29.050625 11.20552734 29.050625 11.16015625 30.25 C11.090054 32.16612807 11.04269342 34.08306537 11 36 C11.66 36.33 12.32 36.66 13 37 C8.69230769 40.07692308 8.69230769 40.07692308 5.1875 39.6875 C4.465625 39.460625 3.74375 39.23375 3 39 C2.67 36.69 2.34 34.38 2 32 C0.68 31.67 -0.64 31.34 -2 31 C-2.10957031 30.20335938 -2.21914062 29.40671875 -2.33203125 28.5859375 C-3.26924812 21.94436435 -3.26924812 21.94436435 -5.6875 15.75 C-7.50111213 11.95005078 -7.36728147 8.96348854 -6 5 C-1.83333333 0 -1.83333333 0 0 0 Z " fill="#C7C6C9" transform="translate(109,21)"/>
<path d="M0 0 C3.6365721 2.02808829 4.81549588 2.9309006 6.25 6.8125 C6.80280793 11.09481497 6.70564166 14.64808242 5.125 18.6875 C2.70222961 21.43330644 0.69173874 22.55494162 -2.75 23.8125 C-5.08203812 23.8902346 -7.41839059 23.90217728 -9.75 23.8125 C-10.41 24.1425 -11.07 24.4725 -11.75 24.8125 C-12.20375 24.02875 -12.6575 23.245 -13.125 22.4375 C-14.63428742 19.77551969 -14.63428742 19.77551969 -16.75 17.8125 C-16.75 16.8225 -16.75 15.8325 -16.75 14.8125 C-17.41 14.8125 -18.07 14.8125 -18.75 14.8125 C-18.58594462 8.10114336 -17.60033511 4.54453426 -12.75 -0.1875 C-8.52244289 -2.30127855 -4.34414466 -1.37564581 0 0 Z " fill="#FDD125" transform="translate(111.75,68.1875)"/>
<path d="M0 0 C3.53045888 2.96879496 6.45669251 5.69165564 6.9921875 10.4765625 C6.99906727 12.42353723 6.88395677 14.37012684 6.75 16.3125 C4.5625 16.625 4.5625 16.625 1.75 16.3125 C-1.0625 13.8125 -1.0625 13.8125 -3.25 11.3125 C-3.67667969 11.6734375 -4.10335937 12.034375 -4.54296875 12.40625 C-10.69901147 16.97568377 -16.74455464 17.32243953 -24.25 16.3125 C-24.91 15.6525 -25.57 14.9925 -26.25 14.3125 C-24.67227396 8.42488819 -23.24300489 4.17073105 -18.25 0.3125 C-11.59557881 -3.45415351 -6.65632798 -3.4561703 0 0 Z " fill="#59555A" transform="translate(80.25,34.6875)"/>
<path d="M0 0 C3 3.75 3 3.75 3 6 C2.34 6 1.68 6 1 6 C1.99 9.3 2.98 12.6 4 16 C4.66 16 5.32 16 6 16 C5.67 14.68 5.34 13.36 5 12 C5.99 11.67 6.98 11.34 8 11 C8 13.64 8 16.28 8 19 C11.96 18.67 15.92 18.34 20 18 C20.66 19.65 21.32 21.3 22 23 C20.68 23 19.36 23 18 23 C17.71125 23.639375 17.4225 24.27875 17.125 24.9375 C16 27 16 27 14 28 C11.125 28.375 11.125 28.375 8 28 C5.75 25.5625 5.75 25.5625 4 23 C3.34 22.67 2.68 22.34 2 22 C2.66 20.68 3.32 19.36 4 18 C3.05125 17.2575 2.1025 16.515 1.125 15.75 C-1.31713867 13.7110446 -2.97077521 12.08767437 -4 9 C-4 8.01 -4 7.02 -4 6 C-3.34 6 -2.68 6 -2 6 C-1.855625 5.195625 -1.71125 4.39125 -1.5625 3.5625 C-1 1 -1 1 0 0 Z " fill="#FCC277" transform="translate(60,56)"/>
<path d="M0 0 C2 2 2 2 2.23046875 4.06640625 C2.13218936 9.77554513 1.73090186 15.33551056 1 21 C-3.79851364 22.95827192 -7.79917914 23.11684311 -12.875 22.625 C-13.56335938 22.56828125 -14.25171875 22.5115625 -14.9609375 22.453125 C-16.64157689 22.31307172 -18.32096005 22.15807755 -20 22 C-20 21.01 -20 20.02 -20 19 C-15.38 19 -10.76 19 -6 19 C-5.90203125 17.87980469 -5.8040625 16.75960937 -5.703125 15.60546875 C-5.55303546 14.13271516 -5.40194123 12.66006371 -5.25 11.1875 C-5.188125 10.44951172 -5.12625 9.71152344 -5.0625 8.95117188 C-4.46511508 3.45025238 -4.46511508 3.45025238 -1.921875 0.98828125 C-1.28765625 0.66214844 -0.6534375 0.33601563 0 0 Z " fill="#EC8707" transform="translate(92,48)"/>
<path d="M0 0 C0.02701408 2.10409639 0.04640223 4.20829178 0.0625 6.3125 C0.07410156 7.48425781 0.08570312 8.65601563 0.09765625 9.86328125 C0 13 0 13 -1 16 C-5.62 16 -10.24 16 -15 16 C-15 16.99 -15 17.98 -15 19 C-12.03 19 -9.06 19 -6 19 C-6.33 19.99 -6.66 20.98 -7 22 C-7.66 22 -8.32 22 -9 22 C-9 21.34 -9 20.68 -9 20 C-11.31 20 -13.62 20 -16 20 C-16.33 18.35 -16.66 16.7 -17 15 C-15.02 14.67 -13.04 14.34 -11 14 C-10.67 13.01 -10.34 12.02 -10 11 C-9.34 10.67 -8.68 10.34 -8 10 C-8.66 9.67 -9.32 9.34 -10 9 C-9.4140625 2.84765625 -9.4140625 2.84765625 -9 1 C-6.04335481 -0.4783226 -3.25770263 -0.06032783 0 0 Z " fill="#FEC272" transform="translate(87,51)"/>
<path d="M0 0 C1.65 1.65 3.3 3.3 5 5 C4.360625 5.2475 3.72125 5.495 3.0625 5.75 C0.81258459 6.81562433 0.81258459 6.81562433 0.25 9.125 C0.1675 9.74375 0.085 10.3625 0 11 C-1.11375 10.8453125 -1.11375 10.8453125 -2.25 10.6875 C-5.25072867 10.7254586 -5.25072867 10.7254586 -7.3125 13.5 C-8.1478125 14.7375 -8.1478125 14.7375 -9 16 C-9.66 15.67 -10.32 15.34 -11 15 C-10.67 13.68 -10.34 12.36 -10 11 C-10.66 11 -11.32 11 -12 11 C-12 10.34 -12 9.68 -12 9 C-13.299375 8.87625 -14.59875 8.7525 -15.9375 8.625 C-18.15234375 8.4140625 -18.15234375 8.4140625 -20 8 C-20.33 7.34 -20.66 6.68 -21 6 C-20.154375 5.98582031 -19.30875 5.97164062 -18.4375 5.95703125 C-10.96716905 5.64293779 -5.85011 4.7896671 0 0 Z " fill="#FDC37A" transform="translate(77,45)"/>
<path d="M0 0 C0.33 0 0.66 0 1 0 C1 3.63 1 7.26 1 11 C2.65 10.67 4.3 10.34 6 10 C6 8.02 6 6.04 6 4 C10.12168689 2.37049588 12.70700357 1.73735399 17 3 C17.33 5.31 17.66 7.62 18 10 C23.55053286 9.25640327 23.55053286 9.25640327 29 8 C29.99 9.485 29.99 9.485 31 11 C28.69 11 26.38 11 24 11 C23.67 11.66 23.34 12.32 23 13 C20.03 12.505 20.03 12.505 17 12 C17 11.34 17 10.68 17 10 C16.01 10 15.02 10 14 10 C13.67 9.34 13.34 8.68 13 8 C12.01 7.67 11.02 7.34 10 7 C9.938125 7.61875 9.87625 8.2375 9.8125 8.875 C9 11 9 11 6.75 12.25 C4 13 4 13 -1 13 C-0.67 8.71 -0.34 4.42 0 0 Z " fill="#F99A17" transform="translate(94,50)"/>
<path d="M0 0 C1.06546953 3.1964086 1.07427838 5.65747276 1 9 C1.66 9.33 2.32 9.66 3 10 C3.02688151 11.64574566 3.04634123 13.29161413 3.0625 14.9375 C3.07410156 15.85402344 3.08570313 16.77054688 3.09765625 17.71484375 C3 20 3 20 2 21 C-0.33297433 21.04092937 -2.66705225 21.04241723 -5 21 C-6.10765663 14.13252891 -5.700773 8.73281213 -4 2 C-3.67 2 -3.34 2 -3 2 C-2.67 3.98 -2.34 5.96 -2 8 C-1.34 5.36 -0.68 2.72 0 0 Z " fill="#E69935" transform="translate(53,40)"/>
<path d="M0 0 C0.66 0.33 1.32 0.66 2 1 C2 1.99 2 2.98 2 4 C4.64 4.33 7.28 4.66 10 5 C10 8.63 10 12.26 10 16 C6.04 16.495 6.04 16.495 2 17 C1.67 18.32 1.34 19.64 1 21 C0.34 21 -0.32 21 -1 21 C-1 19.68 -1 18.36 -1 17 C-1.66 16.67 -2.32 16.34 -3 16 C-2.34 15.34 -1.68 14.68 -1 14 C0.32 14.66 1.64 15.32 3 16 C3 15.34 3 14.68 3 14 C4.65 14 6.3 14 8 14 C7.67 13.34 7.34 12.68 7 12 C6.01 12 5.02 12 4 12 C4.33 11.01 4.66 10.02 5 9 C4.360625 8.87625 3.72125 8.7525 3.0625 8.625 C2.381875 8.41875 1.70125 8.2125 1 8 C-0.35439668 5.29120665 -0.06501451 2.99066732 0 0 Z " fill="#F79B23" transform="translate(123,69)"/>
<path d="M0 0 C2 2 2 2 2 6 C2.99 6 3.98 6 5 6 C5.33 5.34 5.66 4.68 6 4 C5.34 4 4.68 4 4 4 C4.66 2.68 5.32 1.36 6 0 C6.66 0.66 7.32 1.32 8 2 C7.9765625 4.1640625 7.9765625 4.1640625 7.625 6.625 C7.45871094 7.85089844 7.45871094 7.85089844 7.2890625 9.1015625 C7.14597656 10.04128906 7.14597656 10.04128906 7 11 C7.66 11 8.32 11 9 11 C8.67 11.66 8.34 12.32 8 13 C7.46890625 12.72285156 6.9378125 12.44570312 6.390625 12.16015625 C5.68421875 11.79792969 4.9778125 11.43570313 4.25 11.0625 C3.55390625 10.70285156 2.8578125 10.34320313 2.140625 9.97265625 C0.05215271 8.92844777 0.05215271 8.92844777 -2.140625 8.55859375 C-4 8 -4 8 -6 5 C-6 4.01 -6 3.02 -6 2 C-4.02 1.34 -2.04 0.68 0 0 Z " fill="#EC9720" transform="translate(86,72)"/>
<path d="M0 0 C3.53045888 2.96879496 6.45669251 5.69165564 6.9921875 10.4765625 C6.99906727 12.42353723 6.88395677 14.37012684 6.75 16.3125 C4.5 16.6875 4.5 16.6875 1.75 16.3125 C-0.5625 13.3125 -0.5625 13.3125 -2.25 10.3125 C-0.93 10.9725 0.39 11.6325 1.75 12.3125 C1.75 12.9725 1.75 13.6325 1.75 14.3125 C3.07 14.3125 4.39 14.3125 5.75 14.3125 C5.15975852 12.66162153 4.55233994 11.01687593 3.9375 9.375 C3.60105469 8.45847656 3.26460937 7.54195312 2.91796875 6.59765625 C1.91590906 3.9784576 1.91590906 3.9784576 -1.25 3.3125 C-1.71664062 2.80203125 -2.18328125 2.2915625 -2.6640625 1.765625 C-4.74028198 -0.13672389 -5.85169444 -0.03215207 -8.625 0.0625 C-9.81029297 0.10117187 -9.81029297 0.10117187 -11.01953125 0.140625 C-13.49095064 0.33106712 -15.84887937 0.69285597 -18.25 1.3125 C-13.26075285 -4.42513423 -6.25359749 -3.24706024 0 0 Z M-2.25 3.3125 C-1.59 4.3025 -0.93 5.2925 -0.25 6.3125 C-1.24 7.3025 -2.23 8.2925 -3.25 9.3125 C-2.92 7.3325 -2.59 5.3525 -2.25 3.3125 Z " fill="#564F4B" transform="translate(80.25,34.6875)"/>
<path d="M0 0 C1.32 1.65 2.64 3.3 4 5 C3.01 5.33 2.02 5.66 1 6 C1 5.01 1 4.02 1 3 C0.54625 3.495 0.0925 3.99 -0.375 4.5 C-2 6 -2 6 -4 6 C-4.33 6.66 -4.66 7.32 -5 8 C-5.66 7.34 -6.32 6.68 -7 6 C-8.89667109 6.28552357 -8.89667109 6.28552357 -11 7 C-12.66519519 7.34060811 -14.33157466 7.67558396 -16 8 C-16 8.99 -16 9.98 -16 11 C-17.32 11.33 -18.64 11.66 -20 12 C-18.79926053 8.2643661 -16.6015214 6.82168092 -13.21875 5.015625 C-8.92424863 3.04983212 -4.46836213 1.51908152 0 0 Z " fill="#5199D3" transform="translate(64,78)"/>
<path d="M0 0 C3.3 0.33 6.6 0.66 10 1 C9.67 1.99 9.34 2.98 9 4 C9.66 4 10.32 4 11 4 C11 5.32 11 6.64 11 8 C8.625 8.1875 8.625 8.1875 6 8 C5.34 7.01 4.68 6.02 4 5 C3.34 6.65 2.68 8.3 2 10 C1.01 9.67 0.02 9.34 -1 9 C-0.67 6.03 -0.34 3.06 0 0 Z " fill="#FDC374" transform="translate(56,52)"/>
<path d="M0 0 C0.66 0.33 1.32 0.66 2 1 C1.34 1.66 0.68 2.32 0 3 C-0.59834554 4.52056618 -1.13506656 6.06612088 -1.625 7.625 C-1.88539062 8.44226562 -2.14578125 9.25953125 -2.4140625 10.1015625 C-2.60742188 10.72804688 -2.80078125 11.35453125 -3 12 C-3.66 12 -4.32 12 -5 12 C-5.12375 13.299375 -5.2475 14.59875 -5.375 15.9375 C-5.5859375 18.15234375 -5.5859375 18.15234375 -6 20 C-6.66 20.33 -7.32 20.66 -8 21 C-8.3238762 14.93032007 -8.52214307 10.22248799 -5 5 C-2.3125 2.125 -2.3125 2.125 0 0 Z " fill="#F49A27" transform="translate(58,28)"/>
<path d="M0 0 C0.99 0 1.98 0 3 0 C3 6.93 3 13.86 3 21 C2.01 20.67 1.02 20.34 0 20 C0 13.4 0 6.8 0 0 Z " fill="#8D888B" transform="translate(112,40)"/>
<path d="M0 0 C0.99 0 1.98 0 3 0 C3 5.94 3 11.88 3 18 C2.01 18 1.02 18 0 18 C0 12.06 0 6.12 0 0 Z " fill="#1F80CA" transform="translate(87,94)"/>
<path d="M0 0 C0.99 0 1.98 0 3 0 C3 5.94 3 11.88 3 18 C2.01 18 1.02 18 0 18 C0 12.06 0 6.12 0 0 Z " fill="#2282CD" transform="translate(53,94)"/>
<path d="M0 0 C1.66611905 -0.042721 3.33382885 -0.04063832 5 0 C6 1 6 1 6.09765625 2.84765625 C6.06510417 4.8984375 6.03255208 6.94921875 6 9 C4.02 9 2.04 9 0 9 C0 6.03 0 3.06 0 0 Z " fill="#EA8705" transform="translate(49,51)"/>
<path d="M0 0 C4.62 0 9.24 0 14 0 C14.33 1.32 14.66 2.64 15 4 C10.05 3.67 5.1 3.34 0 3 C0 2.01 0 1.02 0 0 Z " fill="#E18916" transform="translate(72,67)"/>
<path d="M0 0 C0.99 0.495 0.99 0.495 2 1 C2 1.99 2 2.98 2 4 C4.64 4.33 7.28 4.66 10 5 C10 8.63 10 12.26 10 16 C8.35 16 6.7 16 5 16 C6.32 15.67 7.64 15.34 9 15 C8.67 12.03 8.34 9.06 8 6 C7.401875 6.515625 6.80375 7.03125 6.1875 7.5625 C5.465625 8.036875 4.74375 8.51125 4 9 C3.01 8.67 2.02 8.34 1 8 C-0.35439668 5.29120665 -0.06501451 2.99066732 0 0 Z " fill="#ED9D34" transform="translate(123,69)"/>
<path d="M0 0 C0.99 0.66 1.98 1.32 3 2 C2.67 2.66 2.34 3.32 2 4 C1.236875 4.144375 0.47375 4.28875 -0.3125 4.4375 C-3.03319332 4.77826555 -3.03319332 4.77826555 -4.74609375 6.5234375 C-7.83996405 8.55027107 -10.09027424 8.29729177 -13.75 8.1875 C-14.92046875 8.16042969 -16.0909375 8.13335937 -17.296875 8.10546875 C-18.18890625 8.07066406 -19.0809375 8.03585938 -20 8 C-20.33 7.34 -20.66 6.68 -21 6 C-20.154375 5.98582031 -19.30875 5.97164062 -18.4375 5.95703125 C-10.96716905 5.64293779 -5.85011 4.7896671 0 0 Z " fill="#E3BE8F" transform="translate(77,45)"/>
<path d="M0 0 C1.4606285 2.64738916 2 3.89448334 2 7 C3.65 6.67 5.3 6.34 7 6 C7 6.66 7 7.32 7 8 C7.99 8 8.98 8 10 8 C10.28875 7.195625 10.5775 6.39125 10.875 5.5625 C12 3 12 3 14 2 C11.87452471 8.04942966 11.87452471 8.04942966 9 10 C6.0625 10.5 6.0625 10.5 3 10 C0.75 7.5625 0.75 7.5625 -1 5 C-1.66 4.67 -2.32 4.34 -3 4 C-2.01 2.68 -1.02 1.36 0 0 Z " fill="#D8CBB3" transform="translate(65,74)"/>
<path d="M0 0 C0 0.99 0 1.98 0 3 C0.99 3 1.98 3 3 3 C3 3.99 3 4.98 3 6 C2.01 6 1.02 6 0 6 C-0.33 6.99 -0.66 7.98 -1 9 C-2.32 9 -3.64 9 -5 9 C-4.4140625 2.84765625 -4.4140625 2.84765625 -4 1 C-2 0 -2 0 0 0 Z " fill="#F7B65D" transform="translate(82,51)"/>
<path d="M0 0 C4.29 0 8.58 0 13 0 C13.66 1.65 14.32 3.3 15 5 C13.68 4.34 12.36 3.68 11 3 C10.67 3.33 10.34 3.66 10 4 C2.47761194 4.23880597 2.47761194 4.23880597 0 3 C0 2.01 0 1.02 0 0 Z " fill="#F6B85C" transform="translate(67,74)"/>
<path d="M0 0 C1.32 0.33 2.64 0.66 4 1 C4.33 3.31 4.66 5.62 5 8 C10.55053286 7.25640327 10.55053286 7.25640327 16 6 C16.99 7.485 16.99 7.485 18 9 C15.69 9 13.38 9 11 9 C10.67 9.66 10.34 10.32 10 11 C7.03 10.505 7.03 10.505 4 10 C3.566875 8.3603125 3.566875 8.3603125 3.125 6.6875 C2.18106796 2.95986155 2.18106796 2.95986155 0 0 Z " fill="#E9A141" transform="translate(107,52)"/>
<path d="M0 0 C0.33 0 0.66 0 1 0 C1 3.63 1 7.26 1 11 C2.65 10.67 4.3 10.34 6 10 C5.979375 9.030625 5.95875 8.06125 5.9375 7.0625 C6 4 6 4 7 3 C8.66617115 2.95936168 10.33388095 2.957279 12 3 C9 5 9 5 7 5 C7.061875 5.94875 7.12375 6.8975 7.1875 7.875 C7.125625 8.90625 7.06375 9.9375 7 11 C4 13 4 13 -1 13 C-0.67 8.71 -0.34 4.42 0 0 Z " fill="#E79934" transform="translate(94,50)"/>
<path d="M0 0 C0 1.32 0 2.64 0 4 C0.66 4 1.32 4 2 4 C2.33 5.65 2.66 7.3 3 9 C1.02 9.33 -0.96 9.66 -3 10 C-3 6.88742431 -2.82638376 4.89234315 -2 2 C-2.99 1.67 -3.98 1.34 -5 1 C-3 0 -3 0 0 0 Z " fill="#F28F09" transform="translate(122,86)"/>
<path d="M0 0 C0.33 0 0.66 0 1 0 C1.33 5.28 1.66 10.56 2 16 C2.99 14.68 3.98 13.36 5 12 C5 13.32 5 14.64 5 16 C5.66 16.33 6.32 16.66 7 17 C2.25 20 2.25 20 0 20 C0 13.4 0 6.8 0 0 Z " fill="#BDBDC2" transform="translate(115,41)"/>
<path d="M0 0 C1.32 0 2.64 0 4 0 C4.33 0.99 4.66 1.98 5 3 C5.66 2.34 6.32 1.68 7 1 C7 2.32 7 3.64 7 5 C5.35 5 3.7 5 2 5 C2 5.66 2 6.32 2 7 C0.68 6.67 -0.64 6.34 -2 6 C-1.34 4.02 -0.68 2.04 0 0 Z " fill="#EF8D08" transform="translate(124,78)"/>
<path d="M0 0 C0.66 0.66 1.32 1.32 2 2 C1.625 4.125 1.625 4.125 1 6 C1 5.34 1 4.68 1 4 C-0.32 4.33 -1.64 4.66 -3 5 C-2.67 5.99 -2.34 6.98 -2 8 C-2.66 8 -3.32 8 -4 8 C-6 5 -6 5 -6 2 C-4.02 1.34 -2.04 0.68 0 0 Z " fill="#F39928" transform="translate(86,72)"/>
<path d="M0 0 C6.70459519 5.0940919 6.70459519 5.0940919 7.9375 8.875 C7.958125 9.57625 7.97875 10.2775 8 11 C3.78926767 9.49616703 2.16762883 6.79335044 0 3 C0 2.01 0 1.02 0 0 Z " fill="#F0C187" transform="translate(56,62)"/>
<path d="M0 0 C1.65 0 3.3 0 5 0 C5.33 2.64 5.66 5.28 6 8 C5.34 7.34 4.68 6.68 4 6 C3.01 6 2.02 6 1 6 C0.67 4.02 0.34 2.04 0 0 Z " fill="#FC9A15" transform="translate(126,75)"/>
<path d="M0 0 C1.65 0 3.3 0 5 0 C4.67 3.3 4.34 6.6 4 10 C3.67 10 3.34 10 3 10 C3 7.69 3 5.38 3 3 C2.01 3 1.02 3 0 3 C0 2.01 0 1.02 0 0 Z " fill="#F9C377" transform="translate(82,51)"/>
<path d="M0 0 C0.66 0.33 1.32 0.66 2 1 C1.34 1.66 0.68 2.32 0 3 C-0.59834554 4.52056618 -1.13506656 6.06612088 -1.625 7.625 C-2.01558594 8.85089844 -2.01558594 8.85089844 -2.4140625 10.1015625 C-2.60742188 10.72804688 -2.80078125 11.35453125 -3 12 C-4 9 -4 9 -3 6 C-3.66 5.67 -4.32 5.34 -5 5 C-3.35 3.35 -1.7 1.7 0 0 Z " fill="#EB9A3A" transform="translate(58,28)"/>
<path d="M0 0 C3.00617269 3.00617269 2.59585316 5.82381598 3 10 C2.67 8.68 2.34 7.36 2 6 C1.34 6 0.68 6 0 6 C-0.33 7.32 -0.66 8.64 -1 10 C-2.25 3.375 -2.25 3.375 0 0 Z " fill="#E49B40" transform="translate(90,35)"/>
<path d="M0 0 C1.45922693 0.11409593 2.91740598 0.24165544 4.375 0.375 C5.59316406 0.47941406 5.59316406 0.47941406 6.8359375 0.5859375 C9 1 9 1 11 3 C7.04 3 3.08 3 -1 3 C-0.67 2.01 -0.34 1.02 0 0 Z " fill="#E3932C" transform="translate(66,26)"/>
<path d="M0 0 C0 3.10551666 -0.5393715 4.35261084 -2 7 C-4.31 7 -6.62 7 -9 7 C-9.33 6.34 -9.66 5.68 -10 5 C-8.68 4.67 -7.36 4.34 -6 4 C-6 4.66 -6 5.32 -6 6 C-5.01 6 -4.02 6 -3 6 C-2.690625 5.195625 -2.38125 4.39125 -2.0625 3.5625 C-1 1 -1 1 0 0 Z " fill="#ECCD9B" transform="translate(78,76)"/>
<path d="M0 0 C0.99 0.33 1.98 0.66 3 1 C3 2.98 3 4.96 3 7 C1.68 7 0.36 7 -1 7 C-0.67 4.69 -0.34 2.38 0 0 Z " fill="#F89A14" transform="translate(87,60)"/>
<path d="M0 0 C1.46067199 0.45082469 2.91848032 0.91093537 4.375 1.375 C5.18710938 1.63023438 5.99921875 1.88546875 6.8359375 2.1484375 C9 3 9 3 11 5 C9.35 5 7.7 5 6 5 C6 4.34 6 3.68 6 3 C3.69 3 1.38 3 -1 3 C-0.67 2.01 -0.34 1.02 0 0 Z " fill="#789599" transform="translate(78,78)"/>
<path d="M0 0 C1.65 0 3.3 0 5 0 C5 1.32 5 2.64 5 4 C3.35 4 1.7 4 0 4 C0 2.68 0 1.36 0 0 Z " fill="#F1A540" transform="translate(62,56)"/>
<path d="M0 0 C1.32 0.99 2.64 1.98 4 3 C3.625 4.9375 3.625 4.9375 3 7 C2.01 7.495 2.01 7.495 1 8 C0.67 5.36 0.34 2.72 0 0 Z " fill="#EE9E2F" transform="translate(124,90)"/>
<path d="M0 0 C-0.33 1.65 -0.66 3.3 -1 5 C-1.99 5 -2.98 5 -4 5 C-4.33 3.68 -4.66 2.36 -5 1 C-3 0 -3 0 0 0 Z " fill="#FB9914" transform="translate(120,88)"/>
<path d="M0 0 C0.33 0 0.66 0 1 0 C1.125 7.625 1.125 7.625 0 11 C-0.99 10.67 -1.98 10.34 -3 10 C-2.01 6.7 -1.02 3.4 0 0 Z " fill="#FEC05C" transform="translate(86,56)"/>
<path d="M0 0 C0.66 0.33 1.32 0.66 2 1 C1.67 1.66 1.34 2.32 1 3 C0.01 3 -0.98 3 -2 3 C-2 3.99 -2 4.98 -2 6 C-3.32 6.33 -4.64 6.66 -6 7 C-4.60667426 3.63279613 -3.0210714 2.0140476 0 0 Z " fill="#5193C8" transform="translate(50,83)"/>
<path d="M0 0 C0.33 0.99 0.66 1.98 1 3 C3.97 3 6.94 3 10 3 C9.67 3.99 9.34 4.98 9 6 C8.34 6 7.68 6 7 6 C7 5.34 7 4.68 7 4 C4.69 4 2.38 4 0 4 C0 2.68 0 1.36 0 0 Z " fill="#F3AC52" transform="translate(71,67)"/>
<path d="M0 0 C0.12375 0.639375 0.2475 1.27875 0.375 1.9375 C0.684375 2.9584375 0.684375 2.9584375 1 4 C1.66 4.33 2.32 4.66 3 5 C-1.75 8 -1.75 8 -4 8 C-4 7.34 -4 6.68 -4 6 C-3.01 6 -2.02 6 -1 6 C-0.67 4.02 -0.34 2.04 0 0 Z " fill="#D3BC9C" transform="translate(119,53)"/>
<path d="M0 0 C1.5 1.0625 1.5 1.0625 3 3 C3.1875 6.6875 3.1875 6.6875 3 10 C2.690625 9.360625 2.38125 8.72125 2.0625 8.0625 C1.1654837 6.06389179 1.1654837 6.06389179 0 5 C-0.04063832 3.33382885 -0.042721 1.66611905 0 0 Z " fill="#4F4D47" transform="translate(84,40)"/>
</svg>
