<svg version="1.1" xmlns="http://www.w3.org/2000/svg" width="167" height="148">
<path d="M0 0 C1.010625 0.350625 2.02125 0.70125 3.0625 1.0625 C3.78355637 2.99624208 4.49265589 4.93780073 5.07421875 6.91796875 C6.87570391 10.82712034 10.50741592 12.83318362 14.0625 15.0625 C16.34200143 12.92920566 17.94166293 10.74296601 19.625 8.125 C23.20181625 3.29362879 27.33176903 1.52722357 33.0625 0.0625 C39.11160115 -0.78649665 43.9541481 0.87674599 49.0625 4.0625 C52.0150896 6.77008749 54.36441083 9.60021472 56.09375 13.22265625 C56.9229341 15.25320645 56.9229341 15.25320645 59.125 16 C61.0625 17.0625 61.0625 17.0625 61.875 19.5 C62.0625 22.0625 62.0625 22.0625 61.0625 25.0625 C60.4025 25.3925 59.7425 25.7225 59.0625 26.0625 C58.9749873 29.29149426 58.92193854 32.52018116 58.875 35.75 C58.84986328 36.66201172 58.82472656 37.57402344 58.79882812 38.51367188 C58.74269005 43.65966179 58.94342876 46.76860617 62.0625 51.0625 C61.6625 55.4625 61.6625 55.4625 60.0625 57.0625 C54.53308824 57.29779412 54.53308824 57.29779412 52.0625 56.0625 C52.0625 55.4025 52.0625 54.7425 52.0625 54.0625 C49.0925 54.0625 46.1225 54.0625 43.0625 54.0625 C43.0625 66.6025 43.0625 79.1425 43.0625 92.0625 C32.5025 92.0625 21.9425 92.0625 11.0625 92.0625 C11.0625 88.7625 11.0625 85.4625 11.0625 82.0625 C10.19625 82.145 9.33 82.2275 8.4375 82.3125 C3.45778301 81.94363208 0.50210523 79.70067147 -2.75 76 C-5.54410754 71.44119297 -5.01251341 67.23842548 -4.9375 62.0625 C-7.9075 62.0625 -10.8775 62.0625 -13.9375 62.0625 C-12.65769133 57.91077618 -11.06573627 54.25359296 -9 50.4375 C-6.82967377 46.21245813 -5.35540656 42.3200794 -4.3125 37.6875 C-2.77941141 30.96819174 -0.64917387 26.99769759 5.1875 23.1875 C8.72916667 21.0625 8.72916667 21.0625 11.0625 21.0625 C5.81512085 14.09041561 5.81512085 14.09041561 -1.8125 10.5 C-5.98143204 11.25040777 -9.00205553 12.99844069 -11.9375 16.0625 C-13.97759199 19.91893196 -14.1447147 22.93656716 -13.8125 27.25 C-13.74804688 28.29542969 -13.68359375 29.34085938 -13.6171875 30.41796875 C-13.21440188 33.20893344 -13.21440188 33.20893344 -10.8828125 34.42578125 C-10.24085937 34.63589844 -9.59890625 34.84601562 -8.9375 35.0625 C-8.8125 37.9375 -8.8125 37.9375 -8.9375 41.0625 C-10.9375 43.0625 -10.9375 43.0625 -13.9375 43.375 C-14.9275 43.271875 -15.9175 43.16875 -16.9375 43.0625 C-19.13814609 39.76153086 -19.12331819 39.5056678 -18.5 35.875 C-17.88612686 31.29341019 -17.90501297 27.58955852 -18.9375 23.0625 C-20.87133287 21.76184079 -20.87133287 21.76184079 -22.9375 21.0625 C-24.07558394 18.6237487 -24.10152319 17.53075974 -23.2109375 14.98828125 C-21.9375 13.0625 -21.9375 13.0625 -19.984375 12.41015625 C-18.84742188 12.26900391 -18.84742188 12.26900391 -17.6875 12.125 C-12.72453413 11.21392414 -10.42144461 9.71639313 -6.9375 6.0625 C-5.68313813 3.43027038 -5.68313813 3.43027038 -4.9375 1.0625 C-2.9375 0.0625 -2.9375 0.0625 0 0 Z M54.0625 31.0625 C53.340625 31.990625 52.61875 32.91875 51.875 33.875 C49.35832201 36.98773331 46.77913178 38.50670065 43.0625 40.0625 C43.0625 43.3625 43.0625 46.6625 43.0625 50.0625 C44.485625 50.124375 45.90875 50.18625 47.375 50.25 C48.17550781 50.28480469 48.97601563 50.31960937 49.80078125 50.35546875 C52.06869534 50.20483779 52.06869534 50.20483779 53.84375 49.0625 C55.79206791 45.86526035 55.37336651 42.49691412 55.25 38.875 C55.23646484 38.12541016 55.22292969 37.37582031 55.20898438 36.60351562 C55.17368539 34.75620233 55.11987917 32.90925934 55.0625 31.0625 C54.7325 31.0625 54.4025 31.0625 54.0625 31.0625 Z " fill="#CED8DA" transform="translate(63.9375,23.9375)"/>
<path d="M0 0 C0 5.61 0 11.22 0 17 C1.32 17.33 2.64 17.66 4 18 C4.66 18.66 5.32 19.32 6 20 C5.625 22.4375 5.625 22.4375 5 25 C5 25.99 5 26.98 5 28 C9.10872623 31.77558627 12.14412408 33.13283997 17.66796875 33.09765625 C18.56064453 33.09443359 19.45332031 33.09121094 20.37304688 33.08789062 C21.30181641 33.07951172 22.23058594 33.07113281 23.1875 33.0625 C24.12787109 33.05798828 25.06824219 33.05347656 26.03710938 33.04882812 C28.35813712 33.03704626 30.67903644 33.02059558 33 33 C33.33 32.01 33.66 31.02 34 30 C31.36 30 28.72 30 26 30 C26 29.01 26 28.02 26 27 C32.27 27 38.54 27 45 27 C45 27.99 45 28.98 45 30 C42.03 30 39.06 30 36 30 C36 42.54 36 55.08 36 68 C25.44 68 14.88 68 4 68 C4 64.7 4 61.4 4 58 C3.13375 58.0825 2.2675 58.165 1.375 58.25 C-3.60471699 57.88113208 -6.56039477 55.63817147 -9.8125 51.9375 C-12.60660754 47.37869297 -12.07501341 43.17592548 -12 38 C-14.97 38 -17.94 38 -21 38 C-19.72019133 33.84827618 -18.12823627 30.19109296 -16.0625 26.375 C-13.40262238 21.19693315 -11.96958897 16.29715279 -10.7109375 10.640625 C-9.23256119 5.14951299 -6.25310047 0 0 0 Z " fill="#939A9C" transform="translate(71,48)"/>
<path d="M0 0 C4.44479665 2.7588393 7.53059889 6.24865117 9.02734375 11.2734375 C9.06859375 11.9540625 9.10984375 12.6346875 9.15234375 13.3359375 C7.83234375 13.6659375 6.51234375 13.9959375 5.15234375 14.3359375 C5.47738634 19.15788393 5.47738634 19.15788393 7.71484375 23.2734375 C8.18921875 23.6240625 8.66359375 23.9746875 9.15234375 24.3359375 C8.65734375 25.8209375 8.65734375 25.8209375 8.15234375 27.3359375 C7.16234375 27.3359375 6.17234375 27.3359375 5.15234375 27.3359375 C4.65734375 28.8209375 4.65734375 28.8209375 4.15234375 30.3359375 C4.15234375 29.6759375 4.15234375 29.0159375 4.15234375 28.3359375 C3.49234375 28.3359375 2.83234375 28.3359375 2.15234375 28.3359375 C2.15234375 29.9859375 2.15234375 31.6359375 2.15234375 33.3359375 C0.50234375 33.3359375 -1.14765625 33.3359375 -2.84765625 33.3359375 C-2.84765625 34.3259375 -2.84765625 35.3159375 -2.84765625 36.3359375 C-7.79765625 36.8309375 -7.79765625 36.8309375 -12.84765625 37.3359375 C-12.84765625 36.0159375 -12.84765625 34.6959375 -12.84765625 33.3359375 C-13.50765625 33.0059375 -14.16765625 32.6759375 -14.84765625 32.3359375 C-10.88765625 31.6759375 -6.92765625 31.0159375 -2.84765625 30.3359375 C-2.84765625 22.7459375 -2.84765625 15.1559375 -2.84765625 7.3359375 C-5.78079205 6.35822557 -7.72944619 6.20174739 -10.78515625 6.2109375 C-11.63980469 6.20835938 -12.49445313 6.20578125 -13.375 6.203125 C-15.68261483 6.32707272 -17.62518808 6.74378895 -19.84765625 7.3359375 C-19.73761464 10.91989435 -19.60702328 14.50281667 -19.47265625 18.0859375 C-19.44171875 19.10171875 -19.41078125 20.1175 -19.37890625 21.1640625 C-19.34023437 22.14375 -19.3015625 23.1234375 -19.26171875 24.1328125 C-19.23029785 25.03354492 -19.19887695 25.93427734 -19.16650391 26.86230469 C-18.83628369 29.42416625 -18.13813952 31.11721187 -16.84765625 33.3359375 C-18.82765625 33.8309375 -18.82765625 33.8309375 -20.84765625 34.3359375 C-21.17765625 33.0159375 -21.50765625 31.6959375 -21.84765625 30.3359375 C-23.33265625 30.8309375 -23.33265625 30.8309375 -24.84765625 31.3359375 C-27.1853536 27.82939148 -27.09480642 26.45510708 -26.84765625 22.3359375 C-26.60015625 21.4696875 -26.35265625 20.6034375 -26.09765625 19.7109375 C-26.01515625 18.9271875 -25.93265625 18.1434375 -25.84765625 17.3359375 C-26.50765625 16.6965625 -27.16765625 16.0571875 -27.84765625 15.3984375 C-29.84765625 13.3359375 -29.84765625 13.3359375 -29.91015625 10.4609375 C-28.23170995 5.52433073 -26.0666073 2.55241828 -21.5390625 0.0703125 C-13.73286861 -3.30405442 -7.7365172 -3.72939803 0 0 Z " fill="#5BB5E1" transform="translate(110.84765625,26.6640625)"/>
<path d="M0 0 C1.010625 0.350625 2.02125 0.70125 3.0625 1.0625 C3.78357101 2.99628134 4.493551 4.93706177 5.0859375 6.9140625 C6.83484495 10.76165889 10.30568641 13.25226119 14.0625 15.0625 C15.0525 14.7325 16.0425 14.4025 17.0625 14.0625 C18.5625 15.125 18.5625 15.125 20.0625 17.0625 C20.25 20.75 20.25 20.75 20.0625 24.0625 C19.4025 24.0625 18.7425 24.0625 18.0625 24.0625 C18.0625 24.7225 18.0625 25.3825 18.0625 26.0625 C16.0825 26.0625 14.1025 26.0625 12.0625 26.0625 C11.5675 24.2990625 11.5675 24.2990625 11.0625 22.5 C9.09873201 17.27879695 5.73323795 14.02182252 1.0625 11.0625 C-2.27032058 10.24629904 -3.7763209 10.45868687 -6.79296875 12.02734375 C-10.70905523 14.55463255 -12.60341541 16.47906088 -13.9375 21.0625 C-14.11388982 24.12468131 -14.11388982 24.12468131 -13.8125 27.25 C-13.74804688 28.29542969 -13.68359375 29.34085938 -13.6171875 30.41796875 C-13.21440188 33.20893344 -13.21440188 33.20893344 -10.8828125 34.42578125 C-10.24085937 34.63589844 -9.59890625 34.84601562 -8.9375 35.0625 C-8.8125 37.9375 -8.8125 37.9375 -8.9375 41.0625 C-10.9375 43.0625 -10.9375 43.0625 -13.9375 43.375 C-14.9275 43.271875 -15.9175 43.16875 -16.9375 43.0625 C-19.13814609 39.76153086 -19.12331819 39.5056678 -18.5 35.875 C-17.88612686 31.29341019 -17.90501297 27.58955852 -18.9375 23.0625 C-20.87133287 21.76184079 -20.87133287 21.76184079 -22.9375 21.0625 C-24.07558394 18.6237487 -24.10152319 17.53075974 -23.2109375 14.98828125 C-21.9375 13.0625 -21.9375 13.0625 -19.984375 12.41015625 C-18.84742188 12.26900391 -18.84742188 12.26900391 -17.6875 12.125 C-12.72453413 11.21392414 -10.42144461 9.71639313 -6.9375 6.0625 C-5.68313813 3.43027038 -5.68313813 3.43027038 -4.9375 1.0625 C-2.9375 0.0625 -2.9375 0.0625 0 0 Z " fill="#F7D832" transform="translate(63.9375,23.9375)"/>
<path d="M0 0 C6.27 0 12.54 0 19 0 C19 0.99 19 1.98 19 3 C16.03 3 13.06 3 10 3 C10 15.54 10 28.08 10 41 C-0.56 41 -11.12 41 -22 41 C-22 40.67 -22 40.34 -22 40 C-11.77 40 -1.54 40 9 40 C9 39.01 9 38.02 9 37 C5.04 37 1.08 37 -3 37 C-3.268125 36.05125 -3.53625 35.1025 -3.8125 34.125 C-4.74986588 30.74732727 -4.74986588 30.74732727 -8 29 C-6.28571429 17.28571429 -6.28571429 17.28571429 -4 15 C-1.74584622 14.71710819 0.50840656 14.5522881 2.7734375 14.37890625 C5.27920078 14.10799175 5.27920078 14.10799175 8 12 C8.36362818 9.79274927 8.36362818 9.79274927 8.1875 7.375 C8.16042969 6.55773437 8.13335937 5.74046875 8.10546875 4.8984375 C8.05326172 3.95871094 8.05326172 3.95871094 8 3 C5.36 3 2.72 3 0 3 C0 2.01 0 1.02 0 0 Z " fill="#7FACCE" transform="translate(97,75)"/>
<path d="M0 0 C0.86625 -0.00515625 1.7325 -0.0103125 2.625 -0.015625 C5 0.25 5 0.25 8 2.25 C8.34057617 4.49658203 8.34057617 4.49658203 8.29296875 7.2578125 C8.28330078 8.24394531 8.27363281 9.23007812 8.26367188 10.24609375 C8.23853516 11.27863281 8.21339844 12.31117187 8.1875 13.375 C8.16719727 14.93541016 8.16719727 14.93541016 8.14648438 16.52734375 C8.11105228 19.10207627 8.06165221 21.6757833 8 24.25 C2.16524985 25.10330338 -2.44860651 25.73351814 -8 23.25 C-8.0868329 19.791824 -8.14033282 16.33392656 -8.1875 12.875 C-8.21263672 11.89015625 -8.23777344 10.9053125 -8.26367188 9.890625 C-8.27333984 8.94960938 -8.28300781 8.00859375 -8.29296875 7.0390625 C-8.3086792 6.16975098 -8.32438965 5.30043945 -8.34057617 4.40478516 C-8.22818604 3.69370605 -8.1157959 2.98262695 -8 2.25 C-4.76085771 0.09057181 -3.75140267 -0.02232978 0 0 Z " fill="#E19C29" transform="translate(100,31.75)"/>
<path d="M0 0 C0.33 0 0.66 0 1 0 C1 6.93 1 13.86 1 21 C3.99479167 21.22786458 6.98958333 21.45572917 9.984375 21.68359375 C12.43679962 21.94090773 14.63921291 22.31812218 17 23 C13.73454239 24.88391785 10.71888239 25.49287967 7 26 C7 27.32 7 28.64 7 30 C10.3 29.67 13.6 29.34 17 29 C17 28.01 17 27.02 17 26 C18.65 26 20.3 26 22 26 C22 24.35 22 22.7 22 21 C23.98 20.34 25.96 19.68 28 19 C26.77992056 16.3094472 26.77992056 16.3094472 25 14 C24.95907063 11.66702567 24.95758277 9.33294775 25 7 C29.33333333 4.83333333 29.33333333 4.83333333 32.25 5.5625 C34 7 34 7 34.8125 9.4375 C35 12 35 12 34 15 C33.34 15.33 32.68 15.66 32 16 C32.00523682 16.55985596 32.01047363 17.11971191 32.01586914 17.6965332 C32.03666691 20.23517737 32.04966904 22.77380359 32.0625 25.3125 C32.07087891 26.19357422 32.07925781 27.07464844 32.08789062 27.98242188 C32.09111328 28.82998047 32.09433594 29.67753906 32.09765625 30.55078125 C32.10289307 31.33106689 32.10812988 32.11135254 32.11352539 32.9152832 C32 35 32 35 31 38 C30.01 38 29.02 38 28 38 C26.87137825 32.63904667 26.90311779 27.44693314 27 22 C26.319375 22.928125 25.63875 23.85625 24.9375 24.8125 C21.26822482 29.12389833 17.64281005 30.74424419 12.09375 31.28125 C6.3972197 31.45045387 1.73333092 31.49364901 -3 28 C-6.63327389 24.52133351 -9.84924084 21.2765706 -10 16 C-9.67 15.34 -9.34 14.68 -9 14 C-8.34 14 -7.68 14 -7 14 C-7 12.02 -7 10.04 -7 8 C-6.34 8.66 -5.68 9.32 -5 10 C-5.05859375 12.2421875 -5.05859375 12.2421875 -5.4375 14.875 C-5.91654716 18.2535431 -6.04163833 20.73062423 -5 24 C-3.68 23.34 -2.36 22.68 -1 22 C-1 23.65 -1 25.3 -1 27 C-0.01 26.34 0.98 25.68 2 25 C1.34 24.01 0.68 23.02 0 22 C-0.22705078 19.63989258 -0.22705078 19.63989258 -0.1953125 16.89453125 C-0.18886719 15.91162109 -0.18242188 14.92871094 -0.17578125 13.91601562 C-0.15902344 12.89185547 -0.14226562 11.86769531 -0.125 10.8125 C-0.11597656 9.77673828 -0.10695313 8.74097656 -0.09765625 7.67382812 C-0.0740786 5.11565315 -0.0411703 2.55794252 0 0 Z " fill="#68B5DB" transform="translate(91,34)"/>
<path d="M0 0 C0.33 0 0.66 0 1 0 C1.48095594 6.37266617 1.48095594 6.37266617 -0.4375 8.875 C-4.18723516 10.52122519 -7.94160374 10.74851818 -12 11 C-12.50757862 12.41396902 -13.00574925 13.83131729 -13.5 15.25 C-13.7784375 16.03890625 -14.056875 16.8278125 -14.34375 17.640625 C-15.17864861 20.23412738 -15.17864861 20.23412738 -15 24 C-14.34 24.474375 -13.68 24.94875 -13 25.4375 C-12.34 25.953125 -11.68 26.46875 -11 27 C-11 28.65 -11 30.3 -11 32 C-7.04 32 -3.08 32 1 32 C1 32.99 1 33.98 1 35 C-9.23 35 -19.46 35 -30 35 C-30 32.03 -30 29.06 -30 26 C-28.7625 25.46375 -27.525 24.9275 -26.25 24.375 C-22.09736121 22.27667015 -20.11934261 20.23868523 -18 16 C-17.1640226 13.33832482 -16.56678141 10.73944348 -16 8 C-15.33613281 7.91363281 -14.67226562 7.82726562 -13.98828125 7.73828125 C-8.11471284 6.80365504 -4.85451295 5.84922597 -1 1 C-0.67 0.67 -0.34 0.34 0 0 Z " fill="#656C76" transform="translate(105,80)"/>
<path d="M0 0 C0 5.61 0 11.22 0 17 C0.99 17.33 1.98 17.66 3 18 C1.02 18 -0.96 18 -3 18 C-3 19.98 -3 21.96 -3 24 C-3.33 24 -3.66 24 -4 24 C-4 22.35 -4 20.7 -4 19 C-5.65 19 -7.3 19 -9 19 C-9 18.01 -9 17.02 -9 16 C-9.66 16 -10.32 16 -11 16 C-10.65772428 18.97065509 -10.65772428 18.97065509 -10 22 C-9.34 22.33 -8.68 22.66 -8 23 C-10 26 -10 26 -13 27 C-12.67 28.32 -12.34 29.64 -12 31 C-12.66 31 -13.32 31 -14 31 C-14 31.66 -14 32.32 -14 33 C-13.34 33.33 -12.68 33.66 -12 34 C-12.66 34.66 -13.32 35.32 -14 36 C-15.32 36 -16.64 36 -18 36 C-18 36.66 -18 37.32 -18 38 C-18.99 38 -19.98 38 -21 38 C-19.72019133 33.84827618 -18.12823627 30.19109296 -16.0625 26.375 C-13.40262238 21.19693315 -11.96958897 16.29715279 -10.7109375 10.640625 C-9.23256119 5.14951299 -6.25310047 0 0 0 Z " fill="#979EA3" transform="translate(71,48)"/>
<path d="M0 0 C0 1.98 0 3.96 0 6 C0.66 6 1.32 6 2 6 C2 4.02 2 2.04 2 0 C3.98 0 5.96 0 8 0 C6.25 3.875 6.25 3.875 4 5 C6.27057377 5.05398987 8.54151288 5.09278742 10.8125 5.125 C12.70935547 5.15980469 12.70935547 5.15980469 14.64453125 5.1953125 C18.1338024 5.27581918 18.1338024 5.27581918 21 3 C22.485 3.495 22.485 3.495 24 4 C24.33 3.34 24.66 2.68 25 2 C28.06451613 6.29032258 28.06451613 6.29032258 27.75 9.75 C27 12 27 12 26 13 C20.47058824 13.23529412 20.47058824 13.23529412 18 12 C18 10.35 18 8.7 18 7 C11.73 7 5.46 7 -1 7 C-1 8.65 -1 10.3 -1 12 C-3.97 12 -6.94 12 -10 12 C-10 9.03 -10 6.06 -10 3 C-9.34 3 -8.68 3 -8 3 C-8 2.34 -8 1.68 -8 1 C-2.25 0 -2.25 0 0 0 Z " fill="#CED5D2" transform="translate(98,68)"/>
<path d="M0 0 C0.66 0.33 1.32 0.66 2 1 C2 1.66 2 2.32 2 3 C-0.64458379 4.32229189 -2.67761301 4.09677194 -5.625 4.0625 C-6.62789062 4.05347656 -7.63078125 4.04445313 -8.6640625 4.03515625 C-9.43492188 4.02355469 -10.20578125 4.01195312 -11 4 C-11.33 4.99 -11.66 5.98 -12 7 C-12.66 7 -13.32 7 -14 7 C-13.88995839 10.58395685 -13.75936703 14.16687917 -13.625 17.75 C-13.5940625 18.76578125 -13.563125 19.7815625 -13.53125 20.828125 C-13.49257812 21.8078125 -13.45390625 22.7875 -13.4140625 23.796875 C-13.3826416 24.69760742 -13.3512207 25.59833984 -13.31884766 26.52636719 C-12.98862744 29.08822875 -12.29048327 30.78127437 -11 33 C-12.98 33.495 -12.98 33.495 -15 34 C-15.33 32.68 -15.66 31.36 -16 30 C-16.99 30.33 -17.98 30.66 -19 31 C-21.33769735 27.49345398 -21.24715017 26.11916958 -21 22 C-20.7525 21.13375 -20.505 20.2675 -20.25 19.375 C-20.1675 18.59125 -20.085 17.8075 -20 17 C-21.87508162 14.7914234 -21.87508162 14.7914234 -24 13 C-24 12.34 -24 11.68 -24 11 C-23.01 10.67 -22.02 10.34 -21 10 C-20.34 10.33 -19.68 10.66 -19 11 C-19 10.34 -19 9.68 -19 9 C-18.01 9 -17.02 9 -16 9 C-16.33 7.35 -16.66 5.7 -17 4 C-12.33097413 -1.33602957 -6.55423271 -0.59055863 0 0 Z " fill="#56B6EA" transform="translate(105,27)"/>
<path d="M0 0 C0 4.29 0 8.58 0 13 C-3.96 13 -7.92 13 -12 13 C-12 15.31 -12 17.62 -12 20 C-13.65 19.01 -15.3 18.02 -17 17 C-15.28571429 5.28571429 -15.28571429 5.28571429 -13 3 C-10.74584622 2.71710819 -8.49159344 2.5522881 -6.2265625 2.37890625 C-3.82098657 1.96953631 -2.26700257 0 0 0 Z " fill="#90979A" transform="translate(106,87)"/>
<path d="M0 0 C1 1 1 1 1.09765625 3.50390625 C1.08605469 4.51324219 1.07445313 5.52257813 1.0625 6.5625 C1.05347656 7.57441406 1.04445313 8.58632813 1.03515625 9.62890625 C1.02355469 10.41136719 1.01195313 11.19382812 1 12 C-3.63702711 13.5456757 -8.12471651 13.05735628 -13 13 C-13 9.37 -13 5.74 -13 2 C-12.34 2 -11.68 2 -11 2 C-11 1.34 -11 0.68 -11 0 C-6.91733314 -1.36088895 -4.24071899 -0.68398693 0 0 Z " fill="#E19C2E" transform="translate(106,35)"/>
<path d="M0 0 C4.32817617 0.75525222 6.79613899 3.07010426 10.09765625 5.8203125 C10.72542969 6.20960937 11.35320312 6.59890625 12 7 C12.99 6.67 13.98 6.34 15 6 C16.5 7.0625 16.5 7.0625 18 9 C18.1875 12.6875 18.1875 12.6875 18 16 C17.34 16 16.68 16 16 16 C16 16.66 16 17.32 16 18 C14.02 18 12.04 18 10 18 C9.67 16.824375 9.34 15.64875 9 14.4375 C7.07681692 9.17454533 3.361159 6.31489521 -1 3 C-0.67 2.01 -0.34 1.02 0 0 Z " fill="#ADB4B5" transform="translate(66,32)"/>
<path d="M0 0 C1.32 0.33 2.64 0.66 4 1 C4.09796875 1.69867188 4.1959375 2.39734375 4.296875 3.1171875 C4.44640625 4.02726562 4.5959375 4.93734375 4.75 5.875 C4.88921875 6.77992187 5.0284375 7.68484375 5.171875 8.6171875 C5.77983843 11.16214243 5.77983843 11.16214243 8.078125 12.3203125 C8.71234375 12.54460938 9.3465625 12.76890625 10 13 C10.125 15.875 10.125 15.875 10 19 C8 21 8 21 5 21.3125 C4.01 21.209375 3.02 21.10625 2 21 C-0.19468741 17.70796888 -0.1898905 17.48411236 0.4375 13.875 C1.1204516 9.03874972 0.68939764 4.82578346 0 0 Z " fill="#EDD967" transform="translate(45,46)"/>
<path d="M0 0 C2.046875 3.71875 2.046875 3.71875 1.625 6.25 C1.41875 6.8275 1.2125 7.405 1 8 C0.34 8 -0.32 8 -1 8 C-0.65772428 10.97065509 -0.65772428 10.97065509 0 14 C0.66 14.33 1.32 14.66 2 15 C0 18 0 18 -3 19 C-2.67 20.32 -2.34 21.64 -2 23 C-2.66 23 -3.32 23 -4 23 C-4 23.66 -4 24.32 -4 25 C-3.34 25.33 -2.68 25.66 -2 26 C-2.66 26.66 -3.32 27.32 -4 28 C-5.32 28 -6.64 28 -8 28 C-8 28.66 -8 29.32 -8 30 C-8.99 30 -9.98 30 -11 30 C-9.72019133 25.84827618 -8.12823627 22.19109296 -6.0625 18.375 C-3.01033208 12.41991443 -1.32149863 6.5379406 0 0 Z " fill="#9CA1A4" transform="translate(61,56)"/>
<path d="M0 0 C0 0.33 0 0.66 0 1 C-1.18078125 1.02578125 -2.3615625 1.0515625 -3.578125 1.078125 C-5.13545323 1.13441397 -6.69274347 1.19176114 -8.25 1.25 C-9.02730469 1.26417969 -9.80460937 1.27835938 -10.60546875 1.29296875 C-14.42738544 1.45629852 -16.42494949 1.57221852 -19.5625 3.90625 C-21.26030288 5.89035446 -21.26030288 5.89035446 -20.75 8.25 C-20.5025 8.8275 -20.255 9.405 -20 10 C-20.99 10.495 -20.99 10.495 -22 11 C-22.66 10.67 -23.32 10.34 -24 10 C-24 10.66 -24 11.32 -24 12 C-25.65 12 -27.3 12 -29 12 C-27.32205588 7.10599631 -25.46524685 3.32512396 -20.76171875 0.796875 C-13.33242839 -2.40482221 -7.67000539 -2.99317283 0 0 Z " fill="#77BEE6" transform="translate(110,26)"/>
<path d="M0 0 C2.3125 1.4375 2.3125 1.4375 3.1875 3.875 C3.3125 6.4375 3.3125 6.4375 2.3125 9.4375 C-1.0625 10.0625 -1.0625 10.0625 -4.6875 10.4375 C-6.6875 8.4375 -6.6875 8.4375 -6.8125 4.8125 C-6.77125 3.69875 -6.73 2.585 -6.6875 1.4375 C-4.10756343 -0.28245771 -3.0937542 -0.64752995 0 0 Z " fill="#E1D261" transform="translate(122.6875,39.5625)"/>
<path d="M0 0 C2.0625 2.1875 2.0625 2.1875 4 5 C3.70731707 9.29268293 3.70731707 9.29268293 2 11 C-3.52941176 11.23529412 -3.52941176 11.23529412 -6 10 C-6.1875 6.625 -6.1875 6.625 -6 3 C-5.01 2.34 -4.02 1.68 -3 1 C-2.01 1.33 -1.02 1.66 0 2 C0 1.34 0 0.68 0 0 Z " fill="#F1E06F" transform="translate(122,70)"/>
<path d="M0 0 C0.928125 0.20625 1.85625 0.4125 2.8125 0.625 C3.1425 2.935 3.4725 5.245 3.8125 7.625 C1.8325 8.615 -0.1475 9.605 -2.1875 10.625 C-4.73313558 8.47711998 -6.06736066 7.34583605 -6.625 4 C-6.480625 3.21625 -6.33625 2.4325 -6.1875 1.625 C-3.1875 -0.375 -3.1875 -0.375 0 0 Z " fill="#F4C71C" transform="translate(64.1875,24.375)"/>
<path d="M0 0 C0.99 0 1.98 0 3 0 C4.23691651 3.83836789 4.1328329 7.55597345 4.125 11.5625 C4.12886719 12.23474609 4.13273437 12.90699219 4.13671875 13.59960938 C4.13061073 16.67499752 3.97991229 19.06026313 3 22 C2.01 22 1.02 22 0 22 C-1.05476879 17.04649325 -0.95554228 12.62160651 -0.5625 7.625 C-0.51029297 6.88894531 -0.45808594 6.15289062 -0.40429688 5.39453125 C-0.27582277 3.59589371 -0.13879051 1.79787091 0 0 Z " fill="#959798" transform="translate(119,50)"/>
<path d="M0 0 C0.86625 -0.00515625 1.7325 -0.0103125 2.625 -0.015625 C5 0.25 5 0.25 8 2.25 C8.34057617 4.49658203 8.34057617 4.49658203 8.29296875 7.2578125 C8.28330078 8.24394531 8.27363281 9.23007812 8.26367188 10.24609375 C8.23853516 11.27863281 8.21339844 12.31117187 8.1875 13.375 C8.16719727 14.93541016 8.16719727 14.93541016 8.14648438 16.52734375 C8.11105228 19.10207627 8.06165221 21.6757833 8 24.25 C7.67 24.25 7.34 24.25 7 24.25 C6.67 17.65 6.34 11.05 6 4.25 C0.51421561 3.52166526 0.51421561 3.52166526 -5 3.25 C-5 3.91 -5 4.57 -5 5.25 C-5.66 5.25 -6.32 5.25 -7 5.25 C-7 11.19 -7 17.13 -7 23.25 C-7.33 23.25 -7.66 23.25 -8 23.25 C-8.0868329 19.791824 -8.14033282 16.33392656 -8.1875 12.875 C-8.21263672 11.89015625 -8.23777344 10.9053125 -8.26367188 9.890625 C-8.27333984 8.94960938 -8.28300781 8.00859375 -8.29296875 7.0390625 C-8.3086792 6.16975098 -8.32438965 5.30043945 -8.34057617 4.40478516 C-8.22818604 3.69370605 -8.1157959 2.98262695 -8 2.25 C-4.76085771 0.09057181 -3.75140267 -0.02232978 0 0 Z " fill="#C6C35B" transform="translate(100,31.75)"/>
<path d="M0 0 C0.33 1.65 0.66 3.3 1 5 C-2.08888522 7.05925681 -2.70935927 7.2390374 -6.1875 7.125 C-8.0746875 7.063125 -8.0746875 7.063125 -10 7 C-10 5.68 -10 4.36 -10 3 C-10.66 2.67 -11.32 2.34 -12 2 C-9.67178678 -2.65642643 -4.2230553 -0.62307373 0 0 Z " fill="#FADC0F" transform="translate(106,35)"/>
<path d="M0 0 C0 3.3 0 6.6 0 10 C-1.98 10 -3.96 10 -6 10 C-4.35 8.02 -2.7 6.04 -1 4 C-2.98 4 -4.96 4 -7 4 C-7 5.98 -7 7.96 -7 10 C-7.66 10 -8.32 10 -9 10 C-9 8.02 -9 6.04 -9 4 C-10.32 4.33 -11.64 4.66 -13 5 C-13 3.68 -13 2.36 -13 1 C-11.02087544 0.83283412 -9.04169915 0.66628044 -7.0625 0.5 C-5.40927734 0.36078125 -5.40927734 0.36078125 -3.72265625 0.21875 C-1 0 -1 0 0 0 Z " fill="#C5D8E3" transform="translate(107,64)"/>
<path d="M0 0 C3.5 0.125 3.5 0.125 4.5 1.125 C4.54092937 3.45797433 4.54241723 5.79205225 4.5 8.125 C1.53 8.125 -1.44 8.125 -4.5 8.125 C-4.54241723 5.79205225 -4.54092937 3.45797433 -4.5 1.125 C-3.5 0.125 -3.5 0.125 0 0 Z " fill="#F1CC29" transform="translate(92.5,71.875)"/>
<path d="M0 0 C6.27 0 12.54 0 19 0 C19 0.99 19 1.98 19 3 C16.03 3 13.06 3 10 3 C10 5.64 10 8.28 10 11 C9.67 11 9.34 11 9 11 C8.67 8.36 8.34 5.72 8 3 C5.36 3 2.72 3 0 3 C0 2.01 0 1.02 0 0 Z " fill="#9B9F9A" transform="translate(97,75)"/>
<path d="M0 0 C3.375 -0.125 3.375 -0.125 7 0 C7.66 0.66 8.32 1.32 9 2 C8.44444444 6.55555556 8.44444444 6.55555556 7 8 C4.66702567 8.04092937 2.33294775 8.04241723 0 8 C0 5.36 0 2.72 0 0 Z " fill="#5994C2" transform="translate(68,66)"/>
<path d="M0 0 C3.3 0 6.6 0 10 0 C10 1.98 10 3.96 10 6 C6.33694766 6.74926071 3.57644848 7.2380014 0 6 C0 4.02 0 2.04 0 0 Z " fill="#56B6EB" transform="translate(95,101)"/>
<path d="M0 0 C0 1.32 0 2.64 0 4 C-1.65 4 -3.3 4 -5 4 C-5 4.99 -5 5.98 -5 7 C-8.3 7.33 -11.6 7.66 -15 8 C-15 6.68 -15 5.36 -15 4 C-15.66 3.67 -16.32 3.34 -17 3 C-15.75283203 2.92652344 -15.75283203 2.92652344 -14.48046875 2.8515625 C-13.39378906 2.77679688 -12.30710937 2.70203125 -11.1875 2.625 C-10.10855469 2.55539063 -9.02960938 2.48578125 -7.91796875 2.4140625 C-4.76523143 1.96668612 -3.07078259 0 0 0 Z " fill="#58B6EA" transform="translate(113,56)"/>
<path d="M0 0 C1.65 0 3.3 0 5 0 C5.33 0.99 5.66 1.98 6 3 C5.67 3.33 5.34 3.66 5 4 C4.84213692 5.85174706 4.74892644 7.7090911 4.68359375 9.56640625 C4.64169922 10.69111328 4.59980469 11.81582031 4.55664062 12.97460938 C4.51732422 14.15861328 4.47800781 15.34261719 4.4375 16.5625 C4.39431641 17.75037109 4.35113281 18.93824219 4.30664062 20.16210938 C4.20016454 23.10794784 4.09815159 26.0538743 4 29 C3.67 29 3.34 29 3 29 C3 21.74 3 14.48 3 7 C-0.14930893 5.95023036 -2.38814456 5.89868405 -5.6875 5.9375 C-6.68136719 5.94652344 -7.67523438 5.95554687 -8.69921875 5.96484375 C-9.45847656 5.97644531 -10.21773438 5.98804688 -11 6 C-11 5.34 -11 4.68 -11 4 C-4.565 3.505 -4.565 3.505 2 3 C2 2.34 2 1.68 2 1 C1.34 0.67 0.68 0.34 0 0 Z " fill="#6AB3C8" transform="translate(105,27)"/>
<path d="M0 0 C0.33 0.66 0.66 1.32 1 2 C1.99 2.33 2.98 2.66 4 3 C4 3.66 4 4.32 4 5 C4.99 5.33 5.98 5.66 7 6 C7 6.66 7 7.32 7 8 C6.34 8 5.68 8 5 8 C5 9.65 5 11.3 5 13 C4.34 12.34 3.68 11.68 3 11 C-0.11785113 11.64644661 -0.11785113 11.64644661 -1 14 C-1.02685938 11.85423363 -1.04633088 9.70837355 -1.0625 7.5625 C-1.07410156 6.36753906 -1.08570312 5.17257813 -1.09765625 3.94140625 C-1 1 -1 1 0 0 Z " fill="#57B6EC" transform="translate(110,30)"/>
<path d="M0 0 C0.33 0 0.66 0 1 0 C1 1.98 1 3.96 1 6 C3.97 6 6.94 6 10 6 C10 5.34 10 4.68 10 4 C12.64 4 15.28 4 18 4 C17.67 5.32 17.34 6.64 17 8 C11.39 8 5.78 8 0 8 C0 5.36 0 2.72 0 0 Z " fill="#D5D6C0" transform="translate(87,74)"/>
<path d="M0 0 C0 2.31 0 4.62 0 7 C-2.64 7 -5.28 7 -8 7 C-8 5.02 -8 3.04 -8 1 C-5.29120665 -0.35439668 -2.99066732 -0.06501451 0 0 Z " fill="#F0CC1E" transform="translate(84,41)"/>
<path d="M0 0 C0.99 0.66 1.98 1.32 3 2 C1.49860488 6.20390632 -1.17275043 7.89110738 -5 10 C-5.99 9.67 -6.98 9.34 -8 9 C-8 8.01 -8 7.02 -8 6 C-6.25 4.39453125 -6.25 4.39453125 -4 2.8125 C-3.2575 2.28269531 -2.515 1.75289062 -1.75 1.20703125 C-1.1725 0.80871094 -0.595 0.41039063 0 0 Z " fill="#A5AEA5" transform="translate(57,30)"/>
<path d="M0 0 C0.33 0 0.66 0 1 0 C1 6.93 1 13.86 1 21 C3.99479167 21.22786458 6.98958333 21.45572917 9.984375 21.68359375 C12.43679962 21.94090773 14.63921291 22.31812218 17 23 C14.2889923 24.35550385 12.08660831 24.16917207 9.0625 24.1875 C8.00160156 24.20167969 6.94070312 24.21585938 5.84765625 24.23046875 C3 24 3 24 0 22 C-0.34057617 19.75341797 -0.34057617 19.75341797 -0.29296875 16.9921875 C-0.28330078 16.00605469 -0.27363281 15.01992188 -0.26367188 14.00390625 C-0.23853516 12.97136719 -0.21339844 11.93882813 -0.1875 10.875 C-0.17396484 9.83472656 -0.16042969 8.79445313 -0.14648438 7.72265625 C-0.11105228 5.14792373 -0.06165221 2.5742167 0 0 Z " fill="#8FADA0" transform="translate(91,34)"/>
<path d="M0 0 C4.6770579 2.27171384 7.57390685 5.45752773 10 10 C10 10.99 10 11.98 10 13 C9.01 13.33 8.02 13.66 7 14 C7 12.35 7 10.7 7 9 C5.68 8.67 4.36 8.34 3 8 C3 7.34 3 6.68 3 6 C2.34 5.67 1.68 5.34 1 5 C0.375 2.4375 0.375 2.4375 0 0 Z " fill="#6FBEE3" transform="translate(110,27)"/>
<path d="M0 0 C1.05960938 0.00676758 1.05960938 0.00676758 2.140625 0.01367188 C3.88545275 0.02546125 5.630237 0.04339676 7.375 0.0625 C7.375 0.3925 7.375 0.7225 7.375 1.0625 C3.415 1.0625 -0.545 1.0625 -4.625 1.0625 C-4.625 3.3725 -4.625 5.6825 -4.625 8.0625 C-7.125 6.8125 -7.125 6.8125 -9.625 5.0625 C-9.625 3.7425 -9.625 2.4225 -9.625 1.0625 C-6.55966836 -0.47016582 -3.35745728 -0.04026471 0 0 Z " fill="#879AA6" transform="translate(98.625,98.9375)"/>
<path d="M0 0 C0.33 1.32 0.66 2.64 1 4 C3.64 4 6.28 4 9 4 C9 5.32 9 6.64 9 8 C4.545 8.495 4.545 8.495 0 9 C0 6.03 0 3.06 0 0 Z " fill="#81B1C9" transform="translate(59,86)"/>
<path d="M0 0 C1.9375 0.3125 1.9375 0.3125 4 1 C5.1577506 4.47325181 5.06866652 7.36067448 5 11 C3.046875 10.2890625 3.046875 10.2890625 1 9 C0.390625 6.8359375 0.390625 6.8359375 0.25 4.375 C0.19328125 3.55773438 0.1365625 2.74046875 0.078125 1.8984375 C0.05234375 1.27195313 0.0265625 0.64546875 0 0 Z " fill="#ACACA4" transform="translate(45,46)"/>
<path d="M0 0 C0.33 0 0.66 0 1 0 C1 1.65 1 3.3 1 5 C4.96 5 8.92 5 13 5 C13 5.99 13 6.98 13 8 C9.7 8 6.4 8 3 8 C3 7.34 3 6.68 3 6 C2.01 6 1.02 6 0 6 C0 4.02 0 2.04 0 0 Z " fill="#5E7387" transform="translate(93,107)"/>
<path d="M0 0 C1.65 0 3.3 0 5 0 C5.33 2.31 5.66 4.62 6 7 C3.03 6.505 3.03 6.505 0 6 C0 4.02 0 2.04 0 0 Z " fill="#F6C60B" transform="translate(47,59)"/>
<path d="M0 0 C1.32 0.33 2.64 0.66 4 1 C3.34 1 2.68 1 2 1 C2 1.99 2 2.98 2 4 C5.63 4 9.26 4 13 4 C13 4.66 13 5.32 13 6 C11.56359829 6.19573608 10.12580496 6.38127816 8.6875 6.5625 C7.88699219 6.66691406 7.08648437 6.77132812 6.26171875 6.87890625 C4 7 4 7 1 6 C0.67 4.02 0.34 2.04 0 0 Z " fill="#DD9F2F" transform="translate(94,50)"/>
<path d="M0 0 C0.33 0 0.66 0 1 0 C1.02698422 2.43757413 1.04683099 4.87484915 1.0625 7.3125 C1.07087891 8.00279297 1.07925781 8.69308594 1.08789062 9.40429688 C1.10307906 12.5483025 1.00193327 14.99420019 0 18 C-0.99 18 -1.98 18 -3 18 C-3.33 16.02 -3.66 14.04 -4 12 C-2.68 12 -1.36 12 0 12 C0 8.04 0 4.08 0 0 Z " fill="#CDCFC2" transform="translate(122,54)"/>
<path d="M0 0 C0 3.63053243 -1.2278255 4.95750337 -3.5546875 7.63671875 C-5.49136818 9.46347972 -7.46012234 10.27432067 -10 11 C-10 9.68 -10 8.36 -10 7 C-8.35 7 -6.7 7 -5 7 C-5 5.35 -5 3.7 -5 2 C-3.35 1.34 -1.7 0.68 0 0 Z " fill="#7EC3E3" transform="translate(118,53)"/>
<path d="M0 0 C0 1.32 0 2.64 0 4 C-3.63 4 -7.26 4 -11 4 C-11 3.01 -11 2.02 -11 1 C-3.375 0 -3.375 0 0 0 Z " fill="#F5B518" transform="translate(107,50)"/>
<path d="M0 0 C0 1.98 0 3.96 0 6 C-1.66611905 6.042721 -3.33382885 6.04063832 -5 6 C-6 5 -6 5 -6.0625 2.4375 C-6.041875 1.633125 -6.02125 0.82875 -6 0 C-3 -1 -3 -1 0 0 Z " fill="#F6C70E" transform="translate(123,42)"/>
<path d="M0 0 C0.66 0.99 1.32 1.98 2 3 C0.02 3.33 -1.96 3.66 -4 4 C-4 5.98 -4 7.96 -4 10 C-2.02 10 -0.04 10 2 10 C2 10.66 2 11.32 2 12 C0.02 12 -1.96 12 -4 12 C-6 5.375 -6 5.375 -6 2 C-4.02 1.34 -2.04 0.68 0 0 Z " fill="#D2CA7E" transform="translate(80,38)"/>
<path d="M0 0 C0.66 0 1.32 0 2 0 C1.625 1.9375 1.625 1.9375 1 4 C-2.21451269 5.60725635 -5.43612536 5.05748185 -9 5 C-8.67 3.68 -8.34 2.36 -8 1 C-6.865625 1.020625 -5.73125 1.04125 -4.5625 1.0625 C-1.18424326 1.41577477 -1.18424326 1.41577477 0 0 Z " fill="#F3B90D" transform="translate(105,37)"/>
<path d="M0 0 C0.33 2.31 0.66 4.62 1 7 C0.01 7.33 -0.98 7.66 -2 8 C-2 5.69 -2 3.38 -2 1 C-4.31 1.66 -6.62 2.32 -9 3 C-8.67 2.01 -8.34 1.02 -8 0 C-5.13822943 -1.43088528 -3.06624227 -0.59991697 0 0 Z " fill="#F4E366" transform="translate(67,25)"/>
<path d="M0 0 C2 2 2 2 2.01171875 4.49609375 C1.85123047 5.95208984 1.85123047 5.95208984 1.6875 7.4375 C1.58824219 8.40558594 1.48898438 9.37367187 1.38671875 10.37109375 C1 13 1 13 0 16 C-3.07692308 11.69230769 -3.07692308 11.69230769 -2.6875 8.1875 C-2.460625 7.465625 -2.23375 6.74375 -2 6 C-1.34 6 -0.68 6 0 6 C0 4.02 0 2.04 0 0 Z " fill="#76BBBE" transform="translate(84,42)"/>
<path d="M0 0 C0 1.98 0 3.96 0 6 C-0.66 5.67 -1.32 5.34 -2 5 C-3.37342831 4.9310528 -4.75002102 4.91532292 -6.125 4.9375 C-8.043125 4.9684375 -8.043125 4.9684375 -10 5 C-10 4.34 -10 3.68 -10 3 C-9.34 3 -8.68 3 -8 3 C-8 2.34 -8 1.68 -8 1 C-2.25 0 -2.25 0 0 0 Z " fill="#DAD7BB" transform="translate(98,68)"/>
<path d="M0 0 C0 0.99 0 1.98 0 3 C-2.75078884 3.91692961 -4.35948913 4.10886083 -7.1875 4.0625 C-9.0746875 4.0315625 -9.0746875 4.0315625 -11 4 C-11 3.01 -11 2.02 -11 1 C-9.54182203 0.83197949 -8.0834516 0.66562857 -6.625 0.5 C-5.81289062 0.4071875 -5.00078125 0.314375 -4.1640625 0.21875 C-2 0 -2 0 0 0 Z " fill="#F8B718" transform="translate(107,44)"/>
<path d="M0 0 C0.33 1.32 0.66 2.64 1 4 C-1.40545638 5.20272819 -2.94996953 5.10071472 -5.625 5.0625 C-6.85089844 5.04896484 -6.85089844 5.04896484 -8.1015625 5.03515625 C-9.04128906 5.01775391 -9.04128906 5.01775391 -10 5 C-9.34 4.67 -8.68 4.34 -8 4 C-8 3.34 -8 2.68 -8 2 C-5.36 1.34 -2.72 0.68 0 0 Z " fill="#E59E22" transform="translate(106,40)"/>
<path d="M0 0 C3.375 -0.1875 3.375 -0.1875 7 0 C9 3 9 3 8.625 5.6875 C8.41875 6.450625 8.2125 7.21375 8 8 C7.67 8 7.34 8 7 8 C6.67 5.69 6.34 3.38 6 1 C3.47636012 1.62533375 3.47636012 1.62533375 1 3 C0.10613836 5.54775306 0.10613836 5.54775306 0 8 C-1.125 6.25 -1.125 6.25 -2 4 C-1.125 1.75 -1.125 1.75 0 0 Z " fill="#F2DD7C" transform="translate(42,37)"/>
<path d="M0 0 C0.66 0 1.32 0 2 0 C1.835 0.515625 1.67 1.03125 1.5 1.5625 C0.84951 4.73363876 0.9379266 7.77218334 1 11 C0.34 10.01 -0.32 9.02 -1 8 C-1.70125 7.319375 -2.4025 6.63875 -3.125 5.9375 C-5 4 -5 4 -5 2 C-4.01 1.67 -3.02 1.34 -2 1 C-1.34 1.33 -0.68 1.66 0 2 C0 1.34 0 0.68 0 0 Z " fill="#60B4D8" transform="translate(86,36)"/>
<path d="M0 0 C2.475 0.495 2.475 0.495 5 1 C5.33 2.65 5.66 4.3 6 6 C4.35 6 2.7 6 1 6 C0.67 4.02 0.34 2.04 0 0 Z " fill="#F4BF0A" transform="translate(117,74)"/>
<path d="M0 0 C2 4 2 4 1.625 6.25 C1.41875 6.8275 1.2125 7.405 1 8 C0.34 8 -0.32 8 -1 8 C-0.67 9.98 -0.34 11.96 0 14 C-0.99 14 -1.98 14 -3 14 C-2.01 9.38 -1.02 4.76 0 0 Z " fill="#ADB1B3" transform="translate(61,56)"/>
<path d="M0 0 C1.65 0.33 3.3 0.66 5 1 C5 2.32 5 3.64 5 5 C2.03 4.505 2.03 4.505 -1 4 C-0.67 2.68 -0.34 1.36 0 0 Z " fill="#78BFE6" transform="translate(98,103)"/>
<path d="M0 0 C2.475 0.495 2.475 0.495 5 1 C5.33 2.32 5.66 3.64 6 5 C4.02 5 2.04 5 0 5 C0 3.35 0 1.7 0 0 Z " fill="#F5BE0A" transform="translate(42,40)"/>
<path d="M0 0 C0.99 0.66 1.98 1.32 3 2 C2.34 3.32 1.68 4.64 1 6 C0.34 6 -0.32 6 -1 6 C-1 5.34 -1 4.68 -1 4 C-2.32 4.33 -3.64 4.66 -5 5 C-3.35 3.35 -1.7 1.7 0 0 Z " fill="#BFBBAF" transform="translate(57,30)"/>
<path d="M0 0 C1.66611905 -0.042721 3.33382885 -0.04063832 5 0 C6 1 6 1 6.0625 4.5625 C6.041875 5.696875 6.02125 6.83125 6 8 C4.02 8 2.04 8 0 8 C0 7.67 0 7.34 0 7 C1.65 7 3.3 7 5 7 C4.81171228 4.55519921 4.81171228 4.55519921 4 2 C2.03241727 0.63979849 2.03241727 0.63979849 0 0 Z " fill="#F7D937" transform="translate(118,73)"/>
<path d="M0 0 C0.33 0 0.66 0 1 0 C1 3.3 1 6.6 1 10 C-0.98 10 -2.96 10 -5 10 C-4.360625 9.46375 -3.72125 8.9275 -3.0625 8.375 C-0.61470596 5.55632807 -0.33285388 3.66139268 0 0 Z " fill="#DAE2E6" transform="translate(106,64)"/>
<path d="M0 0 C0.66 0.33 1.32 0.66 2 1 C1.319375 1.5878125 1.319375 1.5878125 0.625 2.1875 C-1.16809237 3.96944965 -1.16809237 3.96944965 -2 6.625 C-2.33 7.40875 -2.66 8.1925 -3 9 C-3.99 9.33 -4.98 9.66 -6 10 C-4.6302836 6.00499382 -2.74277578 3.19990508 0 0 Z " fill="#93CCEB" transform="translate(87,28)"/>
<path d="M0 0 C1.98 0.495 1.98 0.495 4 1 C4 1.99 4 2.98 4 4 C3.34 4.66 2.68 5.32 2 6 C1.01 5.01 0.02 4.02 -1 3 C-0.67 2.01 -0.34 1.02 0 0 Z " fill="#B5B4A2" transform="translate(66,32)"/>
<path d="M0 0 C0 1.32 0 2.64 0 4 C-2.31 4 -4.62 4 -7 4 C-7 3.34 -7 2.68 -7 2 C-2.25 0 -2.25 0 0 0 Z " fill="#777A81" transform="translate(60,82)"/>
<path d="M0 0 C0.33 1.32 0.66 2.64 1 4 C2.32 3.34 3.64 2.68 5 2 C5 3.65 5 5.3 5 7 C1.125 6.125 1.125 6.125 0 5 C-0.04063832 3.33382885 -0.042721 1.66611905 0 0 Z " fill="#63B3E6" transform="translate(85,54)"/>
<path d="M0 0 C4 4.625 4 4.625 4 8 C3.01 8.33 2.02 8.66 1 9 C0.67 6.03 0.34 3.06 0 0 Z " fill="#87C6DA" transform="translate(116,32)"/>
<path d="M0 0 C1.98 0.99 1.98 0.99 4 2 C4 3.65 4 5.3 4 7 C3.34 7 2.68 7 2 7 C1.34 4.69 0.68 2.38 0 0 Z " fill="#5BAEE8" transform="translate(71,67)"/>
<path d="M0 0 C3.96 1.98 3.96 1.98 8 4 C6 5 4 6 2 7 C1.34 4.69 0.68 2.38 0 0 Z " fill="#C2D9E3" transform="translate(86,60)"/>
<path d="M0 0 C0.66 0 1.32 0 2 0 C2.66 1.98 3.32 3.96 4 6 C2.68 6 1.36 6 0 6 C0 4.02 0 2.04 0 0 Z " fill="#4594D0" transform="translate(69,67)"/>
<path d="M0 0 C-0.33 1.32 -0.66 2.64 -1 4 C-2.98 4 -4.96 4 -7 4 C-5.53303752 1.06607504 -3.25996861 0 0 0 Z " fill="#F9C007" transform="translate(107,37)"/>
</svg>
