<svg version="1.1" xmlns="http://www.w3.org/2000/svg" width="173" height="144">
<path d="M0 0 C12.95931063 -0.21273834 25.71386437 0.41802069 38.625 1.5 C40.42182206 1.6451879 42.21869707 1.78972207 44.015625 1.93359375 C48.34439411 2.28157095 52.67236177 2.638241 57 3 C57.495 5.475 57.495 5.475 58 8 C57.34 8 56.68 8 56 8 C56.0517332 12.10520809 56.14677764 16.20828913 56.25 20.3125 C56.26417969 21.47974609 56.27835938 22.64699219 56.29296875 23.84960938 C56.32519531 24.96787109 56.35742188 26.08613281 56.390625 27.23828125 C56.41157227 28.26993408 56.43251953 29.30158691 56.45410156 30.36450195 C57.14022529 33.67698211 58.26450724 34.17644898 61 36 C61.75 39.1875 61.75 39.1875 62 42 C62.20625 40.906875 62.4125 39.81375 62.625 38.6875 C64 35 64 35 66.625 33 C70.78491567 31.7674324 73.87265144 31.61856711 78 33 C81 35.1875 81 35.1875 83 38 C83.37688506 41.20352299 83.44430855 43.11138291 82 46 C81.63515604 49.35656447 81.55618668 51.29393336 83.375 54.1875 C86.67407473 56.46543255 89.88316915 57.26586088 93.7578125 58.19140625 C96 59 96 59 98 62 C100.35754306 70.25506435 100.24426667 78.678282 100.125 87.1875 C100.11597656 88.42564453 100.10695313 89.66378906 100.09765625 90.93945312 C100.07433276 93.95984511 100.04160477 96.97981399 100 100 C94.13269827 100.16958186 88.26523727 100.32989815 82.39746094 100.48217773 C80.40748533 100.53506158 78.41757164 100.59033775 76.42773438 100.64819336 C65.20952146 100.9726638 54.1821797 101.15036584 43 100 C43 98.35 43 96.7 43 95 C42.38511719 95.01160156 41.77023438 95.02320312 41.13671875 95.03515625 C40.32847656 95.04417969 39.52023438 95.05320312 38.6875 95.0625 C37.88699219 95.07410156 37.08648437 95.08570312 36.26171875 95.09765625 C34 95 34 95 31 94 C31.25 92.125 31.25 92.125 32 90 C34.0625 88.75 34.0625 88.75 36 88 C35.67 87.01 35.34 86.02 35 85 C35.66 84.67 36.32 84.34 37 84 C36.01 83.34 35.02 82.68 34 82 C34.061875 82.763125 34.12375 83.52625 34.1875 84.3125 C34 87 34 87 32.8125 88.875 C31 90 31 90 28.4375 89.875 C26 89 26 89 24 86 C24.37939647 82.39573351 25.63931281 79.33479893 27 76 C26.39526855 75.98018066 25.79053711 75.96036133 25.16748047 75.93994141 C22.40291491 75.84413701 19.63904826 75.73468445 16.875 75.625 C15.92367187 75.5940625 14.97234375 75.563125 13.9921875 75.53125 C8.98289652 75.32252954 4.69633387 74.94494635 0 73 C0 71.68 0 70.36 0 69 C0.66 69 1.32 69 2 69 C1.83701416 68.29677612 1.67402832 67.59355225 1.50610352 66.86901855 C0.97794944 63.87499893 0.8867714 61.13458682 0.90234375 58.09570312 C0.90564697 56.93099487 0.9089502 55.76628662 0.91235352 54.56628418 C0.92065186 53.3172229 0.9289502 52.06816162 0.9375 50.78125 C0.94328538 48.80935956 0.94906515 46.83746909 0.95451355 44.8655777 C0.96763768 40.71104128 0.98982887 36.55654358 1.01037598 32.40203857 C1.02695946 28.97794887 1.04156445 25.55387815 1.05102539 22.12976074 C1.05855198 19.56439443 1.07060336 16.99903656 1.08764648 14.43371582 C1.09094971 13.26900757 1.09425293 12.10429932 1.09765625 10.90429688 C1.10551147 9.37138 1.10551147 9.37138 1.11352539 7.80749512 C1.00395185 5.09772965 0.61133902 2.63770274 0 0 Z M28 83 C28.33 83.99 28.66 84.98 29 86 C29.66 85.67 30.32 85.34 31 85 C30.67 84.34 30.34 83.68 30 83 C29.34 83 28.68 83 28 83 Z " fill="#F2F2F1" transform="translate(43,25)"/>
<path d="M0 0 C3 2.1875 3 2.1875 5 5 C5.37688506 8.20352299 5.44430855 10.11138291 4 13 C3.63515604 16.35656447 3.55618668 18.29393336 5.375 21.1875 C8.67407473 23.46543255 11.88316915 24.26586088 15.7578125 25.19140625 C18 26 18 26 20 29 C22.35754306 37.25506435 22.24426667 45.678282 22.125 54.1875 C22.11597656 55.42564453 22.10695313 56.66378906 22.09765625 57.93945312 C22.07433276 60.95984511 22.04160477 63.97981399 22 67 C16.13269827 67.16958186 10.26523727 67.32989815 4.39746094 67.48217773 C2.40748533 67.53506158 0.41757164 67.59033775 -1.57226562 67.64819336 C-12.79047854 67.9726638 -23.8178203 68.15036584 -35 67 C-35 65.35 -35 63.7 -35 62 C-35.61488281 62.01160156 -36.22976562 62.02320313 -36.86328125 62.03515625 C-37.67152344 62.04417969 -38.47976562 62.05320313 -39.3125 62.0625 C-40.11300781 62.07410156 -40.91351563 62.08570313 -41.73828125 62.09765625 C-44 62 -44 62 -47 61 C-46.75 59.125 -46.75 59.125 -46 57 C-43.9375 55.75 -43.9375 55.75 -42 55 C-42.33 54.01 -42.66 53.02 -43 52 C-42.34 51.67 -41.68 51.34 -41 51 C-41.99 50.34 -42.98 49.68 -44 49 C-43.9071875 50.1446875 -43.9071875 50.1446875 -43.8125 51.3125 C-44 54 -44 54 -45.1875 55.875 C-47 57 -47 57 -49.5625 56.875 C-52 56 -52 56 -54 53 C-53.62060353 49.39573351 -52.36068719 46.33479893 -51 43 C-51.60473145 42.98018066 -52.20946289 42.96036133 -52.83251953 42.93994141 C-55.59708509 42.84413701 -58.36095174 42.73468445 -61.125 42.625 C-62.07632813 42.5940625 -63.02765625 42.563125 -64.0078125 42.53125 C-69.01710348 42.32252954 -73.30366613 41.94494635 -78 40 C-78 38.68 -78 37.36 -78 36 C-71.88617591 35.73545953 -65.88690562 36.10889545 -59.8125 36.8125 C-58.81573242 36.91763916 -58.81573242 36.91763916 -57.79882812 37.02490234 C-53.02609927 37.61853123 -49.29851601 38.96503457 -45 41 C-45 40.01 -45 39.02 -45 38 C-43.741875 37.979375 -42.48375 37.95875 -41.1875 37.9375 C-40.12595703 37.92009766 -40.12595703 37.92009766 -39.04296875 37.90234375 C-37 38 -37 38 -34 39 C-34.05800781 38.02417969 -34.11601563 37.04835937 -34.17578125 36.04296875 C-34.22089844 34.77066406 -34.26601562 33.49835938 -34.3125 32.1875 C-34.37050781 30.92292969 -34.42851563 29.65835938 -34.48828125 28.35546875 C-34 25 -34 25 -31.60546875 23.05078125 C-29 22 -29 22 -27 22 C-26.82708303 32.7016389 -27.36850058 43.32089373 -28 54 C-27.01 54 -26.02 54 -25 54 C-24.86335938 53.16984375 -24.72671875 52.3396875 -24.5859375 51.484375 C-20.17691154 25.26536732 -20.17691154 25.26536732 -16 19 C-15.01 19 -14.02 19 -13 19 C-13.66 18.01 -14.32 17.02 -15 16 C-15.3359375 13.22265625 -15.3359375 13.22265625 -15.375 10.0625 C-15.40335938 9.02222656 -15.43171875 7.98195313 -15.4609375 6.91015625 C-14.89161966 3.31573431 -13.83623738 2.20653125 -11 0 C-7.13788151 -1.28737283 -3.86690277 -1.09085778 0 0 Z M-50 50 C-49.67 50.99 -49.34 51.98 -49 53 C-48.34 52.67 -47.68 52.34 -47 52 C-47.33 51.34 -47.66 50.68 -48 50 C-48.66 50 -49.32 50 -50 50 Z " fill="#C8D2DC" transform="translate(121,58)"/>
<path d="M0 0 C0.17291697 10.7016389 -0.36850058 21.32089373 -1 32 C2.3 31.01 5.6 30.02 9 29 C8.95875 27.7625 8.9175 26.525 8.875 25.25 C8.96951465 10.34031418 8.96951465 10.34031418 12.43359375 6.34765625 C15.91748221 4 15.91748221 4 18 4 C17.15905665 12.57375571 15.78658136 21.05774841 14.4375 29.5625 C14.20098631 31.06312181 13.96465668 32.56377263 13.72851562 34.06445312 C13.15446565 37.70997249 12.57792494 41.35509267 12 45 C7.35102376 45.85126137 3.34552684 45.96329945 -1.375 45.5625 C-3.24285156 45.40974609 -3.24285156 45.40974609 -5.1484375 45.25390625 C-6.08945313 45.17011719 -7.03046875 45.08632812 -8 45 C-8 43.35 -8 41.7 -8 40 C-8.61488281 40.01160156 -9.22976562 40.02320313 -9.86328125 40.03515625 C-10.67152344 40.04417969 -11.47976562 40.05320313 -12.3125 40.0625 C-13.11300781 40.07410156 -13.91351563 40.08570313 -14.73828125 40.09765625 C-17 40 -17 40 -20 39 C-19.75 37.125 -19.75 37.125 -19 35 C-16.9375 33.75 -16.9375 33.75 -15 33 C-15.33 32.01 -15.66 31.02 -16 30 C-15.34 29.67 -14.68 29.34 -14 29 C-14.99 28.34 -15.98 27.68 -17 27 C-16.938125 27.763125 -16.87625 28.52625 -16.8125 29.3125 C-17 32 -17 32 -18.1875 33.875 C-20 35 -20 35 -22.5625 34.875 C-25 34 -25 34 -27 31 C-26.62060353 27.39573351 -25.36068719 24.33479893 -24 21 C-24.60473145 20.98018066 -25.20946289 20.96036133 -25.83251953 20.93994141 C-28.59708509 20.84413701 -31.36095174 20.73468445 -34.125 20.625 C-35.07632813 20.5940625 -36.02765625 20.563125 -37.0078125 20.53125 C-42.01710348 20.32252954 -46.30366613 19.94494635 -51 18 C-51 16.68 -51 15.36 -51 14 C-44.88617591 13.73545953 -38.88690562 14.10889545 -32.8125 14.8125 C-32.14798828 14.88259277 -31.48347656 14.95268555 -30.79882812 15.02490234 C-26.02609927 15.61853123 -22.29851601 16.96503457 -18 19 C-18 18.01 -18 17.02 -18 16 C-16.741875 15.979375 -15.48375 15.95875 -14.1875 15.9375 C-13.47980469 15.92589844 -12.77210937 15.91429688 -12.04296875 15.90234375 C-10 16 -10 16 -7 17 C-7.05800781 16.02417969 -7.11601563 15.04835938 -7.17578125 14.04296875 C-7.22089844 12.77066406 -7.26601562 11.49835938 -7.3125 10.1875 C-7.37050781 8.92292969 -7.42851563 7.65835938 -7.48828125 6.35546875 C-7 3 -7 3 -4.60546875 1.05078125 C-2 0 -2 0 0 0 Z M-23 28 C-22.67 28.99 -22.34 29.98 -22 31 C-21.34 30.67 -20.68 30.34 -20 30 C-20.33 29.34 -20.66 28.68 -21 28 C-21.66 28 -22.32 28 -23 28 Z " fill="#63BFB2" transform="translate(94,80)"/>
<path d="M0 0 C2.1919603 0.70083084 4.37150739 1.42101756 6.54296875 2.18359375 C9.20739507 3.11372614 9.20739507 3.11372614 12.875 3.875 C17.36520918 6.92834224 17.34455654 10.12707688 18.42871094 15.27929688 C19.35401651 21.305646 19.31719922 27.22993895 19.1875 33.3125 C19.16719727 35.15618164 19.16719727 35.15618164 19.14648438 37.03710938 C19.11160703 40.02493501 19.05782199 43.01253032 19 46 C11.74 46 4.48 46 -3 46 C-4.4375 38.125 -4.4375 38.125 -4.88452148 35.64892578 C-5.57496992 31.71016668 -5.57496992 31.71016668 -7 28 C-8.31501803 17.68650147 -4.65485971 9.02694757 0 0 Z " fill="#344A5E" transform="translate(124,79)"/>
<path d="M0 0 C1.23556641 0.01740234 1.23556641 0.01740234 2.49609375 0.03515625 C3.32238281 0.04417969 4.14867187 0.05320312 5 0.0625 C5.63808594 0.07410156 6.27617188 0.08570312 6.93359375 0.09765625 C5.94359375 0.59265625 5.94359375 0.59265625 4.93359375 1.09765625 C4.93359375 2.74765625 4.93359375 4.39765625 4.93359375 6.09765625 C3.94359375 6.09765625 2.95359375 6.09765625 1.93359375 6.09765625 C2.60454479 18.12742912 2.60454479 18.12742912 3.93359375 30.09765625 C3.93359375 30.75765625 3.93359375 31.41765625 3.93359375 32.09765625 C4.59359375 32.42765625 5.25359375 32.75765625 5.93359375 33.09765625 C5.60359375 34.41765625 5.27359375 35.73765625 4.93359375 37.09765625 C5.59359375 37.42765625 6.25359375 37.75765625 6.93359375 38.09765625 C4.95359375 38.59265625 4.95359375 38.59265625 2.93359375 39.09765625 C2.93359375 41.07765625 2.93359375 43.05765625 2.93359375 45.09765625 C4.02671875 45.03578125 5.11984375 44.97390625 6.24609375 44.91015625 C10.31839317 45.11722232 10.4084772 45.34298365 12.93359375 48.09765625 C15.55930079 48.34835538 15.55930079 48.34835538 17.93359375 48.09765625 C17.93359375 46.11765625 17.93359375 44.13765625 17.93359375 42.09765625 C18.13984375 42.73703125 18.34609375 43.37640625 18.55859375 44.03515625 C19.82897584 46.44690702 19.82897584 46.44690702 23.05859375 46.84765625 C24.00734375 46.93015625 24.95609375 47.01265625 25.93359375 47.09765625 C25.60359375 49.73765625 25.27359375 52.37765625 24.93359375 55.09765625 C23.94359375 55.09765625 22.95359375 55.09765625 21.93359375 55.09765625 C21.60359375 54.43765625 21.27359375 53.77765625 20.93359375 53.09765625 C20.70671875 53.73703125 20.47984375 54.37640625 20.24609375 55.03515625 C18.93359375 57.09765625 18.93359375 57.09765625 16.62109375 58.03515625 C13.23100324 58.11399556 11.65156732 57.03906594 8.93359375 55.09765625 C8.47984375 55.59265625 8.02609375 56.08765625 7.55859375 56.59765625 C5.93359375 58.09765625 5.93359375 58.09765625 3.93359375 58.09765625 C3.93359375 58.75765625 3.93359375 59.41765625 3.93359375 60.09765625 C5.91359375 58.77765625 7.89359375 57.45765625 9.93359375 56.09765625 C10.92359375 56.75765625 11.91359375 57.41765625 12.93359375 58.09765625 C14.99068971 58.33821093 14.99068971 58.33821093 17.12109375 58.22265625 C18.37921875 58.18140625 19.63734375 58.14015625 20.93359375 58.09765625 C20.93359375 60.40765625 20.93359375 62.71765625 20.93359375 65.09765625 C5.18871903 65.2821665 5.18871903 65.2821665 -2.06640625 64.09765625 C-2.91691491 60.41016645 -3.19284075 57.00265221 -3.19580078 53.22167969 C-3.19895294 52.06408142 -3.2021051 50.90648315 -3.20535278 49.71380615 C-3.20332855 48.47407043 -3.20130432 47.23433472 -3.19921875 45.95703125 C-3.20017548 44.67910706 -3.2011322 43.40118286 -3.20211792 42.08453369 C-3.20279772 39.38802685 -3.20146064 36.691611 -3.19677734 33.99511719 C-3.19105748 30.53255469 -3.19437749 27.07006933 -3.20034981 23.60750961 C-3.20481977 20.30734733 -3.20169686 17.00719453 -3.19921875 13.70703125 C-3.20124298 12.45919861 -3.20326721 11.21136597 -3.20535278 9.92572021 C-3.20220062 8.78073059 -3.19904846 7.63574097 -3.19580078 6.45605469 C-3.19500519 5.44299255 -3.19420959 4.42993042 -3.19338989 3.38616943 C-3.03012615 0.44381227 -2.94218814 0.13904481 0 0 Z " fill="#F3F3F4" transform="translate(47.06640625,29.90234375)"/>
<path d="M0 0 C2.05078125 0.03255208 4.1015625 0.06510417 6.15234375 0.09765625 C6.15234375 1.74765625 6.15234375 3.39765625 6.15234375 5.09765625 C5.16234375 5.42765625 4.17234375 5.75765625 3.15234375 6.09765625 C3.81234375 7.41765625 4.47234375 8.73765625 5.15234375 10.09765625 C6.14234375 10.09765625 7.13234375 10.09765625 8.15234375 10.09765625 C8.48234375 9.43765625 8.81234375 8.77765625 9.15234375 8.09765625 C10.80234375 8.09765625 12.45234375 8.09765625 14.15234375 8.09765625 C13.62165314 11.91862864 12.65532809 14.15937028 10.15234375 17.09765625 C10.81234375 17.42765625 11.47234375 17.75765625 12.15234375 18.09765625 C12.48234375 19.08765625 12.81234375 20.07765625 13.15234375 21.09765625 C12.49234375 21.42765625 11.83234375 21.75765625 11.15234375 22.09765625 C11.81234375 22.42765625 12.47234375 22.75765625 13.15234375 23.09765625 C13.15234375 29.03765625 13.15234375 34.97765625 13.15234375 41.09765625 C6.22234375 40.60265625 6.22234375 40.60265625 -0.84765625 40.09765625 C-0.84765625 34.09765625 -0.84765625 34.09765625 1.15234375 32.09765625 C0.88558171 30.11273983 0.88558171 30.11273983 0.15234375 28.09765625 C-0.8345269 25.13704431 -1.11714743 22.7596767 -1.34765625 19.66015625 C-1.5995198 16.32905764 -1.85661696 13.00192964 -2.16796875 9.67578125 C-2.26851562 8.598125 -2.3690625 7.52046875 -2.47265625 6.41015625 C-2.56804688 5.41628906 -2.6634375 4.42242187 -2.76171875 3.3984375 C-2.79007813 2.63917969 -2.8184375 1.87992188 -2.84765625 1.09765625 C-1.84765625 0.09765625 -1.84765625 0.09765625 0 0 Z " fill="#F6F0E3" transform="translate(50.84765625,34.90234375)"/>
<path d="M0 0 C2.375 0.3125 2.375 0.3125 5 1 C10.32059258 8.98088887 9.25414821 19.97327175 9.125 29.1875 C9.11597656 30.42564453 9.10695312 31.66378906 9.09765625 32.93945312 C9.07433372 35.95972079 9.03847277 38.97988733 9 42 C1.74 42 -5.52 42 -13 42 C-13 41.67 -13 41.34 -13 41 C-8.71 41 -4.42 41 0 41 C-0.33 39.68 -0.66 38.36 -1 37 C-1.44544536 33.78086121 -1.74267202 30.5463162 -2.0625 27.3125 C-2.19881836 26.02182617 -2.19881836 26.02182617 -2.33789062 24.70507812 C-3.92665176 8.85330352 -3.92665176 8.85330352 -1 3 C-0.67 2.01 -0.34 1.02 0 0 Z " fill="#4D6372" transform="translate(134,83)"/>
<path d="M0 0 C3.20147328 2.3344076 4.75157869 3.6957881 5.5 7.625 C3.62995595 20.24779736 3.62995595 20.24779736 -0.5 24.6875 C-3 26 -3 26 -6 26 C-6.33 24.68 -6.66 23.36 -7 22 C-8.65 22 -10.3 22 -12 22 C-15.64391724 16.53412413 -16.13799003 10.43367593 -15 4 C-10.83269143 -1.22019544 -6.28091462 -1.77185335 0 0 Z " fill="#F1D481" transform="translate(121,58)"/>
<path d="M0 0 C-0.84094335 8.57375571 -2.21341864 17.05774841 -3.5625 25.5625 C-3.79901369 27.06312181 -4.03534332 28.56377263 -4.27148438 30.06445312 C-4.84553435 33.70997249 -5.42207506 37.35509267 -6 41 C-6.66 41 -7.32 41 -8 41 C-8.33 39.02 -8.66 37.04 -9 35 C-9.74765625 35.2165625 -10.4953125 35.433125 -11.265625 35.65625 C-12.25046875 35.9346875 -13.2353125 36.213125 -14.25 36.5 C-15.22453125 36.7784375 -16.1990625 37.056875 -17.203125 37.34375 C-20 38 -20 38 -24 38 C-23.67 36.68 -23.34 35.36 -23 34 C-22.01 34.33 -21.02 34.66 -20 35 C-20.020625 34.21625 -20.04125 33.4325 -20.0625 32.625 C-20 30 -20 30 -19 28 C-16.71484375 27.1484375 -16.71484375 27.1484375 -13.9375 26.375 C-12.55884766 25.98441406 -12.55884766 25.98441406 -11.15234375 25.5859375 C-10.44207031 25.39257812 -9.73179688 25.19921875 -9 25 C-9.04125 23.7625 -9.0825 22.525 -9.125 21.25 C-9.03048535 6.34031418 -9.03048535 6.34031418 -5.56640625 2.34765625 C-2.08251779 0 -2.08251779 0 0 0 Z " fill="#3F656E" transform="translate(112,84)"/>
<path d="M0 0 C12.95931063 -0.21273834 25.71386437 0.41802069 38.625 1.5 C40.42182206 1.6451879 42.21869707 1.78972207 44.015625 1.93359375 C48.34439411 2.28157095 52.67236177 2.638241 57 3 C57.495 5.475 57.495 5.475 58 8 C46.01629686 8.30951571 34.13142192 7.35952396 22.1875 6.5 C20.12698217 6.35505524 18.06643544 6.21052076 16.00585938 6.06640625 C11.00356057 5.71566513 6.0016853 5.35937964 1 5 C0.67 3.35 0.34 1.7 0 0 Z " fill="#6C7D8A" transform="translate(43,25)"/>
<path d="M0 0 C2.81819221 2.81819221 2.4051425 5.54105366 2.4375 9.3125 C2.47746094 10.62863281 2.51742187 11.94476563 2.55859375 13.30078125 C1.87596717 17.82139224 0.59764366 19.26874924 -3 22 C-3.99 22 -4.98 22 -6 22 C-6.268125 21.071875 -6.53625 20.14375 -6.8125 19.1875 C-7.69550917 16.04945627 -7.69550917 16.04945627 -9.5625 14.625 C-12.00342534 11.86569309 -12.20670009 8.54146156 -12 5 C-9.1908211 -0.86263423 -5.89417643 -0.66547153 0 0 Z " fill="#FCCF63" transform="translate(102,59)"/>
<path d="M0 0 C0.928125 0.20625 1.85625 0.4125 2.8125 0.625 C3.1425 1.615 3.4725 2.605 3.8125 3.625 C4.8025 4.285 5.7925 4.945 6.8125 5.625 C7 8.25 7 8.25 6.8125 10.625 C6.1525 10.625 5.4925 10.625 4.8125 10.625 C4.4825 11.615 4.1525 12.605 3.8125 13.625 C9.0925 12.305 14.3725 10.985 19.8125 9.625 C19.8125 11.935 19.8125 14.245 19.8125 16.625 C15.99733536 17.92562431 12.53688237 17.51869853 8.5625 17.1875 C7.29921875 17.08566406 6.0359375 16.98382813 4.734375 16.87890625 C3.77015625 16.79511719 2.8059375 16.71132812 1.8125 16.625 C1.8125 14.975 1.8125 13.325 1.8125 11.625 C1.19761719 11.63660156 0.58273438 11.64820312 -0.05078125 11.66015625 C-0.85902344 11.66917969 -1.66726562 11.67820312 -2.5 11.6875 C-3.70076172 11.70490234 -3.70076172 11.70490234 -4.92578125 11.72265625 C-7.1875 11.625 -7.1875 11.625 -10.1875 10.625 C-9.9375 8.75 -9.9375 8.75 -9.1875 6.625 C-7.125 5.375 -7.125 5.375 -5.1875 4.625 C-5.5175 3.635 -5.8475 2.645 -6.1875 1.625 C-3.1875 -0.375 -3.1875 -0.375 0 0 Z " fill="#F8D26D" transform="translate(84.1875,108.375)"/>
<path d="M0 0 C3 2.1875 3 2.1875 5 5 C5.37688506 8.20352299 5.44430855 10.11138291 4 13 C3.34 13 2.68 13 2 13 C2 14.32 2 15.64 2 17 C1.01 16.67 0.02 16.34 -1 16 C-2.1875 13.4375 -2.1875 13.4375 -3 11 C-4.98 11.66 -6.96 12.32 -9 13 C-9.33 10.69 -9.66 8.38 -10 6 C-11.32 6.33 -12.64 6.66 -14 7 C-14 5.35 -14 3.7 -14 2 C-9.11333417 -1.05416614 -5.42939406 -1.81723045 0 0 Z " fill="#475B5D" transform="translate(121,58)"/>
<path d="M0 0 C2.97 0.99 5.94 1.98 9 3 C8.67 4.32 8.34 5.64 8 7 C6.28296875 7.78697266 6.28296875 7.78697266 4.53125 8.58984375 C2.00773939 9.90760554 1.16804922 10.49397285 0.2578125 13.23486328 C-0.23942361 16.97449318 -0.45254049 20.70186233 -0.66015625 24.46679688 C-0.89584696 27.13608774 -1.12144829 29.46611427 -2 32 C-4.3353403 33.86537377 -6.03193993 34.26138872 -9 35 C-4.30103093 6.45154639 -4.30103093 6.45154639 0 0 Z " fill="#71C3B8" transform="translate(105,77)"/>
<path d="M0 0 C2 3.75 2 3.75 2 6 C2.78375 5.505 3.5675 5.01 4.375 4.5 C7 3 7 3 9 3 C8.73445313 4.03898437 8.46890625 5.07796875 8.1953125 6.1484375 C6.43912795 13.06689124 4.70759645 19.96499842 3.39453125 26.984375 C2.99790993 29.010678 2.51762417 31.00152058 2 33 C1.01 33 0.02 33 -1 33 C-1.10611887 21.94005573 -1.00708069 11.0239368 0 0 Z " fill="#CBD7DF" transform="translate(94,79)"/>
<path d="M0 0 C0.02690104 2.79173055 0.04679053 5.58320348 0.0625 8.375 C0.07087891 9.1690625 0.07925781 9.963125 0.08789062 10.78125 C0.11328125 16.7734375 0.11328125 16.7734375 -1 19 C-2.32 19 -3.64 19 -5 19 C-5.66 20.32 -6.32 21.64 -7 23 C-7.66 22.67 -8.32 22.34 -9 22 C-8.67 15.07 -8.34 8.14 -8 1 C-5.29120665 -0.35439668 -2.99066732 -0.06501451 0 0 Z " fill="#FAE9E3" transform="translate(81,60)"/>
<path d="M0 0 C0.66 1.32 1.32 2.64 2 4 C9.56407533 4.20589721 9.56407533 4.20589721 17 3 C16.67 3.99 16.34 4.98 16 6 C14.54182203 6.16802051 13.0834516 6.33437143 11.625 6.5 C10.40683594 6.63921875 10.40683594 6.63921875 9.1640625 6.78125 C7 7 7 7 5 7 C5.66 7.66 6.32 8.32 7 9 C8.59875322 12.37514568 9 14.16558757 9 18 C4.25 17.125 4.25 17.125 2 16 C0.46331135 15.77532169 -1.07968054 15.59203195 -2.625 15.4375 C-3.44226562 15.35371094 -4.25953125 15.26992187 -5.1015625 15.18359375 C-5.72804688 15.12300781 -6.35453125 15.06242187 -7 15 C-7 14.67 -7 14.34 -7 14 C-4.36 14 -1.72 14 1 14 C1 11.69 1 9.38 1 7 C-0.85625 7.309375 -0.85625 7.309375 -2.75 7.625 C-6.11909835 8.06107124 -8.12841921 8.03403639 -11 6 C-11.45375 6.495 -11.9075 6.99 -12.375 7.5 C-14 9 -14 9 -16 9 C-16 8.34 -16 7.68 -16 7 C-15.34 7 -14.68 7 -14 7 C-13.67 6.01 -13.34 5.02 -13 4 C-12.01 3.67 -11.02 3.34 -10 3 C-9.38125 3.495 -8.7625 3.99 -8.125 4.5 C-6.05388789 6.31496211 -6.05388789 6.31496211 -3.25 5.6875 C-2.13625 5.3471875 -2.13625 5.3471875 -1 5 C-0.67 3.35 -0.34 1.7 0 0 Z " fill="#CDAF91" transform="translate(67,81)"/>
<path d="M0 0 C6.21388819 -0.26887016 12.27319973 0.14002574 18.4375 0.875 C19.13552734 0.95347168 19.83355469 1.03194336 20.55273438 1.11279297 C24.05862036 1.55742943 26.00589858 2.00393239 29 4 C29 4.66 29 5.32 29 6 C25.29173349 6.05837668 21.5835863 6.09372277 17.875 6.125 C16.30492187 6.15013672 16.30492187 6.15013672 14.703125 6.17578125 C9.40730664 6.20929909 4.9428941 6.17213685 0 4 C0 2.68 0 1.36 0 0 Z " fill="#556873" transform="translate(43,94)"/>
<path d="M0 0 C-0.7238468 7.24608745 -1.83819599 14.3853963 -3.0625 21.5625 C-3.24876953 22.66658203 -3.43503906 23.77066406 -3.62695312 24.90820312 C-4.0824009 27.60585532 -4.54013024 30.30309874 -5 33 C-5.66 33 -6.32 33 -7 33 C-7.14863004 28.94354318 -7.25733927 24.88814514 -7.32958984 20.82958984 C-7.35971304 19.45007719 -7.40062275 18.07075533 -7.45263672 16.69189453 C-7.52562502 14.70689908 -7.55629398 12.72049068 -7.5859375 10.734375 C-7.6173584 9.54038086 -7.6487793 8.34638672 -7.68115234 7.11621094 C-7 4 -7 4 -4.02587891 1.57910156 C-1 0 -1 0 0 0 Z " fill="#304E5C" transform="translate(112,84)"/>
<path d="M0 0 C0 1.65 0 3.3 0 5 C-0.99 5.33 -1.98 5.66 -3 6 C-2.34 7.32 -1.68 8.64 -1 10 C-0.01 10 0.98 10 2 10 C2.33 9.34 2.66 8.68 3 8 C4.65 8 6.3 8 8 8 C7.25 12.75 7.25 12.75 5 15 C-1.9273743 15.67039106 -1.9273743 15.67039106 -5.5 13.4375 C-7.58392818 10.05111671 -7.55802097 7.90614682 -7 4 C-4.67744759 0.87656745 -3.9481664 0 0 0 Z " fill="#CA7A69" transform="translate(57,35)"/>
<path d="M0 0 C2.97 0.99 5.94 1.98 9 3 C7.02 3.99 7.02 3.99 5 5 C3.7018576 6.1490712 3.7018576 6.1490712 3 9 C2.34 9 1.68 9 1 9 C0.82984375 9.83724609 0.82984375 9.83724609 0.65625 10.69140625 C-0.34206058 14.20332024 -2.13547232 17.25189125 -3.84375 20.46484375 C-4.99768978 22.99493468 -5.56901808 25.26228531 -6 28 C-6.33 28 -6.66 28 -7 28 C-7.95185358 17.44500139 -4.66436607 9.32873215 0 0 Z " fill="#4D6070" transform="translate(124,79)"/>
<path d="M0 0 C0.33 0 0.66 0 1 0 C1 5.94 1 11.88 1 18 C-0.98 18 -2.96 18 -5 18 C-6.79840245 14.1783948 -7.61508797 11.2177461 -7 7 C-4.625 4.25 -4.625 4.25 -2 2 C-1.34 1.34 -0.68 0.68 0 0 Z " fill="#E0F5F9" transform="translate(72,59)"/>
<path d="M0 0 C0.33 0 0.66 0 1 0 C0.8089771 8.12715629 0.8089771 8.12715629 -2.375 11.5625 C-5 13 -5 13 -8 13 C-8.33 11.35 -8.66 9.7 -9 8 C-10.32 8 -11.64 8 -13 8 C-13 6.35 -13 4.7 -13 3 C-11.68 2.67 -10.36 2.34 -9 2 C-9 2.99 -9 3.98 -9 5 C-8.34 5 -7.68 5 -7 5 C-6.67 3.68 -6.34 2.36 -6 1 C-4.02 1.99 -2.04 2.98 0 4 C0 2.68 0 1.36 0 0 Z " fill="#FCCD5A" transform="translate(123,71)"/>
<path d="M0 0 C0.33 1.32 0.66 2.64 1 4 C6.28 2.68 11.56 1.36 17 0 C17 2.31 17 4.62 17 7 C13.18483536 8.30062431 9.72438237 7.89369853 5.75 7.5625 C4.48671875 7.46066406 3.2234375 7.35882813 1.921875 7.25390625 C0.95765625 7.17011719 -0.0065625 7.08632812 -1 7 C-1.04254356 5.00045254 -1.04080783 2.99958364 -1 1 C-0.67 0.67 -0.34 0.34 0 0 Z " fill="#87C6BE" transform="translate(87,118)"/>
<path d="M0 0 C1.32 0.33 2.64 0.66 4 1 C4 1.66 4 2.32 4 3 C4.99 3 5.98 3 7 3 C7.14285714 10.42857143 7.14285714 10.42857143 6 14 C5.01 13.67 4.02 13.34 3 13 C1.8125 10.4375 1.8125 10.4375 1 8 C-0.65 8.33 -2.3 8.66 -4 9 C-4 6.36 -4 3.72 -4 1 C-3.01 1.495 -3.01 1.495 -2 2 C-2 2.66 -2 3.32 -2 4 C-1.34 2.68 -0.68 1.36 0 0 Z " fill="#495B5F" transform="translate(117,61)"/>
<path d="M0 0 C1.65 0 3.3 0 5 0 C5 5.28 5 10.56 5 16 C3.35 16 1.7 16 0 16 C0 10.72 0 5.44 0 0 Z " fill="#DE8C7F" transform="translate(75,61)"/>
<path d="M0 0 C7.75493514 -0.09928082 15.31068715 -0.06059488 23 1 C23.33 2.65 23.66 4.3 24 6 C21.89611431 6.05402274 19.79183286 6.09280256 17.6875 6.125 C15.92986328 6.15980469 15.92986328 6.15980469 14.13671875 6.1953125 C11 6 11 6 8 4 C9.32 3.67 10.64 3.34 12 3 C12 2.34 12 1.68 12 1 C8.04 1 4.08 1 0 1 C0 0.67 0 0.34 0 0 Z " fill="#5E717E" transform="translate(77,27)"/>
<path d="M0 0 C0.66 0 1.32 0 2 0 C2.17291697 10.7016389 1.63149942 21.32089373 1 32 C0.67 32 0.34 32 0 32 C-3.42238727 7.64604775 -3.42238727 7.64604775 0 0 Z " fill="#68C6B6" transform="translate(92,80)"/>
<path d="M0 0 C8.39802254 -0.12190678 16.64251778 0.15672251 25 1 C25 1.66 25 2.32 25 3 C21.71444233 4.99145026 19.58758203 5.1545144 15.796875 4.7578125 C14.32734375 4.61279297 14.32734375 4.61279297 12.828125 4.46484375 C11.81234375 4.35269531 10.7965625 4.24054687 9.75 4.125 C8.203125 3.96837891 8.203125 3.96837891 6.625 3.80859375 C4.08205034 3.54958962 1.54074298 3.27969737 -1 3 C-0.67 2.01 -0.34 1.02 0 0 Z " fill="#425967" transform="translate(64,27)"/>
<path d="M0 0 C0.66 0.33 1.32 0.66 2 1 C2 1.66 2 2.32 2 3 C3.32 3.33 4.64 3.66 6 4 C6.22732116 6.80362763 6.34081872 8.46186517 4.8125 10.875 C3 12 3 12 0.4375 11.875 C-2 11 -2 11 -4 8 C-3.625 5.3125 -3.625 5.3125 -3 3 C-2.01 3 -1.02 3 0 3 C0 2.01 0 1.02 0 0 Z M0 5 C0.33 5.99 0.66 6.98 1 8 C1.66 7.67 2.32 7.34 3 7 C2.67 6.34 2.34 5.68 2 5 C1.34 5 0.68 5 0 5 Z " fill="#6D7A89" transform="translate(71,103)"/>
<path d="M0 0 C5.875 1.875 5.875 1.875 7 3 C7.04063832 4.66617115 7.042721 6.33388095 7 8 C5.68 8 4.36 8 3 8 C2.67 8.99 2.34 9.98 2 11 C0.68 10.67 -0.64 10.34 -2 10 C-2.33 8.68 -2.66 7.36 -3 6 C-2.34 5.67 -1.68 5.34 -1 5 C-0.34444881 2.47266765 -0.34444881 2.47266765 0 0 Z " fill="#FBCF6C" transform="translate(57,35)"/>
<path d="M0 0 C0.33 1.32 0.66 2.64 1 4 C-1.97 4 -4.94 4 -8 4 C-7.67 6.97 -7.34 9.94 -7 13 C-7.66 13 -8.32 13 -9 13 C-9 12.34 -9 11.68 -9 11 C-9.66 11 -10.32 11 -11 11 C-12.03063371 7.30689588 -12.30506081 5.61012162 -10.5625 2.125 C-6.89875485 -0.91322769 -4.66282643 -0.38856887 0 0 Z " fill="#5B6A77" transform="translate(102,59)"/>
<path d="M0 0 C0.33 0 0.66 0 1 0 C1.28875 1.0725 1.5775 2.145 1.875 3.25 C2.72820109 6.09400364 3.5636503 8.43508983 5 11 C3.68 10.67 2.36 10.34 1 10 C0.773125 10.763125 0.54625 11.52625 0.3125 12.3125 C-1.28096179 15.5753027 -2.76338336 16.46260709 -6 18 C-6.66 18 -7.32 18 -8 18 C-9.35439668 15.29120665 -9.06501451 12.99066732 -9 10 C-9.99 9.67 -10.98 9.34 -12 9 C-12 8.34 -12 7.68 -12 7 C-10.02 7.99 -10.02 7.99 -8 9 C-8 10.65 -8 12.3 -8 14 C-5.55519921 13.81171228 -5.55519921 13.81171228 -3 13 C-1.16574021 10.146707 -0.67019536 7.59554736 -0.375 4.25 C-0.30023438 3.45078125 -0.22546875 2.6515625 -0.1484375 1.828125 C-0.09945312 1.22484375 -0.05046875 0.6215625 0 0 Z " fill="#ECF0D6" transform="translate(104,67)"/>
<path d="M0 0 C0.33 0 0.66 0 1 0 C1 8.58 1 17.16 1 26 C2.49743119 24.50256881 2.33202693 23.01175761 2.5625 20.9375 C2.706875 19.638125 2.85125 18.33875 3 17 C3.66 17 4.32 17 5 17 C4.57910004 22.60461531 4.08386889 27.72086547 2 33 C1.01 33 0.02 33 -1 33 C-1.10611887 21.94005573 -1.00708069 11.0239368 0 0 Z " fill="#B8DADC" transform="translate(94,79)"/>
<path d="M0 0 C1.32 0 2.64 0 4 0 C4 4.95 4 9.9 4 15 C2.68 15 1.36 15 0 15 C0 10.05 0 5.1 0 0 Z " fill="#F5D073" transform="translate(59,60)"/>
<path d="M0 0 C1.22093421 3.66280263 0.70587062 5.63420957 0.00390625 9.41796875 C-0.22490234 10.67158203 -0.45371094 11.92519531 -0.68945312 13.21679688 C-0.93864145 14.54039483 -1.1879925 15.86396217 -1.4375 17.1875 C-1.68362527 18.52266081 -1.92907604 19.85794616 -2.17382812 21.19335938 C-2.7759168 24.46352728 -3.38490669 27.73225751 -4 31 C-4.33 31 -4.66 31 -5 31 C-5.26127083 24.27953374 -4.89728204 17.67892095 -4.1875 11 C-4.11740723 10.2582251 -4.04731445 9.5164502 -3.97509766 8.75219727 C-3.36724849 3.46657873 -3.36724849 3.46657873 -1.42578125 1 C-0.95527344 0.67 -0.48476562 0.34 0 0 Z " fill="#485E6D" transform="translate(111,86)"/>
<path d="M0 0 C0.66 0 1.32 0 2 0 C1.67 4.29 1.34 8.58 1 13 C-2.465 14.485 -2.465 14.485 -6 16 C-5.67 14.02 -5.34 12.04 -5 10 C-4.34 10 -3.68 10 -3 10 C-2.67 7.69 -2.34 5.38 -2 3 C-1.34 3 -0.68 3 0 3 C0 2.01 0 1.02 0 0 Z " fill="#57B6A8" transform="translate(102,96)"/>
<path d="M0 0 C1.32 0.33 2.64 0.66 4 1 C3.67 3.31 3.34 5.62 3 8 C2.34 8 1.68 8 1 8 C1 8.99 1 9.98 1 11 C0.34 11 -0.32 11 -1 11 C-1.33 13.31 -1.66 15.62 -2 18 C-2.33 18 -2.66 18 -3 18 C-3.36517527 11.42684522 -2.13619737 6.20514474 0 0 Z " fill="#68C0B5" transform="translate(101,88)"/>
<path d="M0 0 C2.64 0 5.28 0 8 0 C8 0.33 8 0.66 8 1 C6.576875 1.0928125 6.576875 1.0928125 5.125 1.1875 C1.84106255 1.65027392 1.84106255 1.65027392 0.625 4.3125 C-0.151009 7.1894691 -0.151009 7.1894691 0 11 C-0.99 10.67 -1.98 10.34 -3 10 C-3.33 9.34 -3.66 8.68 -4 8 C-4.33 8.66 -4.66 9.32 -5 10 C-5.66 9.67 -6.32 9.34 -7 9 C-6.67 7.68 -6.34 6.36 -6 5 C-7.65 5 -9.3 5 -11 5 C-11 4.67 -11 4.34 -11 4 C-5.555 3.505 -5.555 3.505 0 3 C0 2.01 0 1.02 0 0 Z " fill="#9BC0BE" transform="translate(76,96)"/>
<path d="M0 0 C3.0780003 2.77020027 4.80482008 5.01606693 6 9 C6 10.32 6 11.64 6 13 C3.625 12.6875 3.625 12.6875 1 12 C-1.44576827 8.33134759 -1.23607254 6.32799657 -1 2 C-0.67 1.34 -0.34 0.68 0 0 Z " fill="#F7CE72" transform="translate(70,86)"/>
<path d="M0 0 C1.32 0.66 2.64 1.32 4 2 C4 3.65 4 5.3 4 7 C-1.53613706 8.42868053 -7.55211412 8.81596196 -13 7 C-12.67 5.68 -12.34 4.36 -12 3 C-11.01 3.33 -10.02 3.66 -9 4 C-9.33 4.66 -9.66 5.32 -10 6 C-4.555 5.505 -4.555 5.505 1 5 C0.67 3.35 0.34 1.7 0 0 Z " fill="#F6E9B6" transform="translate(87,112)"/>
<path d="M0 0 C1.485 0.99 1.485 0.99 3 2 C2.67 2.66 2.34 3.32 2 4 C1.5773491 8.61823824 1.5773491 8.61823824 3.0625 12.875 C5.92113133 14.53485045 8.74739303 14.69315029 12 15 C12 15.66 12 16.32 12 17 C8.7 17 5.4 17 2 17 C1.67 17.99 1.34 18.98 1 20 C0.00046331 13.71719795 -0.77928464 7.36061541 -1 1 C-0.67 0.67 -0.34 0.34 0 0 Z " fill="#F6DED9" transform="translate(49,35)"/>
<path d="M0 0 C2.97 0.99 5.94 1.98 9 3 C7.02 3.99 7.02 3.99 5 5 C3.7058258 6.22880216 3.7058258 6.22880216 2 9 C1.34 9 0.68 9 0 9 C-1.33783393 9.31478446 -2.67203709 9.64587656 -4 10 C-2.8741386 6.46157845 -1.66905241 3.33810482 0 0 Z " fill="#596E78" transform="translate(124,79)"/>
<path d="M0 0 C1.31554985 0.4495045 2.62738358 0.90989716 3.9375 1.375 C5.03384766 1.75785156 5.03384766 1.75785156 6.15234375 2.1484375 C8 3 8 3 9 5 C9.06950541 6.54023996 9.08452357 8.08334988 9.0625 9.625 C9.05347656 10.44226563 9.04445313 11.25953125 9.03515625 12.1015625 C9.02355469 12.72804688 9.01195313 13.35453125 9 14 C8.67 14 8.34 14 8 14 C8 12.35 8 10.7 8 9 C6.35 8.67 4.7 8.34 3 8 C3.33 6.68 3.66 5.36 4 4 C2.35 4.33 0.7 4.66 -1 5 C-0.67 3.35 -0.34 1.7 0 0 Z " fill="#68C2B3" transform="translate(79,98)"/>
<path d="M0 0 C0.66 0.33 1.32 0.66 2 1 C1.34 1.66 0.68 2.32 0 3 C-0.36894582 5.03060659 -0.36894582 5.03060659 -0.4140625 7.3515625 C-0.47207031 8.62773438 -0.47207031 8.62773438 -0.53125 9.9296875 C-0.57765625 11.26386719 -0.57765625 11.26386719 -0.625 12.625 C-0.68300781 13.97078125 -0.68300781 13.97078125 -0.7421875 15.34375 C-0.83659357 17.5622927 -0.92216748 19.78082403 -1 22 C-1.33 21.34 -1.66 20.68 -2 20 C-3.155 19.67 -4.31 19.34 -5.5 19 C-6.655 18.67 -7.81 18.34 -9 18 C-9.33 17.34 -9.66 16.68 -10 16 C-7.36 16 -4.72 16 -2 16 C-2.02320312 15.01257813 -2.04640625 14.02515625 -2.0703125 13.0078125 C-2.09738281 11.08582031 -2.09738281 11.08582031 -2.125 9.125 C-2.14820312 7.84882812 -2.17140625 6.57265625 -2.1953125 5.2578125 C-2 2 -2 2 0 0 Z " fill="#6DB7AC" transform="translate(89,81)"/>
<path d="M0 0 C0 2.31 0 4.62 0 7 C-2.31 7 -4.62 7 -7 7 C-7 5.02 -7 3.04 -7 1 C-4.53721199 -0.231394 -2.7204945 -0.07159196 0 0 Z " fill="#CFEDEA" transform="translate(57,68)"/>
<path d="M0 0 C5.94 0 11.88 0 18 0 C18 0.33 18 0.66 18 1 C17.06027344 1.09087891 17.06027344 1.09087891 16.1015625 1.18359375 C15.28429688 1.26738281 14.46703125 1.35117187 13.625 1.4375 C12.81289063 1.51871094 12.00078125 1.59992187 11.1640625 1.68359375 C8.95727195 1.89090114 8.95727195 1.89090114 7 3 C7.66 3.66 8.32 4.32 9 5 C6.36 5 3.72 5 1 5 C0.67 3.35 0.34 1.7 0 0 Z " fill="#78878F" transform="translate(43,25)"/>
<path d="M0 0 C1.65 0 3.3 0 5 0 C5 2.97 5 5.94 5 9 C3.35 9 1.7 9 0 9 C0 6.03 0 3.06 0 0 Z " fill="#70BFDF" transform="translate(67,67)"/>
<path d="M0 0 C0.33 0 0.66 0 1 0 C0.8089771 8.12715629 0.8089771 8.12715629 -2.375 11.5625 C-5 13 -5 13 -8 13 C-8.33 11.68 -8.66 10.36 -9 9 C-4.375 6.875 -4.375 6.875 -1 8 C-1.66 6.35 -2.32 4.7 -3 3 C-2.01 3.33 -1.02 3.66 0 4 C0 2.68 0 1.36 0 0 Z " fill="#EACA74" transform="translate(123,71)"/>
<path d="M0 0 C4.73410789 0.24071735 7.12575507 0.36252974 11 3.1875 C13.34216311 6.48116687 13.61536293 8.04409544 13 12 C12.34 12.66 11.68 13.32 11 14 C11 11.69 11 9.38 11 7 C10.01 7 9.02 7 8 7 C7.34 5.68 6.68 4.36 6 3 C5.34 3 4.68 3 4 3 C4 2.34 4 1.68 4 1 C2.68 0.67 1.36 0.34 0 0 Z " fill="#7A8993" transform="translate(113,57)"/>
<path d="M0 0 C1.32 0.33 2.64 0.66 4 1 C4 1.66 4 2.32 4 3 C4.66 3.33 5.32 3.66 6 4 C2.55930376 6.29379749 1.27709699 7 -3 7 C-3.33 7.66 -3.66 8.32 -4 9 C-4 6.36 -4 3.72 -4 1 C-3.01 1.495 -3.01 1.495 -2 2 C-2 2.66 -2 3.32 -2 4 C-1.34 2.68 -0.68 1.36 0 0 Z " fill="#405A6B" transform="translate(117,61)"/>
<path d="M0 0 C-0.33 2.64 -0.66 5.28 -1 8 C-3.97 7.505 -3.97 7.505 -7 7 C-7 5.68 -7 4.36 -7 3 C-1.125 0 -1.125 0 0 0 Z " fill="#3E586A" transform="translate(105,109)"/>
<path d="M0 0 C0.66 0 1.32 0 2 0 C2 0.99 2 1.98 2 3 C2.66 3 3.32 3 4 3 C4.66 5.31 5.32 7.62 6 10 C5.34 10 4.68 10 4 10 C4 11.65 4 13.3 4 15 C3.67 15 3.34 15 3 15 C2.87625 14.195625 2.7525 13.39125 2.625 12.5625 C2.315625 11.2940625 2.315625 11.2940625 2 10 C1.34 9.67 0.68 9.34 0 9 C0 6.03 0 3.06 0 0 Z " fill="#57A598" transform="translate(88,104)"/>
<path d="M0 0 C0.99 0 1.98 0 3 0 C3 4.29 3 8.58 3 13 C2.01 13 1.02 13 0 13 C0 8.71 0 4.42 0 0 Z " fill="#E97362" transform="translate(76,62)"/>
<path d="M0 0 C0.99 0.33 1.98 0.66 3 1 C3 7.27 3 13.54 3 20 C2.67 20 2.34 20 2 20 C1.66361334 17.41703099 1.3307835 14.83368737 1 12.25 C0.90460938 11.52039063 0.80921875 10.79078125 0.7109375 10.0390625 C0.27978452 6.65143196 0 3.42145141 0 0 Z " fill="#77C1B9" transform="translate(90,92)"/>
<path d="M0 0 C0 2.31 0 4.62 0 7 C-5.53846154 6.50769231 -5.53846154 6.50769231 -7.875 3.9375 C-8.431875 2.9784375 -8.431875 2.9784375 -9 2 C-7.68786298 1.66524067 -6.37527913 1.33223233 -5.0625 1 C-3.96615234 0.7215625 -3.96615234 0.7215625 -2.84765625 0.4375 C-1 0 -1 0 0 0 Z " fill="#53B0A4" transform="translate(104,118)"/>
<path d="M0 0 C0.66 0.33 1.32 0.66 2 1 C0.94124926 4.40312738 -0.00902154 7.01353231 -2 10 C-5.625 10.6875 -5.625 10.6875 -9 11 C-9 9.35 -9 7.7 -9 6 C-8.67 6.66 -8.34 7.32 -8 8 C-3.42603508 6.17414442 -3.42603508 6.17414442 -0.625 2.3125 C-0.41875 1.549375 -0.2125 0.78625 0 0 Z " fill="#F0E4C0" transform="translate(123,76)"/>
<path d="M0 0 C-0.99 1.485 -0.99 1.485 -2 3 C-2.66 3 -3.32 3 -4 3 C-4.33 3.99 -4.66 4.98 -5 6 C-7.0625 6.6875 -7.0625 6.6875 -9 7 C-9.1875 4.625 -9.1875 4.625 -9 2 C-5.5647952 -0.29013653 -4.014669 -0.17842973 0 0 Z " fill="#5B6B71" transform="translate(116,58)"/>
<path d="M0 0 C0.763125 0.495 1.52625 0.99 2.3125 1.5 C4.88035307 3.25453128 4.88035307 3.25453128 7.6875 2.8125 C10.15588836 2.13259902 10.15588836 2.13259902 12 0 C12 1.32 12 2.64 12 4 C3.42857143 5.42857143 3.42857143 5.42857143 0 3 C-0.45375 3.495 -0.9075 3.99 -1.375 4.5 C-3 6 -3 6 -5 6 C-5 5.34 -5 4.68 -5 4 C-4.34 4 -3.68 4 -3 4 C-2.67 3.01 -2.34 2.02 -2 1 C-1.34 0.67 -0.68 0.34 0 0 Z " fill="#C7C3C3" transform="translate(56,84)"/>
<path d="M0 0 C2.31 0.33 4.62 0.66 7 1 C6.9375 2.8125 6.9375 2.8125 6 5 C2.4375 6.75 2.4375 6.75 -1 8 C-0.67 5.36 -0.34 2.72 0 0 Z " fill="#63B49A" transform="translate(107,79)"/>
<path d="M0 0 C1.98 0.99 1.98 0.99 4 2 C4 3.65 4 5.3 4 7 C5.65 6.67 7.3 6.34 9 6 C8.67 7.32 8.34 8.64 8 10 C6.68 10.33 5.36 10.66 4 11 C2.64560332 8.29120665 2.93498549 5.99066732 3 3 C2.01 2.67 1.02 2.34 0 2 C0 1.34 0 0.68 0 0 Z " fill="#E4DEC3" transform="translate(92,74)"/>
<path d="M0 0 C-0.33 0.66 -0.66 1.32 -1 2 C-3.64 2 -6.28 2 -9 2 C-8.67 4.97 -8.34 7.94 -8 11 C-8.66 11 -9.32 11 -10 11 C-10 10.34 -10 9.68 -10 9 C-10.66 9 -11.32 9 -12 9 C-12.20086443 5.28400809 -12.1519437 4.22791555 -10 1 C-6.55119218 0.17528509 -3.55809249 0 0 0 Z " fill="#5D6454" transform="translate(103,61)"/>
<path d="M0 0 C0.79921875 0.01804687 1.5984375 0.03609375 2.421875 0.0546875 C3.02515625 0.07789062 3.6284375 0.10109375 4.25 0.125 C3.26 0.785 2.27 1.445 1.25 2.125 C1.58 2.785 1.91 3.445 2.25 4.125 C-5.17857143 4.41071429 -5.17857143 4.41071429 -8.75 2.125 C-5.68753253 0.34090198 -3.52920727 -0.10380021 0 0 Z " fill="#415866" transform="translate(56.75,25.875)"/>
<path d="M0 0 C1.9375 0.6875 1.9375 0.6875 2.9375 2.6875 C1.9475 4.1725 1.9475 4.1725 0.9375 5.6875 C-0.3825 5.3575 -1.7025 5.0275 -3.0625 4.6875 C-3.3925 3.3675 -3.7225 2.0475 -4.0625 0.6875 C-2.0625 -0.3125 -2.0625 -0.3125 0 0 Z " fill="#FBE3D6" transform="translate(58.0625,40.3125)"/>
<path d="M0 0 C0.928125 0.20625 1.85625 0.4125 2.8125 0.625 C2.8125 1.615 2.8125 2.605 2.8125 3.625 C1.1625 3.625 -0.4875 3.625 -2.1875 3.625 C-2.5175 4.615 -2.8475 5.605 -3.1875 6.625 C-3.8475 6.295 -4.5075 5.965 -5.1875 5.625 C-5.8125 3.5625 -5.8125 3.5625 -6.1875 1.625 C-3.1875 -0.375 -3.1875 -0.375 0 0 Z " fill="#F6F4D1" transform="translate(84.1875,108.375)"/>
<path d="M0 0 C0.33 0 0.66 0 1 0 C1 4.62 1 9.24 1 14 C0.01 13.67 -0.98 13.34 -2 13 C-2.05416188 11.39620659 -2.09286638 9.79188594 -2.125 8.1875 C-2.14820312 7.29417969 -2.17140625 6.40085937 -2.1953125 5.48046875 C-2 3 -2 3 0 0 Z " fill="#D6F4F1" transform="translate(86,83)"/>
<path d="M0 0 C0.33 0 0.66 0 1 0 C1 2.64 1 5.28 1 8 C0.67 6.68 0.34 5.36 0 4 C-2.64 4 -5.28 4 -8 4 C-8.33 4.66 -8.66 5.32 -9 6 C-9 4.68 -9 3.36 -9 2 C-6.94921875 1.77213542 -4.8984375 1.54427083 -2.84765625 1.31640625 C-0.98859771 1.18113386 -0.98859771 1.18113386 0 0 Z " fill="#C4B678" transform="translate(103,61)"/>
<path d="M0 0 C0.33 0 0.66 0 1 0 C1.2358396 5.77807024 0.86783046 10.51324804 -1 16 C-1.33 16 -1.66 16 -2 16 C-2.20674944 10.21101581 -1.59162079 5.57067277 0 0 Z " fill="#79C3BB" transform="translate(100,90)"/>
<path d="M0 0 C0 0.99 0 1.98 0 3 C-0.66 3.66 -1.32 4.32 -2 5 C-2.40047444 7.32275177 -2.7397104 9.65739357 -3 12 C-4.9451 9.08235 -5.45276317 7.37462715 -6 4 C-4.02 2.68 -2.04 1.36 0 0 Z " fill="#305865" transform="translate(111,84)"/>
<path d="M0 0 C0.33 1.32 0.66 2.64 1 4 C2.65 3.67 4.3 3.34 6 3 C5.67 4.32 5.34 5.64 5 7 C3.02 7 1.04 7 -1 7 C-1.04254356 5.00045254 -1.04080783 2.99958364 -1 1 C-0.67 0.67 -0.34 0.34 0 0 Z " fill="#75BDAD" transform="translate(87,118)"/>
<path d="M0 0 C0.99 0.495 0.99 0.495 2 1 C2 1.66 2 2.32 2 3 C3.32 3.33 4.64 3.66 6 4 C6 5.65 6 7.3 6 9 C5.01 9 4.02 9 3 9 C2.67 7.35 2.34 5.7 2 4 C1.34 4 0.68 4 0 4 C0 2.68 0 1.36 0 0 Z " fill="#52636E" transform="translate(71,103)"/>
<path d="M0 0 C1.32 0 2.64 0 4 0 C3.67 0.99 3.34 1.98 3 3 C-6.41002278 4.51708428 -6.41002278 4.51708428 -11 2 C-7.61288625 0.95781115 -4.52350307 1 -1 1 C-0.67 0.67 -0.34 0.34 0 0 Z " fill="#C2C0C4" transform="translate(80,84)"/>
<path d="M0 0 C1.98 0 3.96 0 6 0 C6.33 1.65 6.66 3.3 7 5 C2.71 5 -1.58 5 -6 5 C-6 4.67 -6 4.34 -6 4 C-2.7 3.67 0.6 3.34 4 3 C2.68 2.01 1.36 1.02 0 0 Z " fill="#808B94" transform="translate(94,28)"/>
<path d="M0 0 C-0.99 3.63 -1.98 7.26 -3 11 C-3.33 11 -3.66 11 -4 11 C-4 8.69 -4 6.38 -4 4 C-4.66 3.67 -5.32 3.34 -6 3 C-2.25 0 -2.25 0 0 0 Z " fill="#BED9E3" transform="translate(103,82)"/>
<path d="M0 0 C3.3 0 6.6 0 10 0 C10 0.33 10 0.66 10 1 C9.030625 1.12375 8.06125 1.2475 7.0625 1.375 C5.5465625 1.684375 5.5465625 1.684375 4 2 C3.67 2.66 3.34 3.32 3 4 C3.66 4.33 4.32 4.66 5 5 C3.35 4.67 1.7 4.34 0 4 C0 2.68 0 1.36 0 0 Z " fill="#7D8890" transform="translate(43,94)"/>
<path d="M0 0 C2.475 0.495 2.475 0.495 5 1 C4.49396008 3.16874252 4.00016187 4.99967627 3 7 C2.34 7 1.68 7 1 7 C0.67 4.69 0.34 2.38 0 0 Z " fill="#F9EAD8" transform="translate(64,40)"/>
<path d="M0 0 C-1.8125 2 -1.8125 2 -4 4 C-4.99 4 -5.98 4 -7 4 C-7 2.68 -7 1.36 -7 0 C-3.86650268 -1.04449911 -3.01031744 -0.93423645 0 0 Z " fill="#F5CB6E" transform="translate(103,77)"/>
<path d="M0 0 C0.99 0.33 1.98 0.66 3 1 C3 3.31 3 5.62 3 8 C2.34 8 1.68 8 1 8 C-1 5 -1 5 -0.625 2.3125 C-0.41875 1.549375 -0.2125 0.78625 0 0 Z " fill="#DFC571" transform="translate(109,63)"/>
<path d="M0 0 C1.32 0.66 2.64 1.32 4 2 C4 3.65 4 5.3 4 7 C1.69 6.67 -0.62 6.34 -3 6 C-1.68 5.67 -0.36 5.34 1 5 C0.67 3.35 0.34 1.7 0 0 Z " fill="#ECDDA9" transform="translate(87,112)"/>
<path d="M0 0 C2.97 0.495 2.97 0.495 6 1 C6.33 1.99 6.66 2.98 7 4 C5.02 4 3.04 4 1 4 C0.67 2.68 0.34 1.36 0 0 Z " fill="#4A5D5D" transform="translate(65,96)"/>
<path d="M0 0 C0.66 0 1.32 0 2 0 C2 0.66 2 1.32 2 2 C3.65 2 5.3 2 7 2 C6.67 3.32 6.34 4.64 6 6 C3.5625 5.25 3.5625 5.25 1 4 C0.1875 1.875 0.1875 1.875 0 0 Z " fill="#EFD36D" transform="translate(91,70)"/>
<path d="M0 0 C-1.61594832 2.04119788 -3.2856382 4.04072937 -5 6 C-5.66 6 -6.32 6 -7 6 C-7 4.35 -7 2.7 -7 1 C-4.53721199 -0.231394 -2.7204945 -0.07159196 0 0 Z " fill="#E7E8EB" transform="translate(59,30)"/>
<path d="M0 0 C0.66 1.65 1.32 3.3 2 5 C1.01 4.67 0.02 4.34 -1 4 C-1.66 4.66 -2.32 5.32 -3 6 C-3 5.01 -3 4.02 -3 3 C-3.99 2.67 -4.98 2.34 -6 2 C-3 0 -3 0 0 0 Z " fill="#E2C575" transform="translate(118,69)"/>
<path d="M0 0 C0.66 0.66 1.32 1.32 2 2 C1.34 3.32 0.68 4.64 0 6 C-1.32 6 -2.64 6 -4 6 C-4 5.01 -4 4.02 -4 3 C-2.68 2.67 -1.36 2.34 0 2 C0 1.34 0 0.68 0 0 Z " fill="#44566D" transform="translate(124,86)"/>
<path d="M0 0 C0.66 1.32 1.32 2.64 2 4 C3.32 3.67 4.64 3.34 6 3 C6 3.66 6 4.32 6 5 C4.02 5.99 2.04 6.98 0 8 C-1.125 2.25 -1.125 2.25 0 0 Z " fill="#D3D6CF" transform="translate(113,82)"/>
<path d="M0 0 C1.32 0 2.64 0 4 0 C4 1.65 4 3.3 4 5 C2.68 5 1.36 5 0 5 C0 3.35 0 1.7 0 0 Z " fill="#77BFB2" transform="translate(51,70)"/>
<path d="M0 0 C3.37705625 0.53725895 6.696686 1.11064623 10 2 C6.38026598 3.31626692 3.90432869 4 0 4 C0 2.68 0 1.36 0 0 Z " fill="#437379" transform="translate(88,118)"/>
<path d="M0 0 C2.31 0 4.62 0 7 0 C6.67 1.32 6.34 2.64 6 4 C1.125 2.25 1.125 2.25 0 0 Z " fill="#396369" transform="translate(79,97)"/>
<path d="M0 0 C1.98 0.66 3.96 1.32 6 2 C6 2.99 6 3.98 6 5 C4.68 4.01 3.36 3.02 2 2 C2 2.99 2 3.98 2 5 C1.34 5 0.68 5 0 5 C0 3.35 0 1.7 0 0 Z " fill="#E6CF90" transform="translate(57,35)"/>
<path d="M0 0 C0.66 0.33 1.32 0.66 2 1 C2 2.32 2 3.64 2 5 C0.35 4.67 -1.3 4.34 -3 4 C-3.33 3.01 -3.66 2.02 -4 1 C-3.34 1 -2.68 1 -2 1 C-2 1.66 -2 2.32 -2 3 C-1.34 3 -0.68 3 0 3 C0 2.01 0 1.02 0 0 Z " fill="#E7CF7F" transform="translate(74,94)"/>
<path d="M0 0 C0.33 0.66 0.66 1.32 1 2 C1.66 2 2.32 2 3 2 C3 3.65 3 5.3 3 7 C2.01 7 1.02 7 0 7 C0 4.69 0 2.38 0 0 Z " fill="#EA745F" transform="translate(50,39)"/>
</svg>
