<svg version="1.1" xmlns="http://www.w3.org/2000/svg" width="173" height="150">
<path d="M0 0 C0.67264893 -0.0103125 1.34529785 -0.020625 2.03833008 -0.03125 C7.61621176 0.06695454 12.41532787 1.21504787 16.6796875 4.97265625 C21.0681199 10.88947373 21.0681199 10.88947373 21.03515625 15.5703125 C21.03193359 16.37597656 21.02871094 17.18164062 21.02539062 18.01171875 C21.01282227 19.27435547 21.01282227 19.27435547 21 20.5625 C20.99548828 21.41199219 20.99097656 22.26148437 20.98632812 23.13671875 C20.97452874 25.23700909 20.95659306 27.3372633 20.9375 29.4375 C22.2575 29.7675 23.5775 30.0975 24.9375 30.4375 C25.4325 37.8625 25.4325 37.8625 25.9375 45.4375 C27.99629395 45.49695801 27.99629395 45.49695801 30.09667969 45.55761719 C35.18889767 45.70976362 40.27997498 45.8871892 45.37109375 46.07226562 C47.57464071 46.14883174 49.77843706 46.2185403 51.98242188 46.28125 C55.15064626 46.3725862 58.31715485 46.48855684 61.484375 46.609375 C62.96269806 46.64402863 62.96269806 46.64402863 64.47088623 46.67938232 C68.35630653 46.84709403 71.1460469 46.98660128 74.55541992 48.92895508 C76.63758869 52.70819621 76.52906032 56.14926304 76.50390625 60.40234375 C76.51010483 61.27266739 76.51630341 62.14299103 76.52268982 63.03968811 C76.52978457 64.8779285 76.52661994 66.71623318 76.51391602 68.55444336 C76.5000623 71.36237318 76.5341082 74.16696165 76.57226562 76.97460938 C76.57321699 78.76302165 76.57135708 80.55143808 76.56640625 82.33984375 C76.57966446 83.17644028 76.59292267 84.0130368 76.60658264 84.87498474 C76.54251161 88.90100884 76.22785759 90.98154119 74.02319336 94.44360352 C69.67148369 97.25556751 66.03847892 97.35007332 60.9375 97.4375 C59.44565689 97.46645859 59.44565689 97.46645859 57.92367554 97.4960022 C54.57657687 97.52408431 51.23365985 97.49891551 47.88671875 97.45703125 C46.66974808 97.44290695 45.4527774 97.42878265 44.19892883 97.41423035 C41.64323482 97.38129924 39.08758249 97.3449753 36.53198242 97.30541992 C32.6196062 97.24992349 28.70757768 97.22155384 24.79492188 97.19335938 C22.30466308 97.15792677 19.81442669 97.120874 17.32421875 97.08203125 C16.15646408 97.07766556 14.98870941 97.07329987 13.78556824 97.06880188 C5.73773673 96.8991493 5.73773673 96.8991493 1.72583008 94.5847168 C-0.76791326 91.59052258 -1.18850132 89.19567622 -1.16015625 85.42578125 C-1.15693359 84.66845703 -1.15371094 83.91113281 -1.15039062 83.13085938 C-1.14201172 82.34517578 -1.13363281 81.55949219 -1.125 80.75 C-1.12048828 79.95271484 -1.11597656 79.15542969 -1.11132812 78.33398438 C-1.0995585 76.36845743 -1.08162348 74.40296915 -1.0625 72.4375 C-1.68817871 72.44797363 -2.31385742 72.45844727 -2.95849609 72.46923828 C-5.7847901 72.51073191 -8.61102011 72.53680473 -11.4375 72.5625 C-12.42234375 72.57925781 -13.4071875 72.59601563 -14.421875 72.61328125 C-15.36289062 72.61972656 -16.30390625 72.62617187 -17.2734375 72.6328125 C-18.57740479 72.64852295 -18.57740479 72.64852295 -19.90771484 72.66455078 C-22.0625 72.4375 -22.0625 72.4375 -24.0625 70.4375 C-24.23803419 67.35225061 -24.29372797 64.35785798 -24.2578125 61.2734375 C-24.2549826 60.36622955 -24.25215271 59.45902161 -24.24923706 58.52432251 C-24.23802153 55.62024877 -24.21291463 52.71648088 -24.1875 49.8125 C-24.17747197 47.84635861 -24.16834581 45.8802124 -24.16015625 43.9140625 C-24.13807772 39.08842341 -24.10353865 34.2630136 -24.0625 29.4375 C-23.0725 29.4375 -22.0825 29.4375 -21.0625 29.4375 C-21.12050781 28.303125 -21.17851563 27.16875 -21.23828125 26 C-21.78503716 10.96254555 -21.78503716 10.96254555 -17.64453125 5.88671875 C-12.21599517 0.91391163 -7.31361728 0.09388254 0 0 Z M-14.4375 8.8125 C-17.28858287 13.4180954 -17.17481312 17.30768348 -17.125 22.6875 C-17.11597656 23.95078125 -17.10695313 25.2140625 -17.09765625 26.515625 C-17.08605469 27.47984375 -17.07445312 28.4440625 -17.0625 29.4375 C-5.82452098 31.27227209 5.66449829 30.74994926 16.9375 29.4375 C17.04621967 26.89466766 17.12512401 24.35654912 17.1875 21.8125 C17.22101563 21.09964844 17.25453125 20.38679688 17.2890625 19.65234375 C17.38462765 14.44404316 16.39382817 11.55779068 12.9375 7.4375 C5.20508841 2.70337046 -7.73862684 2.11362684 -14.4375 8.8125 Z " fill="#5BA9E4" transform="translate(58.0625,25.5625)"/>
<path d="M0 0 C0.67264893 -0.0103125 1.34529785 -0.020625 2.03833008 -0.03125 C7.61621176 0.06695454 12.41532787 1.21504787 16.6796875 4.97265625 C21.0681199 10.88947373 21.0681199 10.88947373 21.03515625 15.5703125 C21.03193359 16.37597656 21.02871094 17.18164062 21.02539062 18.01171875 C21.01282227 19.27435547 21.01282227 19.27435547 21 20.5625 C20.99548828 21.41199219 20.99097656 22.26148437 20.98632812 23.13671875 C20.97452874 25.23700909 20.95659306 27.3372633 20.9375 29.4375 C21.9275 29.4375 22.9175 29.4375 23.9375 29.4375 C23.9375 42.9675 23.9375 56.4975 23.9375 70.4375 C21.43252996 71.68998502 19.72896726 71.55124406 16.9296875 71.53515625 C15.94355469 71.53193359 14.95742187 71.52871094 13.94140625 71.52539062 C12.90886719 71.51701172 11.87632813 71.50863281 10.8125 71.5 C9.25208984 71.49323242 9.25208984 71.49323242 7.66015625 71.48632812 C5.08591313 71.47451967 2.51169947 71.45658385 -0.0625 71.4375 C-0.0625 77.3775 -0.0625 83.3175 -0.0625 89.4375 C-0.3925 89.4375 -0.7225 89.4375 -1.0625 89.4375 C-1.0625 83.8275 -1.0625 78.2175 -1.0625 72.4375 C-2.55523437 72.46070312 -4.04796875 72.48390625 -5.5859375 72.5078125 C-7.53645335 72.52656746 -9.48697458 72.54476795 -11.4375 72.5625 C-12.42234375 72.57925781 -13.4071875 72.59601563 -14.421875 72.61328125 C-15.36289062 72.61972656 -16.30390625 72.62617187 -17.2734375 72.6328125 C-18.57740479 72.64852295 -18.57740479 72.64852295 -19.90771484 72.66455078 C-22.0625 72.4375 -22.0625 72.4375 -24.0625 70.4375 C-24.23803419 67.35225061 -24.29372797 64.35785798 -24.2578125 61.2734375 C-24.2549826 60.36622955 -24.25215271 59.45902161 -24.24923706 58.52432251 C-24.23802153 55.62024877 -24.21291463 52.71648088 -24.1875 49.8125 C-24.17747197 47.84635861 -24.16834581 45.8802124 -24.16015625 43.9140625 C-24.13807772 39.08842341 -24.10353865 34.2630136 -24.0625 29.4375 C-23.0725 29.4375 -22.0825 29.4375 -21.0625 29.4375 C-21.12050781 28.303125 -21.17851563 27.16875 -21.23828125 26 C-21.78503716 10.96254555 -21.78503716 10.96254555 -17.64453125 5.88671875 C-12.21599517 0.91391163 -7.31361728 0.09388254 0 0 Z M-14.4375 8.8125 C-17.28858287 13.4180954 -17.17481312 17.30768348 -17.125 22.6875 C-17.11597656 23.95078125 -17.10695313 25.2140625 -17.09765625 26.515625 C-17.08605469 27.47984375 -17.07445312 28.4440625 -17.0625 29.4375 C-5.82452098 31.27227209 5.66449829 30.74994926 16.9375 29.4375 C17.04621967 26.89466766 17.12512401 24.35654912 17.1875 21.8125 C17.22101563 21.09964844 17.25453125 20.38679688 17.2890625 19.65234375 C17.38462765 14.44404316 16.39382817 11.55779068 12.9375 7.4375 C5.20508841 2.70337046 -7.73862684 2.11362684 -14.4375 8.8125 Z " fill="#FCA735" transform="translate(58.0625,25.5625)"/>
<path d="M0 0 C0.33 0 0.66 0 1 0 C1.33 4.95 1.66 9.9 2 15 C4.05879395 15.05945801 4.05879395 15.05945801 6.15917969 15.12011719 C11.25139767 15.27226362 16.34247498 15.4496892 21.43359375 15.63476562 C23.63714071 15.71133174 25.84093706 15.7810403 28.04492188 15.84375 C31.21314626 15.9350862 34.37965485 16.05105684 37.546875 16.171875 C39.02519806 16.20652863 39.02519806 16.20652863 40.53338623 16.24188232 C44.41880653 16.40959403 47.2085469 16.54910128 50.61791992 18.49145508 C52.70008869 22.27069621 52.59156032 25.71176304 52.56640625 29.96484375 C52.57260483 30.83516739 52.57880341 31.70549103 52.58518982 32.60218811 C52.59228457 34.4404285 52.58911994 36.27873318 52.57641602 38.11694336 C52.5625623 40.92487318 52.5966082 43.72946165 52.63476562 46.53710938 C52.63571699 48.32552165 52.63385708 50.11393808 52.62890625 51.90234375 C52.64216446 52.73894028 52.65542267 53.5755368 52.66908264 54.43748474 C52.60501161 58.46350884 52.29035759 60.54404119 50.08569336 64.00610352 C42.67015852 68.79783332 32.27392758 67.07477058 23.7734375 66.87890625 C21.93019394 66.84348976 21.93019394 66.84348976 20.04971313 66.80735779 C16.15800694 66.73131125 12.26653011 66.64703565 8.375 66.5625 C5.72266715 66.50922014 3.0703234 66.45648024 0.41796875 66.40429688 C-6.05482674 66.27577678 -12.52745439 66.14051562 -19 66 C-19 65.34 -19 64.68 -19 64 C-18.1945575 63.99413376 -17.38911499 63.98826752 -16.55926514 63.98222351 C-8.96677143 63.92430717 -1.37460629 63.85223701 6.21759415 63.76428509 C10.12079044 63.71956727 14.02388202 63.68031451 17.92724609 63.65356445 C21.69460155 63.62754516 25.46155435 63.58715318 29.22866058 63.53681374 C30.66550435 63.52013558 32.10241778 63.50862718 33.53934479 63.50238609 C35.55270928 63.49275628 37.56594702 63.46300123 39.57910156 63.43237305 C40.72493713 63.42126999 41.87077271 63.41016693 43.05133057 63.39872742 C46.29678984 62.95986724 47.70492113 62.30525322 50 60 C50.56853664 57.3327655 50.56853664 57.3327655 50.42578125 54.29296875 C50.41740234 53.14763672 50.40902344 52.00230469 50.40039062 50.82226562 C50.35688477 49.02305664 50.35688477 49.02305664 50.3125 47.1875 C50.30283203 46.03056641 50.29316406 44.87363281 50.28320312 43.68164062 C50.17729131 35.3974948 49.59282779 27.29958909 49 19 C33.16 18.67 17.32 18.34 1 18 C1 25.26 1 32.52 1 40 C0.67 40 0.34 40 0 40 C0 26.8 0 13.6 0 0 Z " fill="#8ABFE6" transform="translate(82,56)"/>
<path d="M0 0 C0.67256836 -0.01015137 1.34513672 -0.02030273 2.03808594 -0.03076172 C7.61583342 0.0660647 12.41562164 1.21530674 16.6796875 4.97265625 C21.0681199 10.88947373 21.0681199 10.88947373 21.03515625 15.5703125 C21.03193359 16.37597656 21.02871094 17.18164062 21.02539062 18.01171875 C21.01282227 19.27435547 21.01282227 19.27435547 21 20.5625 C20.99548828 21.41199219 20.99097656 22.26148437 20.98632812 23.13671875 C20.97452874 25.23700909 20.95659306 27.3372633 20.9375 29.4375 C21.9275 29.7675 22.9175 30.0975 23.9375 30.4375 C21.9575 30.4375 19.9775 30.4375 17.9375 30.4375 C17.92332031 29.36371094 17.90914062 28.28992188 17.89453125 27.18359375 C17.92061927 18.21453922 17.92061927 18.21453922 14.75 10.0625 C9.50947073 5.17133935 4.52398895 5.09990296 -2.37109375 5.25 C-6.87208059 5.56356657 -10.61662719 5.99162719 -13.9375 9.3125 C-16.26587401 13.7105398 -16.34290492 18.29476895 -16.625 23.1875 C-16.66818359 23.88488281 -16.71136719 24.58226563 -16.75585938 25.30078125 C-16.86139596 27.01281922 -16.9623991 28.72513561 -17.0625 30.4375 C-18.0525 30.4375 -19.0425 30.4375 -20.0625 30.4375 C-20.17948258 27.22947767 -20.25000607 24.02200975 -20.3125 20.8125 C-20.34601562 19.90886719 -20.37953125 19.00523438 -20.4140625 18.07421875 C-20.49796306 12.32703023 -20.00499118 8.9432042 -16.0625 4.4375 C-11.54527445 0.25571199 -5.8960819 0.06358785 0 0 Z " fill="#ABAAAF" transform="translate(58.0625,25.5625)"/>
<path d="M0 0 C5.10863896 -0.0246501 10.21724359 -0.04283607 15.32592773 -0.05493164 C17.06519168 -0.05997204 18.80445136 -0.0668043 20.54370117 -0.07543945 C23.03825937 -0.08751792 25.53276173 -0.09323108 28.02734375 -0.09765625 C28.80963852 -0.10281754 29.59193329 -0.10797882 30.39793396 -0.11329651 C32.26567114 -0.11349226 34.13329204 -0.06199694 36 0 C37 1 37 1 37.11352539 3.77563477 C37.10828857 4.98533936 37.10305176 6.19504395 37.09765625 7.44140625 C37.09443359 8.74658203 37.09121094 10.05175781 37.08789062 11.39648438 C37.07953401 12.7851569 37.07106905 14.17382877 37.0625 15.5625 C37.05748666 16.95507656 37.05292347 18.34765481 37.04882812 19.74023438 C37.03699434 23.1601987 37.0205088 26.58007844 37 30 C35.68 30 34.36 30 33 30 C32.505 17.13 32.505 17.13 32 4 C21.44 4 10.88 4 0 4 C0 2.68 0 1.36 0 0 Z " fill="#EDB566" transform="translate(82,38)"/>
<path d="M0 0 C1.62418745 -0.08090971 3.24951745 -0.13914995 4.875 -0.1875 C5.77992187 -0.22230469 6.68484375 -0.25710937 7.6171875 -0.29296875 C8.79667969 -0.14794922 8.79667969 -0.14794922 10 0 C12 3 12 3 12 7 C10.02 7.99 10.02 7.99 8 9 C15.92 9.33 23.84 9.66 32 10 C32 11.32 32 12.64 32 14 C23.42 14.33 14.84 14.66 6 15 C5.67 13.68 5.34 12.36 5 11 C4.34 11 3.68 11 3 11 C3 11.99 3 12.98 3 14 C2.34 14 1.68 14 1 14 C-0.38226016 11.23547967 -0.09525387 8.9538637 -0.0625 5.875 C-0.05347656 4.77929688 -0.04445312 3.68359375 -0.03515625 2.5546875 C-0.02355469 1.71164063 -0.01195312 0.86859375 0 0 Z " fill="#53A4E1" transform="translate(59,99)"/>
<path d="M0 0 C0.33 0 0.66 0 1 0 C1 5.94 1 11.88 1 18 C1.99 17.67 2.98 17.34 4 17 C6.58630224 16.91518227 9.14478056 16.88401771 11.73046875 16.90234375 C12.85609978 16.90446617 12.85609978 16.90446617 14.00447083 16.90663147 C16.3988546 16.9122244 18.79314453 16.92477556 21.1875 16.9375 C22.81184761 16.94251592 24.43619668 16.94707866 26.06054688 16.95117188 C30.04042975 16.9613402 34.02010993 16.98091688 38 17 C38 12.05 38 7.1 38 2 C38.33 2 38.66 2 39 2 C39 7.28 39 12.56 39 18 C33.63473221 18.75711054 28.42288894 19.13896544 23 19.09765625 C22.03900391 19.09614563 22.03900391 19.09614563 21.05859375 19.09460449 C18.70571049 19.08944221 16.35285311 19.07548205 14 19.0625 C8.72 19.041875 3.44 19.02125 -2 19 C-2 31.54 -2 44.08 -2 57 C12.85 57.33 27.7 57.66 43 58 C43 58.33 43 58.66 43 59 C35.74 59 28.48 59 21 59 C21 64.94 21 70.88 21 77 C20.67 77 20.34 77 20 77 C20 71.39 20 65.78 20 60 C18.50726563 60.02320313 17.01453125 60.04640625 15.4765625 60.0703125 C13.52604665 60.08906746 11.57552542 60.10726795 9.625 60.125 C8.64015625 60.14175781 7.6553125 60.15851563 6.640625 60.17578125 C5.69960938 60.18222656 4.75859375 60.18867187 3.7890625 60.1953125 C2.48509521 60.21102295 2.48509521 60.21102295 1.15478516 60.22705078 C-1 60 -1 60 -3 58 C-3.17553419 54.91475061 -3.23122797 51.92035798 -3.1953125 48.8359375 C-3.1924826 47.92872955 -3.18965271 47.02152161 -3.18673706 46.08682251 C-3.17552153 43.18274877 -3.15041463 40.27898088 -3.125 37.375 C-3.11497197 35.40885861 -3.10584581 33.4427124 -3.09765625 31.4765625 C-3.07557772 26.65092341 -3.04103865 21.8255136 -3 17 C-2.01 17 -1.02 17 0 17 C0 11.39 0 5.78 0 0 Z " fill="#E4BE88" transform="translate(37,38)"/>
<path d="M0 0 C5.28 0 10.56 0 16 0 C17 6 17 6 15 9 C12.87465341 8.85930804 10.74972471 8.71229079 8.625 8.5625 C7.44164063 8.48128906 6.25828125 8.40007812 5.0390625 8.31640625 C2 8 2 8 0 7 C0 4.69 0 2.38 0 0 Z " fill="#DE8B49" transform="translate(106,102)"/>
<path d="M0 0 C0.33 0 0.66 0 1 0 C1.33 4.95 1.66 9.9 2 15 C4.06664917 15.06731323 4.06664917 15.06731323 6.17504883 15.13598633 C11.28011717 15.30605842 16.38434164 15.49500277 21.48852539 15.68969727 C23.69895256 15.7713605 25.90957578 15.84788432 28.12036133 15.91918945 C31.29573931 16.02249432 34.46995659 16.14418331 37.64453125 16.26953125 C38.63524124 16.29779495 39.62595123 16.32605865 40.64668274 16.35517883 C41.56741074 16.39499374 42.48813873 16.43480865 43.43676758 16.47583008 C44.2472908 16.50469803 45.05781403 16.53356598 45.89289856 16.56330872 C48.44068602 17.09133103 49.36511287 18.02537473 51 20 C50.01 20.495 50.01 20.495 49 21 C49 20.34 49 19.68 49 19 C33.16 18.67 17.32 18.34 1 18 C1 25.26 1 32.52 1 40 C0.67 40 0.34 40 0 40 C0 26.8 0 13.6 0 0 Z " fill="#AEC5CF" transform="translate(82,56)"/>
<path d="M0 0 C1.134375 0.020625 2.26875 0.04125 3.4375 0.0625 C4.6875 6.6875 4.6875 6.6875 2.4375 10.0625 C2.04362212 12.38637947 1.70263915 14.72043749 1.4375 17.0625 C0.1175 17.0625 -1.2025 17.0625 -2.5625 17.0625 C-2.68625 15.99 -2.81 14.9175 -2.9375 13.8125 C-3.33191725 10.22720196 -3.33191725 10.22720196 -4.6875 7.9375 C-5.89668851 5.34638177 -5.36012605 3.745424 -4.5625 1.0625 C-3.5625 0.0625 -3.5625 0.0625 0 0 Z " fill="#9F8875" transform="translate(58.5625,69.9375)"/>
<path d="M0 0 C1.32 0 2.64 0 4 0 C4 3.96 4 7.92 4 12 C7.3 12 10.6 12 14 12 C14.33 13.32 14.66 14.64 15 16 C10.05 16 5.1 16 0 16 C0 10.72 0 5.44 0 0 Z " fill="#EEAB4F" transform="translate(39,102)"/>
<path d="M0 0 C7.92 0 15.84 0 24 0 C24 1.32 24 2.64 24 4 C16.08 4 8.16 4 0 4 C0 2.68 0 1.36 0 0 Z " fill="#2376B7" transform="translate(67,109)"/>
<path d="M0 0 C2.79192205 -0.05380578 5.5828141 -0.09357669 8.375 -0.125 C9.1690625 -0.14175781 9.963125 -0.15851563 10.78125 -0.17578125 C12.85492015 -0.19335473 14.92883241 -0.10335168 17 0 C19 2 19 2 19.265625 3.875 C19.26046875 4.57625 19.2553125 5.2775 19.25 6 C19.25515625 6.70125 19.2603125 7.4025 19.265625 8.125 C19 10 19 10 17 12 C11.66666667 12.33333333 11.66666667 12.33333333 9 11 C9 11.66 9 12.32 9 13 C5.6875 13.3125 5.6875 13.3125 2 13 C0 11 0 11 -1 8 C-0.83988879 5.29876894 -0.39559392 2.68124769 0 0 Z M1 2 C1 4.31 1 6.62 1 9 C2.56116819 9.33951619 4.12401338 9.67132544 5.6875 10 C6.99267578 10.2784375 6.99267578 10.2784375 8.32421875 10.5625 C10.9965891 10.9994423 13.30415074 11.29392564 16 11 C18.66114309 7.74922159 18.66114309 7.74922159 17 2 C11.72 2 6.44 2 1 2 Z " fill="#9B979B" transform="translate(105,100)"/>
<path d="M0 0 C0.99 0.33 1.98 0.66 3 1 C4.4264314 1.11322825 5.8572249 1.17595476 7.2878418 1.20532227 C8.14850754 1.22526749 9.00917328 1.24521271 9.8959198 1.26576233 C10.82100845 1.28247482 11.74609711 1.29918732 12.69921875 1.31640625 C13.64940384 1.33718735 14.59958893 1.35796844 15.5785675 1.37937927 C18.61480456 1.44478052 21.65112831 1.50371604 24.6875 1.5625 C26.74545169 1.60569417 28.80339459 1.64930876 30.86132812 1.69335938 C35.90746316 1.80045231 40.95368543 1.90174646 46 2 C46 2.33 46 2.66 46 3 C38.74 3 31.48 3 24 3 C24 8.94 24 14.88 24 21 C23.67 21 23.34 21 23 21 C23 15.39 23 9.78 23 4 C16.07 4 9.14 4 2 4 C1.34 2.68 0.68 1.36 0 0 Z " fill="#EFCB93" transform="translate(34,94)"/>
<path d="M0 0 C4.68139254 -0.02465288 9.36274759 -0.04283739 14.04418945 -0.05493164 C15.63794614 -0.05997157 17.23169819 -0.0668035 18.82543945 -0.07543945 C21.11150253 -0.08751999 23.39750467 -0.09323155 25.68359375 -0.09765625 C26.40026718 -0.10281754 27.11694061 -0.10797882 27.85533142 -0.11329651 C29.57063672 -0.11349263 31.28581266 -0.06192007 33 0 C34 1 34 1 34.11352539 3.50024414 C34.10828857 4.58426514 34.10305176 5.66828613 34.09765625 6.78515625 C34.09443359 7.95498047 34.09121094 9.12480469 34.08789062 10.33007812 C34.07532227 12.17762695 34.07532227 12.17762695 34.0625 14.0625 C34.05798828 15.29806641 34.05347656 16.53363281 34.04882812 17.80664062 C34.03699608 20.87114117 34.02051173 23.93554721 34 27 C33.34 27 32.68 27 32 27 C31.505 14.625 31.505 14.625 31 2 C20.77 1.67 10.54 1.34 0 1 C0 0.67 0 0.34 0 0 Z " fill="#F39A24" transform="translate(84,40)"/>
<path d="M0 0 C1.32 0 2.64 0 4 0 C3.690625 1.010625 3.38125 2.02125 3.0625 3.0625 C1.40619903 9.55848891 1.32998523 16.33082492 1 23 C0.01 23 -0.98 23 -2 23 C-2.0580476 19.72924117 -2.09361165 16.45861476 -2.125 13.1875 C-2.14175781 12.25873047 -2.15851562 11.32996094 -2.17578125 10.37304688 C-2.18222656 9.48037109 -2.18867187 8.58769531 -2.1953125 7.66796875 C-2.20578613 6.84578857 -2.21625977 6.0236084 -2.22705078 5.17651367 C-2 3 -2 3 0 0 Z " fill="#918F93" transform="translate(40,33)"/>
<path d="M0 0 C1.32 0.33 2.64 0.66 4 1 C4 6.94 4 12.88 4 19 C4.99 19.33 5.98 19.66 7 20 C5.02 20 3.04 20 1 20 C0.67 13.4 0.34 6.8 0 0 Z " fill="#9B989A" transform="translate(75,36)"/>
<path d="M0 0 C0.74056641 0.00902344 1.48113281 0.01804687 2.24414062 0.02734375 C4.05873467 0.05075787 5.87316071 0.08662385 7.6875 0.125 C7.6875 0.455 7.6875 0.785 7.6875 1.125 C1.2525 1.62 1.2525 1.62 -5.3125 2.125 C-5.3125 3.115 -5.3125 4.105 -5.3125 5.125 C-6.42625 5.434375 -7.54 5.74375 -8.6875 6.0625 C-12.1070155 6.94826483 -12.1070155 6.94826483 -14.3125 8.125 C-16.4375 7.1875 -16.4375 7.1875 -18.3125 6.125 C-12.2938531 0.9661598 -7.86053736 -0.18263983 0 0 Z " fill="#B2B1B6" transform="translate(58.3125,25.875)"/>
<path d="M0 0 C2.31 0.33 4.62 0.66 7 1 C7.33 2.98 7.66 4.96 8 7 C6.68 7 5.36 7 4 7 C4 6.34 4 5.68 4 5 C3.34 5 2.68 5 2 5 C2 5.66 2 6.32 2 7 C0.35 7 -1.3 7 -3 7 C-3 5.68 -3 4.36 -3 3 C-2.01 2.34 -1.02 1.68 0 1 C0 0.67 0 0.34 0 0 Z " fill="#3E91CF" transform="translate(76,99)"/>
<path d="M0 0 C5.28 0 10.56 0 16 0 C16.33 0.99 16.66 1.98 17 3 C14.54101345 3.08076963 12.08466258 3.14037143 9.625 3.1875 C8.57699219 3.22520508 8.57699219 3.22520508 7.5078125 3.26367188 C5.4765625 3.29296875 5.4765625 3.29296875 2 3 C1.34 2.01 0.68 1.02 0 0 Z " fill="#89888D" transform="translate(52,27)"/>
<path d="M0 0 C1.98 0 3.96 0 6 0 C6 1.98 6 3.96 6 6 C1.25 7.125 1.25 7.125 -1 6 C-0.67 4.02 -0.34 2.04 0 0 Z " fill="#F86248" transform="translate(107,103)"/>
<path d="M0 0 C1.32 0 2.64 0 4 0 C4 2.64 4 5.28 4 8 C2.68 8 1.36 8 0 8 C0 5.36 0 2.72 0 0 Z " fill="#2B7CBB" transform="translate(101,83)"/>
<path d="M0 0 C1.32 0 2.64 0 4 0 C4 2.64 4 5.28 4 8 C2.68 8 1.36 8 0 8 C0 5.36 0 2.72 0 0 Z " fill="#297DBD" transform="translate(108,83)"/>
<path d="M0 0 C1.65 0 3.3 0 5 0 C5 1.98 5 3.96 5 6 C3.35 6 1.7 6 0 6 C0 4.02 0 2.04 0 0 Z " fill="#FC9710" transform="translate(116,103)"/>
<path d="M0 0 C0.33 0 0.66 0 1 0 C1.66 6.93 2.32 13.86 3 21 C2.01 20.34 1.02 19.68 0 19 C-0.34057617 17.02880859 -0.34057617 17.02880859 -0.29296875 14.6484375 C-0.28330078 13.79765625 -0.27363281 12.946875 -0.26367188 12.0703125 C-0.23853516 11.18085937 -0.21339844 10.29140625 -0.1875 9.375 C-0.17396484 8.4778125 -0.16042969 7.580625 -0.14648438 6.65625 C-0.11106925 4.43690211 -0.06168461 2.21874812 0 0 Z " fill="#7FB4DC" transform="translate(58,99)"/>
<path d="M0 0 C2.31 0.33 4.62 0.66 7 1 C7 2.65 7 4.3 7 6 C6.01 6.495 6.01 6.495 5 7 C4.67 6.34 4.34 5.68 4 5 C3.01 5 2.02 5 1 5 C0.67 3.35 0.34 1.7 0 0 Z " fill="#887A73" transform="translate(56,71)"/>
<path d="M0 0 C0.33 1.32 0.66 2.64 1 4 C-0.75 5.125 -0.75 5.125 -3 6 C-5.25 5.125 -5.25 5.125 -7 4 C-2.25 0 -2.25 0 0 0 Z " fill="#A2A1A6" transform="translate(47,28)"/>
<path d="M0 0 C1.65 0 3.3 0 5 0 C5 1.65 5 3.3 5 5 C3.35 5 1.7 5 0 5 C0 3.35 0 1.7 0 0 Z " fill="#ECC68E" transform="translate(121,57)"/>
<path d="M0 0 C1.65 0 3.3 0 5 0 C5 1.65 5 3.3 5 5 C3.35 5 1.7 5 0 5 C0 3.35 0 1.7 0 0 Z " fill="#EDC58D" transform="translate(121,50)"/>
<path d="M0 0 C3.3 0 6.6 0 10 0 C9.01 0.495 9.01 0.495 8 1 C8 1.66 8 2.32 8 3 C5.69 3 3.38 3 1 3 C0.67 2.01 0.34 1.02 0 0 Z " fill="#8499BB" transform="translate(106,110)"/>
<path d="M0 0 C0.66 0.33 1.32 0.66 2 1 C1.67 4.96 1.34 8.92 1 13 C0.67 13 0.34 13 0 13 C-0.19397476 11.02145742 -0.38001321 9.0421352 -0.5625 7.0625 C-0.66691406 5.96035156 -0.77132812 4.85820313 -0.87890625 3.72265625 C-0.91886719 2.82417969 -0.95882812 1.92570312 -1 1 C-0.67 0.67 -0.34 0.34 0 0 Z " fill="#6AACDD" transform="translate(132,76)"/>
<path d="M0 0 C0.99 0 1.98 0 3 0 C3.33 0.66 3.66 1.32 4 2 C4.99 2.66 5.98 3.32 7 4 C4.36 4.33 1.72 4.66 -1 5 C-0.67 3.35 -0.34 1.7 0 0 Z " fill="#F0A744" transform="translate(55,66)"/>
<path d="M0 0 C0.99 0 1.98 0 3 0 C3 1.98 3 3.96 3 6 C2.01 6 1.02 6 0 6 C0 4.02 0 2.04 0 0 Z " fill="#1D6EAD" transform="translate(122,84)"/>
<path d="M0 0 C0.99 0 1.98 0 3 0 C3 1.98 3 3.96 3 6 C2.01 6 1.02 6 0 6 C0 4.02 0 2.04 0 0 Z " fill="#1D6EAD" transform="translate(115,84)"/>
<path d="M0 0 C1.32 0 2.64 0 4 0 C4 1.32 4 2.64 4 4 C2.35 4 0.7 4 -1 4 C-0.67 2.68 -0.34 1.36 0 0 Z " fill="#E5B269" transform="translate(122,64)"/>
</svg>
