<svg version="1.1" xmlns="http://www.w3.org/2000/svg" width="172" height="150">
<path d="M0 0 C2.41947317 0.7773201 4.07500418 1.75553821 5.8359375 3.58984375 C5.8359375 4.24984375 5.8359375 4.90984375 5.8359375 5.58984375 C7.0321875 5.36296875 8.2284375 5.13609375 9.4609375 4.90234375 C13.7321546 4.36465507 16.19927575 5.16540259 19.8359375 7.58984375 C20.8259375 9.07484375 20.8259375 9.07484375 21.8359375 10.58984375 C22.9703125 11.06421875 24.1046875 11.53859375 25.2734375 12.02734375 C28.9730002 13.64995897 29.83068034 14.25724306 31.8359375 17.58984375 C32.71484375 20.53515625 32.71484375 20.53515625 33.3984375 23.71484375 C34.22417048 28.1267178 34.22417048 28.1267178 36.8359375 31.58984375 C37.28515625 33.46484375 37.28515625 33.46484375 37.5234375 35.58984375 C37.60980469 36.29109375 37.69617188 36.99234375 37.78515625 37.71484375 C37.8359375 39.58984375 37.8359375 39.58984375 36.8359375 41.58984375 C36.71511216 43.25329957 36.6605581 44.92204966 36.6484375 46.58984375 C36.63425781 47.47671875 36.62007813 48.36359375 36.60546875 49.27734375 C36.60880624 51.78504359 36.60880624 51.78504359 38.8359375 53.58984375 C39.06298828 55.92822266 39.06298828 55.92822266 39.03125 58.81640625 C39.02480469 59.84765625 39.01835937 60.87890625 39.01171875 61.94140625 C38.98658203 63.56175781 38.98658203 63.56175781 38.9609375 65.21484375 C38.95191406 66.3028125 38.94289063 67.39078125 38.93359375 68.51171875 C38.90997159 71.20464527 38.87703306 73.8971363 38.8359375 76.58984375 C37.8459375 76.58984375 36.8559375 76.58984375 35.8359375 76.58984375 C34.25190226 75.00580851 34.61618815 73.31267995 34.51953125 71.1171875 C34.47763672 70.21806641 34.43574219 69.31894531 34.39257812 68.39257812 C34.35326172 67.44705078 34.31394531 66.50152344 34.2734375 65.52734375 C34.23025391 64.57794922 34.18707031 63.62855469 34.14257812 62.65039062 C34.03614474 60.29703022 33.93412742 57.94356021 33.8359375 55.58984375 C30.3709375 56.08484375 30.3709375 56.08484375 26.8359375 56.58984375 C27.609375 58.32234375 27.609375 58.32234375 28.3984375 60.08984375 C30.13548218 64.75504946 30.04368687 67.75884625 28.8359375 72.58984375 C26.58142052 75.52071582 25.35150885 76.41798663 21.8359375 77.58984375 C14.78532668 78.06453834 14.78532668 78.06453834 11.8359375 76.58984375 C11.76246094 78.25273437 11.76246094 78.25273437 11.6875 79.94921875 C11.61244535 81.4127844 11.53689869 82.87632487 11.4609375 84.33984375 C11.43 85.06945312 11.3990625 85.7990625 11.3671875 86.55078125 C10.98671288 93.52614933 10.98671288 93.52614933 8.8359375 96.58984375 C6.60702755 97.70429873 5.30538644 97.75464661 2.8359375 97.77734375 C1.7840625 97.79861328 1.7840625 97.79861328 0.7109375 97.8203125 C-1.1640625 97.58984375 -1.1640625 97.58984375 -3.1640625 95.58984375 C-3.83493368 92.94444342 -4.42705869 90.32271429 -4.9765625 87.65234375 C-6.53794377 80.4919705 -8.73156801 74.10314273 -12.1640625 67.58984375 C-14.6390625 68.08484375 -14.6390625 68.08484375 -17.1640625 68.58984375 C-17.1228125 69.66234375 -17.0815625 70.73484375 -17.0390625 71.83984375 C-17.15793294 75.40595687 -17.28860573 76.71178431 -19.1640625 79.58984375 C-21.0390625 80.85546875 -21.0390625 80.85546875 -23.1640625 81.83984375 C-24.2159375 82.34257812 -24.2159375 82.34257812 -25.2890625 82.85546875 C-27.1640625 83.58984375 -27.1640625 83.58984375 -29.1640625 83.58984375 C-29.2671875 84.31171875 -29.3703125 85.03359375 -29.4765625 85.77734375 C-30.42800234 89.66959763 -31.52597496 92.34158954 -34.7890625 94.828125 C-39.45948543 97.568232 -43.42343213 98.14243991 -48.76171875 97.328125 C-53.97225043 95.72683965 -57.14042691 92.50916048 -59.6640625 87.77734375 C-60.56069547 82.06130857 -60.38010956 77.39548938 -57.1015625 72.52734375 C-56.4621875 71.88796875 -55.8228125 71.24859375 -55.1640625 70.58984375 C-55.4940625 69.90921875 -55.8240625 69.22859375 -56.1640625 68.52734375 C-57.36952853 64.98628728 -57.5023198 62.31067408 -57.1640625 58.58984375 C-55.6640625 56.33984375 -55.6640625 56.33984375 -54.1640625 54.58984375 C-54.1640625 53.59984375 -54.1640625 52.60984375 -54.1640625 51.58984375 C-54.9684375 51.03296875 -55.7728125 50.47609375 -56.6015625 49.90234375 C-59.69314969 47.11237482 -60.03099743 45.5835855 -60.30859375 41.5546875 C-60.01776364 37.60097009 -57.85737336 35.28315461 -55.1640625 32.58984375 C-54.89031627 30.55033019 -54.89031627 30.55033019 -54.8515625 28.27734375 C-54.51370672 24.66578195 -54.1840334 23.61780301 -51.9765625 20.52734375 C-48.71706437 18.2819117 -47.03953737 18.13920714 -43.1640625 18.58984375 C-43.1021875 17.86796875 -43.0403125 17.14609375 -42.9765625 16.40234375 C-41.8478348 12.4952094 -40.45061088 10.98628528 -37.1640625 8.58984375 C-34.1158938 8.18137893 -31.21880702 8.29035899 -28.1640625 8.58984375 C-27.8753125 7.95046875 -27.5865625 7.31109375 -27.2890625 6.65234375 C-26.1640625 4.58984375 -26.1640625 4.58984375 -24.1640625 3.58984375 C-22.68737913 3.49457385 -21.20630793 3.45998416 -19.7265625 3.46484375 C-18.55287109 3.46097656 -18.55287109 3.46097656 -17.35546875 3.45703125 C-15.1640625 3.58984375 -15.1640625 3.58984375 -12.1640625 4.58984375 C-11.2771875 3.76484375 -10.3903125 2.93984375 -9.4765625 2.08984375 C-6.27287695 -0.78628293 -4.13247416 -0.8312448 0 0 Z M-49.1640625 54.58984375 C-52.36631409 58.52275077 -52.36631409 58.52275077 -52.9765625 63.33984375 C-52.21578909 65.58375827 -52.21578909 65.58375827 -51.1640625 67.58984375 C-50.09478516 67.52023438 -50.09478516 67.52023438 -49.00390625 67.44921875 C-42.40346937 67.20048089 -38.39890027 67.42334022 -33.1640625 71.58984375 C-31.52673849 73.8655292 -30.3875488 76.04499224 -29.1640625 78.58984375 C-24.74884141 77.32009403 -24.74884141 77.32009403 -21.1640625 74.58984375 C-20.49684714 71.67543676 -20.49684714 71.67543676 -21.1640625 68.58984375 C-24.01374718 66.21756757 -24.01374718 66.21756757 -27.1640625 64.58984375 C-27.4940625 64.25984375 -27.8240625 63.92984375 -28.1640625 63.58984375 C-29.61819219 63.29727981 -31.07753797 63.03039088 -32.5390625 62.77734375 C-36.715244 61.90021472 -37.66980784 61.01944391 -40.1640625 57.58984375 C-43.09387955 56.33873268 -46.09618004 55.43881751 -49.1640625 54.58984375 Z " fill="#FB5363" transform="translate(105.1640625,26.41015625)"/>
<path d="M0 0 C1.32 0 2.64 0 4 0 C4.28875 1.11375 4.5775 2.2275 4.875 3.375 C5.69241329 7.00291092 5.69241329 7.00291092 8 9 C12.07954381 9.6260375 12.07954381 9.6260375 16 9 C18.16513652 6.9278765 19.60061498 4.63730254 21 2 C21.66 2.33 22.32 2.66 23 3 C23 4.98 23 6.96 23 9 C23.66 9 24.32 9 25 9 C27.90804078 14.58343829 28.51755629 17.82860443 27 24 C24.74548302 26.93087207 23.51557135 27.82814288 20 29 C12.94938918 29.47469459 12.94938918 29.47469459 10 28 C9.95101562 29.10859375 9.90203125 30.2171875 9.8515625 31.359375 C9.77650785 32.82294065 9.70096119 34.28648112 9.625 35.75 C9.57859375 36.84441406 9.57859375 36.84441406 9.53125 37.9609375 C9.15077538 44.93630558 9.15077538 44.93630558 7 48 C4.77109005 49.11445498 3.46944894 49.16480286 1 49.1875 C0.29875 49.20167969 -0.4025 49.21585938 -1.125 49.23046875 C-3 49 -3 49 -5 47 C-5.6708803 44.35456369 -6.26348964 41.73301256 -6.8125 39.0625 C-8.20118557 32.64177582 -10.02352763 27.02936334 -13.14453125 21.19921875 C-14.14955727 18.61552171 -13.97412666 17.5523207 -13 15 C-12.67 14.34 -12.34 13.68 -12 13 C-7.71 13.66 -3.42 14.32 1 15 C1.33 14.01 1.66 13.02 2 12 C2.66 12 3.32 12 4 12 C4 11.01 4 10.02 4 9 C3.34 9 2.68 9 2 9 C0.14223235 5.86501708 -0.20140476 3.62528568 0 0 Z " fill="#DE4D60" transform="translate(107,75)"/>
<path d="M0 0 C0.99 0 1.98 0 3 0 C2.35474462 3.86231434 0.47586468 6.55239326 -1.625 9.8125 C-4.69853913 14.69858106 -4.69853913 14.69858106 -4.9375 20.25 C-4.628125 21.1575 -4.31875 22.065 -4 23 C-3.34 22.67 -2.68 22.34 -2 22 C3.39065035 21.3302858 7.87386384 21.66947159 12.4921875 24.64453125 C15.14842201 27.03238973 16.46163874 29.80020858 18 33 C21.79547921 32.03223902 21.79547921 32.03223902 25 30 C25.23481693 27.81707226 25.41363323 25.62796826 25.5625 23.4375 C25.64628906 22.23996094 25.73007813 21.04242188 25.81640625 19.80859375 C25.90728516 18.41833984 25.90728516 18.41833984 26 17 C26.99 17 27.98 17 29 17 C29.22245975 19.24864725 29.42746557 21.49902623 29.625 23.75 C29.74101563 25.00296875 29.85703125 26.2559375 29.9765625 27.546875 C29.99923958 30.88796418 29.9828056 32.37247846 28 35 C26.125 36.265625 26.125 36.265625 24 37.25 C23.29875 37.58515625 22.5975 37.9203125 21.875 38.265625 C20 39 20 39 18 39 C17.896875 39.721875 17.79375 40.44375 17.6875 41.1875 C16.73606016 45.07975388 15.63808754 47.75174579 12.375 50.23828125 C7.70457707 52.97838825 3.74063037 53.55259616 -1.59765625 52.73828125 C-6.80818793 51.1369959 -9.97636441 47.91931673 -12.5 43.1875 C-13.39663297 37.47146482 -13.21604706 32.80564563 -9.9375 27.9375 C-9.298125 27.298125 -8.65875 26.65875 -8 26 C-8.33 25.319375 -8.66 24.63875 -9 23.9375 C-10.2242831 20.34116838 -10.39824113 17.78329077 -10 14 C-8.125 10.5625 -8.125 10.5625 -6 8 C-5.34 8 -4.68 8 -4 8 C-3.71125 7.236875 -3.4225 6.47375 -3.125 5.6875 C-2 3 -2 3 0 0 Z " fill="#F75762" transform="translate(58,71)"/>
<path d="M0 0 C5.27559055 0.70341207 5.27559055 0.70341207 8 2 C9.35026917 3.95979507 10.17249027 5.90109481 11.078125 8.09765625 C13.13928841 12.35098923 17.87628605 13.36152935 22 15 C21.88581333 17.58422459 21.75907638 20.16679513 21.625 22.75 C21.57859375 23.84441406 21.57859375 23.84441406 21.53125 24.9609375 C21.15077538 31.93630558 21.15077538 31.93630558 19 35 C16.77109005 36.11445498 15.46944894 36.16480286 13 36.1875 C12.29875 36.20167969 11.5975 36.21585938 10.875 36.23046875 C9 36 9 36 7 34 C6.3291197 31.35456369 5.73651036 28.73301256 5.1875 26.0625 C3.79881443 19.64177582 1.97647237 14.02936334 -1.14453125 8.19921875 C-2.14955727 5.61552171 -1.97412666 4.5523207 -1 2 C-0.67 1.34 -0.34 0.68 0 0 Z " fill="#7D3036" transform="translate(95,88)"/>
<path d="M0 0 C15.34429214 -1.07649266 15.34429214 -1.07649266 19.2890625 1.48828125 C20.75 3.375 20.75 3.375 21.9296875 5.30859375 C23.45191933 7.71416449 25.31905762 8.29033878 28 9 C26.88194445 12.35416665 26.52513331 12.6524432 23.5625 14.25 C18.5738536 16.55657844 14.23689183 16.58384046 9 15 C5.12629006 12.98823904 2.63527802 10.74915114 1.12890625 6.6015625 C0.62487217 4.39771695 0.24458988 2.24623357 0 0 Z " fill="#F0C319" transform="translate(45,108)"/>
<path d="M0 0 C0.99 0 1.98 0 3 0 C2.35474462 3.86231434 0.47586468 6.55239326 -1.625 9.8125 C-4.69853913 14.69858106 -4.69853913 14.69858106 -4.9375 20.25 C-4.628125 21.1575 -4.31875 22.065 -4 23 C-2.02 22.67 -0.04 22.34 2 22 C2 26.95 2 31.9 2 37 C-2.95 37 -7.9 37 -13 37 C-12.04991005 31.29946029 -11.628301 29.9794269 -8 26 C-8.33 25.319375 -8.66 24.63875 -9 23.9375 C-10.2242831 20.34116838 -10.39824113 17.78329077 -10 14 C-8.125 10.5625 -8.125 10.5625 -6 8 C-5.34 8 -4.68 8 -4 8 C-3.71125 7.236875 -3.4225 6.47375 -3.125 5.6875 C-2 3 -2 3 0 0 Z " fill="#387DAA" transform="translate(58,71)"/>
<path d="M0 0 C1.796875 0.04296875 1.796875 0.04296875 4 1 C5.29714786 3.466366 6.29869502 5.7182525 7.25 8.3125 C7.518125 8.98990234 7.78625 9.66730469 8.0625 10.36523438 C9.38422365 13.8145285 10 16.2620166 10 20 C9.01 20 8.02 20 7 20 C6.34 18.68 5.68 17.36 5 16 C2.69 16 0.38 16 -2 16 C-2.66 17.32 -3.32 18.64 -4 20 C-4.66 20 -5.32 20 -6 20 C-5.57534294 12.63927766 -3.01651083 6.67862176 0 0 Z " fill="#FECCAD" transform="translate(89,53)"/>
<path d="M0 0 C5.02172186 0.57942945 8.39592725 4.23813033 11.6652832 7.82910156 C13.33913861 10.55160427 13.34594693 12.24318411 13.29296875 15.421875 C13.28330078 16.44667969 13.27363281 17.47148438 13.26367188 18.52734375 C13.23853516 19.59082031 13.21339844 20.65429688 13.1875 21.75 C13.17396484 22.82894531 13.16042969 23.90789062 13.14648438 25.01953125 C13.11116584 27.6801942 13.06184199 30.33984296 13 33 C12.01 33 11.02 33 10 33 C9 32 9 32 8.90576172 30.17749023 C8.91365723 29.39575439 8.92155273 28.61401855 8.9296875 27.80859375 C9.371971 16.57398089 9.371971 16.57398089 4.5 7 C3.8709375 6.484375 3.241875 5.96875 2.59375 5.4375 C0.68435012 3.71529619 0.38798477 2.5003463 0 0 Z " fill="#54505D" transform="translate(131,70)"/>
<path d="M0 0 C5.62431073 0.3813092 8.90482403 0.77684978 13 5 C13 5.66 13 6.32 13 7 C12.01 7 11.02 7 10 7 C9.67 7.99 9.34 8.98 9 10 C7.02 10 5.04 10 3 10 C3.33 12.64 3.66 15.28 4 18 C3.34 17.67 2.68 17.34 2 17 C2 16.34 2 15.68 2 15 C1.34 15 0.68 15 0 15 C0 10.05 0 5.1 0 0 Z " fill="#E56068" transform="translate(60,93)"/>
<path d="M0 0 C0.99 0 1.98 0 3 0 C2.35773919 3.85356484 0.48406993 6.50656975 -1.625 9.75 C-4.7546513 14.90631719 -4.7546513 14.90631719 -4.9375 20.75 C-4.4734375 22.35875 -4.4734375 22.35875 -4 24 C-5.32 24 -6.64 24 -8 24 C-10.50304378 20.24543433 -10.45280074 18.45254066 -10 14 C-8.125 10.5625 -8.125 10.5625 -6 8 C-5.34 8 -4.68 8 -4 8 C-3.566875 6.8553125 -3.566875 6.8553125 -3.125 5.6875 C-2 3 -2 3 0 0 Z " fill="#4F4D5C" transform="translate(58,71)"/>
<path d="M0 0 C8.25 0 16.5 0 25 0 C25 0.99 25 1.98 25 3 C24 4 24 4 21.49975586 4.11352539 C20.41573486 4.10828857 19.33171387 4.10305176 18.21484375 4.09765625 C17.04501953 4.09443359 15.87519531 4.09121094 14.66992188 4.08789062 C12.82237305 4.07532227 12.82237305 4.07532227 10.9375 4.0625 C9.08415039 4.05573242 9.08415039 4.05573242 7.19335938 4.04882812 C4.12885883 4.03699608 1.06445279 4.02051173 -2 4 C-1.34 2.68 -0.68 1.36 0 0 Z " fill="#444A55" transform="translate(47,25)"/>
<path d="M0 0 C0.99 0 1.98 0 3 0 C3.22245975 2.24864725 3.42746557 4.49902623 3.625 6.75 C3.74101563 8.00296875 3.85703125 9.2559375 3.9765625 10.546875 C3.99923958 13.88796418 3.9828056 15.37247846 2 18 C0.125 19.265625 0.125 19.265625 -2 20.25 C-2.70125 20.58515625 -3.4025 20.9203125 -4.125 21.265625 C-6 22 -6 22 -8 22 C-8 20.35 -8 18.7 -8 17 C-6.865625 16.608125 -5.73125 16.21625 -4.5625 15.8125 C-2.52538269 14.83276369 -2.52538269 14.83276369 -1 13 C-0.05692654 8.66507712 0.04477291 4.42612188 0 0 Z " fill="#4B4D5A" transform="translate(84,88)"/>
<path d="M0 0 C5.61 0 11.22 0 17 0 C17 0.66 17 1.32 17 2 C12.05 2 7.1 2 2 2 C2 3.32 2 4.64 2 6 C2.66 6 3.32 6 4 6 C4 6.66 4 7.32 4 8 C4.99 8 5.98 8 7 8 C7.99 9.485 7.99 9.485 9 11 C11.05925139 11.72382467 11.05925139 11.72382467 13 12 C13 12.66 13 13.32 13 14 C13.515625 13.835 14.03125 13.67 14.5625 13.5 C17.73363876 12.84951 20.77218334 12.9379266 24 13 C21.27391764 15.72608236 19.12639894 15.6986147 15.37890625 16.0234375 C10.07953162 15.97122691 6.85210313 13.81505516 3.125 10.25 C1 7 1 7 0 0 Z " fill="#EBC53C" transform="translate(45,108)"/>
<path d="M0 0 C7.59 0 15.18 0 23 0 C23.33 1.32 23.66 2.64 24 4 C15.75 4 7.5 4 -1 4 C-0.67 2.68 -0.34 1.36 0 0 Z " fill="#474E58" transform="translate(120,121)"/>
<path d="M0 0 C6.93 0 13.86 0 21 0 C21 1.32 21 2.64 21 4 C14.07 4 7.14 4 0 4 C0 2.68 0 1.36 0 0 Z " fill="#474F5A" transform="translate(123,108)"/>
<path d="M0 0 C2.28377206 3.4256581 2.16282867 5.07346671 1.546875 9.0625 C0.74335436 11.90925882 -0.6493083 13.27155022 -3 15 C-10.78425486 17.59475162 -17.81107226 15.46180351 -25 12 C-25.33 11.34 -25.66 10.68 -26 10 C-24.78763672 10.32484375 -24.78763672 10.32484375 -23.55078125 10.65625 C-22.48214844 10.9346875 -21.41351563 11.213125 -20.3125 11.5 C-19.25675781 11.7784375 -18.20101562 12.056875 -17.11328125 12.34375 C-12.77965814 13.25723643 -9.24099937 13.2565924 -5 12 C-5 11.34 -5 10.68 -5 10 C-3.68 10 -2.36 10 -1 10 C-1.33 9.01 -1.66 8.02 -2 7 C-1.40206327 4.64811553 -0.74118205 2.31074405 0 0 Z " fill="#C85565" transform="translate(133,88)"/>
<path d="M0 0 C0.99 0.33 1.98 0.66 3 1 C3 7.27 3 13.54 3 20 C1.68 20 0.36 20 -1 20 C-1.02888514 16.85418577 -1.04675923 13.70840531 -1.0625 10.5625 C-1.07087891 9.66466797 -1.07925781 8.76683594 -1.08789062 7.84179688 C-1.09111328 6.98779297 -1.09433594 6.13378906 -1.09765625 5.25390625 C-1.10551147 4.06776733 -1.10551147 4.06776733 -1.11352539 2.85766602 C-1 1 -1 1 0 0 Z " fill="#FEB8A3" transform="translate(103,53)"/>
<path d="M0 0 C2.56428515 -0.13559675 5.12135216 -0.23433188 7.6875 -0.3125 C8.40873047 -0.35439453 9.12996094 -0.39628906 9.87304688 -0.43945312 C14.09563607 -0.53585927 15.50170214 -0.42711246 18.84375 2.4375 C19.91109375 3.7059375 19.91109375 3.7059375 21 5 C23.66533035 6.319018 23.66533035 6.319018 26 7 C25.67 7.99 25.34 8.98 25 10 C24.01 10.33 23.02 10.66 22 11 C21.79375 10.443125 21.5875 9.88625 21.375 9.3125 C19.42514954 6.03320604 17.09723895 4.20380464 14 2 C10.77566873 1.126062 10.77566873 1.126062 8 1 C8.33 1.99 8.66 2.98 9 4 C7.68 4 6.36 4 5 4 C5 4.66 5 5.32 5 6 C4.01 6 3.02 6 2 6 C2 5.34 2 4.68 2 4 C1.34 4 0.68 4 0 4 C0 2.68 0 1.36 0 0 Z " fill="#F0C31E" transform="translate(47,110)"/>
<path d="M0 0 C3.26008643 3.16952847 6.22237877 6.39937989 9 10 C6.03 11.32 3.06 12.64 0 14 C-1 11 -1 11 -1.5 8.9375 C-1.94398007 6.93743229 -1.94398007 6.93743229 -3 5 C-2.6875 2.9375 -2.6875 2.9375 -2 1 C-1.34 0.67 -0.68 0.34 0 0 Z " fill="#EC5768" transform="translate(130,71)"/>
<path d="M0 0 C0.33 0 0.66 0 1 0 C1 6.27 1 12.54 1 19 C2.32 19 3.64 19 5 19 C5 12.73 5 6.46 5 0 C5.33 0 5.66 0 6 0 C6 6.6 6 13.2 6 20 C2 21 2 21 -1 20 C-3.14255793 20.38932856 -3.14255793 20.38932856 -5 21 C-5 20.34 -5 19.68 -5 19 C-4.01 19 -3.02 19 -2 19 C-2.66 16.03 -3.32 13.06 -4 10 C-3.34 10 -2.68 10 -2 10 C-1.67 10.66 -1.34 11.32 -1 12 C-0.67 8.04 -0.34 4.08 0 0 Z " fill="#EE5C5F" transform="translate(101,54)"/>
<path d="M0 0 C0.33 0 0.66 0 1 0 C1 6.6 1 13.2 1 20 C0.01 20 -0.98 20 -2 20 C-3 19 -3 19 -3.09765625 15.62109375 C-3.09098369 14.22652923 -3.07902532 12.83198257 -3.0625 11.4375 C-3.05798828 10.72658203 -3.05347656 10.01566406 -3.04882812 9.28320312 C-3.03700864 7.52209987 -3.01907263 5.76103964 -3 4 C-2.34 3.67 -1.68 3.34 -1 3 C-0.67 2.01 -0.34 1.02 0 0 Z " fill="#464B57" transform="translate(143,83)"/>
<path d="M0 0 C0.66 0.66 1.32 1.32 2 2 C1.34 2 0.68 2 0 2 C0.2784375 3.1446875 0.2784375 3.1446875 0.5625 4.3125 C1 7 1 7 0 10 C0.66 10 1.32 10 2 10 C2 10.99 2 11.98 2 13 C1.071875 13.12375 1.071875 13.12375 0.125 13.25 C-2.18437567 13.81258459 -2.18437567 13.81258459 -3.25 16.0625 C-3.4975 16.701875 -3.745 17.34125 -4 18 C-4.66 18 -5.32 18 -6 18 C-5.61330541 11.03949747 -3.36561591 6.0605925 0 0 Z " fill="#FEC8AD" transform="translate(89,55)"/>
<path d="M0 0 C1.299375 -0.03867187 1.299375 -0.03867187 2.625 -0.078125 C5 0.25 5 0.25 6.8125 1.578125 C8 3.25 8 3.25 8 6.25 C7.01 6.25 6.02 6.25 5 6.25 C5 5.59 5 4.93 5 4.25 C-2.05651252 4.10024761 -2.05651252 4.10024761 -9 5.25 C-8.6875 3.3125 -8.6875 3.3125 -8 1.25 C-5.09458095 0.28152698 -3.03362546 0.05417188 0 0 Z " fill="#E84B5B" transform="translate(96,38.75)"/>
<path d="M0 0 C3 2 3 2 3.8125 5.5 C4.29156522 10.51175918 3.20142933 15.15456599 2 20 C-1.76488042 18.27845212 -4.15063897 16.00765886 -7 13 C-5.68 13 -4.36 13 -3 13 C-3 13.66 -3 14.32 -3 15 C-2.34 15 -1.68 15 -1 15 C-1 13.35 -1 11.7 -1 10 C-0.01 10 0.98 10 2 10 C1.54177532 6.53058454 1.10868317 3.32604951 0 0 Z " fill="#E65F6C" transform="translate(139,56)"/>
<path d="M0 0 C1.38545753 3.84849313 0.91355473 7.06468732 0 11 C-0.66 11.61875 -1.32 12.2375 -2 12.875 C-5.0430987 16.10829236 -4.81622092 19.69956944 -5 24 C-4.34 24 -3.68 24 -3 24 C-1.97895449 24.97850195 -0.9793879 25.97980427 0 27 C0.66 27.33 1.32 27.66 2 28 C2 28.66 2 29.32 2 30 C-4.09411765 27.85882353 -4.09411765 27.85882353 -6 25 C-7.53956835 18.18191161 -7.53956835 18.18191161 -5.6875 14.125 C-4 12 -4 12 -2 10 C-1.5769311 7.83000806 -1.5769311 7.83000806 -1.4375 5.4375 C-1.09722222 1.09722222 -1.09722222 1.09722222 0 0 Z " fill="#D96574" transform="translate(52,49)"/>
<path d="M0 0 C1.79244141 0.01740234 1.79244141 0.01740234 3.62109375 0.03515625 C5.41740234 0.04869141 5.41740234 0.04869141 7.25 0.0625 C8.17683594 0.07410156 9.10367188 0.08570312 10.05859375 0.09765625 C9.72859375 1.41765625 9.39859375 2.73765625 9.05859375 4.09765625 C7.26766184 4.17851772 5.47569747 4.23678327 3.68359375 4.28515625 C2.18699219 4.33736328 2.18699219 4.33736328 0.66015625 4.390625 C-0.19835937 4.29394531 -1.056875 4.19726562 -1.94140625 4.09765625 C-2.60140625 3.10765625 -3.26140625 2.11765625 -3.94140625 1.09765625 C-2.94140625 0.09765625 -2.94140625 0.09765625 0 0 Z " fill="#454C56" transform="translate(133.94140625,114.90234375)"/>
<path d="M0 0 C0.66 0 1.32 0 2 0 C2 2.97 2 5.94 2 9 C-0.31 9 -2.62 9 -5 9 C-4.67 7.02 -4.34 5.04 -4 3 C-3.01 3 -2.02 3 -1 3 C-0.67 2.01 -0.34 1.02 0 0 Z " fill="#2881BB" transform="translate(57,98)"/>
<path d="M0 0 C0.99 0.33 1.98 0.66 3 1 C2.814375 1.721875 2.62875 2.44375 2.4375 3.1875 C1.98004693 6.12826973 2.26483643 8.14103058 3 11 C1.68 11 0.36 11 -1 11 C-3.1519437 7.77208445 -3.20086443 6.71599191 -3 3 C-2.34 3 -1.68 3 -1 3 C-0.67 2.01 -0.34 1.02 0 0 Z " fill="#434D57" transform="translate(51,84)"/>
<path d="M0 0 C3.63 0 7.26 0 11 0 C11 1.32 11 2.64 11 4 C7.37 4 3.74 4 0 4 C0 2.68 0 1.36 0 0 Z " fill="#50535B" transform="translate(44,38)"/>
<path d="M0 0 C5.61 0 11.22 0 17 0 C17 0.66 17 1.32 17 2 C12.05 2 7.1 2 2 2 C2.33 4.31 2.66 6.62 3 9 C1 7 1 7 0 0 Z " fill="#CBB94C" transform="translate(45,108)"/>
<path d="M0 0 C0.66 0 1.32 0 2 0 C2 3.3 2 6.6 2 10 C3.95216435 8.04783565 4.84826645 6.46800047 6 4 C6.8125 5.6875 6.8125 5.6875 7 8 C4.75 10.75 4.75 10.75 2 13 C1.01 13 0.02 13 -1 13 C-1.08171488 8.83254097 -0.95553278 5.0610143 0 1 C0 0.67 0 0.34 0 0 Z " fill="#DC6161" transform="translate(88,82)"/>
<path d="M0 0 C1.65 0.33 3.3 0.66 5 1 C5.33 2.65 5.66 4.3 6 6 C4.1875 6.625 4.1875 6.625 2 7 C1.01 6.34 0.02 5.68 -1 5 C-0.67 3.35 -0.34 1.7 0 0 Z " fill="#F7AB37" transform="translate(60,65)"/>
<path d="M0 0 C1.32 0.33 2.64 0.66 4 1 C4.95024979 4.69541586 4.95024979 7.30458414 4 11 C2.68 11.33 1.36 11.66 0 12 C0 8 0 4 0 0 Z " fill="#F3A48D" transform="translate(89,53)"/>
<path d="M0 0 C0 3 0 3 -1.18359375 4.6640625 C-3.57686727 6.42427657 -5.11524163 6.40104352 -8.0625 6.375 C-9.37927734 6.38660156 -9.37927734 6.38660156 -10.72265625 6.3984375 C-11.47417969 6.26695313 -12.22570312 6.13546875 -13 6 C-13.66 5.01 -14.32 4.02 -15 3 C-14.39671875 3.03480469 -13.7934375 3.06960937 -13.171875 3.10546875 C-8.12013393 3.3746976 -8.12013393 3.3746976 -3.5625 1.5 C-2 0 -2 0 0 0 Z " fill="#EC5A69" transform="translate(111,84)"/>
<path d="M0 0 C1.65 0 3.3 0 5 0 C5.38218767 1.65614657 5.71395102 3.32457024 6 5 C5 6 5 6 2.4375 6.0625 C1.2309375 6.0315625 1.2309375 6.0315625 0 6 C-1.125 2.25 -1.125 2.25 0 0 Z " fill="#F7B035" transform="translate(83,82)"/>
<path d="M0 0 C1.67542976 0.28604898 3.34385343 0.61781233 5 1 C4.67 2.65 4.34 4.3 4 6 C2.0625 6.5625 2.0625 6.5625 0 7 C-1 6 -1 6 -1.125 3.5 C-1 1 -1 1 0 0 Z " fill="#F7B035" transform="translate(127,65)"/>
<path d="M0 0 C4.9053984 -0.28855285 8.1554435 -0.26204794 12 3 C12 4.32 12 5.64 12 7 C11.34 7 10.68 7 10 7 C10 6.34 10 5.68 10 5 C8.68 5 7.36 5 6 5 C5.67 4.01 5.34 3.02 5 2 C3.35 2 1.7 2 0 2 C0 1.34 0 0.68 0 0 Z " fill="#F95957" transform="translate(126,64)"/>
<path d="M0 0 C1.216875 0.2475 2.43375 0.495 3.6875 0.75 C1.30447876 2.16216074 -0.00336514 2.76545674 -2.8125 2.625 C-6.21371646 2.79506082 -7.00809549 4.37125986 -9.3125 6.75 C-10.6325 6.75 -11.9525 6.75 -13.3125 6.75 C-13.3125 6.09 -13.3125 5.43 -13.3125 4.75 C-12.755625 4.6675 -12.19875 4.585 -11.625 4.5 C-9.11642196 3.86907674 -9.11642196 3.86907674 -7.0625 1.625 C-4.02010873 -0.44935769 -3.46656966 -0.45242708 0 0 Z " fill="#E66376" transform="translate(103.3125,26.25)"/>
<path d="M0 0 C2.875 -0.1875 2.875 -0.1875 6 0 C6.66 0.99 7.32 1.98 8 3 C7 4 7 4 5.15234375 4.09765625 C3.1015625 4.06510417 1.05078125 4.03255208 -1 4 C-0.67 2.68 -0.34 1.36 0 0 Z " fill="#474E58" transform="translate(55,31)"/>
<path d="M0 0 C0.66 1.32 1.32 2.64 2 4 C0.02 6.97 0.02 6.97 -2 10 C-4 8 -4 8 -4.125 4.875 C-4.08375 3.92625 -4.0425 2.9775 -4 2 C-2.68 1.34 -1.36 0.68 0 0 Z " fill="#EC585E" transform="translate(58,66)"/>
<path d="M0 0 C0.886875 0.78375 1.77375 1.5675 2.6875 2.375 C5.30720519 4.57156991 7.71715601 5.93790341 11 7 C10.67 7.99 10.34 8.98 10 10 C9.01 10.33 8.02 10.66 7 11 C6.6596875 10.1646875 6.6596875 10.1646875 6.3125 9.3125 C5.00796402 6.77527615 5.00796402 6.77527615 2.375 4.375 C1.59125 3.59125 0.8075 2.8075 0 2 C0 1.34 0 0.68 0 0 Z " fill="#F7A43A" transform="translate(62,110)"/>
<path d="M0 0 C0.99 0 1.98 0 3 0 C2.35455571 3.48539917 0.89865603 6.02819057 -1 9 C-1.33 8.34 -1.66 7.68 -2 7 C-2.66 6.67 -3.32 6.34 -4 6 C-2.1875 3 -2.1875 3 0 0 Z " fill="#6C474F" transform="translate(58,71)"/>
<path d="M0 0 C2.64 0 5.28 0 8 0 C7.67 0.99 7.34 1.98 7 3 C2.71 3 -1.58 3 -6 3 C-6 2.67 -6 2.34 -6 2 C-4.02 2 -2.04 2 0 2 C0 1.34 0 0.68 0 0 Z " fill="#525A60" transform="translate(51,26)"/>
<path d="M0 0 C1.98 0.66 3.96 1.32 6 2 C6 2.99 6 3.98 6 5 C3.69 5 1.38 5 -1 5 C-0.67 3.35 -0.34 1.7 0 0 Z " fill="#51615A" transform="translate(45,30)"/>
<path d="M0 0 C2.95064148 -0.2208564 5.68368231 -0.28060989 8.625 -0.1875 C9.42679688 -0.17396484 10.22859375 -0.16042969 11.0546875 -0.14648438 C13.03674378 -0.11109051 15.01845551 -0.05728234 17 0 C17 0.33 17 0.66 17 1 C12.71 1 8.42 1 4 1 C4 1.66 4 2.32 4 3 C2.02 3 0.04 3 -2 3 C-1.34 2.01 -0.68 1.02 0 0 Z " fill="#343B42" transform="translate(47,25)"/>
<path d="M0 0 C3.25543229 0.34879632 4.01873107 1.02133261 6.25 3.5625 C6.8275 4.366875 7.405 5.17125 8 6 C6.25 6.75 6.25 6.75 4 7 C1.75 5.25 1.75 5.25 0 3 C0 2.01 0 1.02 0 0 Z " fill="#784951" transform="translate(131,70)"/>
<path d="M0 0 C0.66 0.33 1.32 0.66 2 1 C0.68 5.29 -0.64 9.58 -2 14 C-1.01 13.67 -0.02 13.34 1 13 C1 13.66 1 14.32 1 15 C-0.32 15.33 -1.64 15.66 -3 16 C-3.33266291 9.79029227 -2.45029331 5.71735105 0 0 Z " fill="#F26769" transform="translate(85,59)"/>
<path d="M0 0 C0.99 0 1.98 0 3 0 C3.33 3.63 3.66 7.26 4 11 C3.67 10.01 3.34 9.02 3 8 C2.34 8 1.68 8 1 8 C-0.35439668 5.29120665 -0.06501451 2.99066732 0 0 Z " fill="#634B52" transform="translate(84,88)"/>
<path d="M0 0 C2.97 0 5.94 0 9 0 C9.66 2.31 10.32 4.62 11 7 C9.0625 6.1875 9.0625 6.1875 7 5 C6.67 4.01 6.34 3.02 6 2 C3.03 1.505 3.03 1.505 0 1 C0 0.67 0 0.34 0 0 Z " fill="#E56270" transform="translate(59,82)"/>
<path d="M0 0 C-0.33 0.66 -0.66 1.32 -1 2 C-1.66 1.67 -2.32 1.34 -3 1 C-3.33 1.99 -3.66 2.98 -4 4 C-5.875 5.25 -5.875 5.25 -8 6 C-8.99 5.67 -9.98 5.34 -11 5 C-4.85714286 -0.71428571 -4.85714286 -0.71428571 0 0 Z " fill="#3179A5" transform="translate(59,94)"/>
<path d="M0 0 C3.86606247 3.22171872 5.03577168 6.09120127 6 11 C5.54296875 13.21875 5.54296875 13.21875 5 15 C4.49384702 13.73160474 3.99530901 12.46016898 3.5 11.1875 C3.2215625 10.47980469 2.943125 9.77210937 2.65625 9.04296875 C2 7 2 7 2 4 C1.34 4 0.68 4 0 4 C0 2.68 0 1.36 0 0 Z " fill="#E26371" transform="translate(133,40)"/>
<path d="M0 0 C2.12508244 3.18762365 2.5020163 5.26512223 3 9 C2.01 9 1.02 9 0 9 C-1.125 3.375 -1.125 3.375 0 0 Z " fill="#FEBCA9" transform="translate(96,64)"/>
<path d="M0 0 C0.53625 0.61875 1.0725 1.2375 1.625 1.875 C4.31103023 4.2782902 6.55414562 5.06022153 10 6 C10 6.33 10 6.66 10 7 C7.36 6.67 4.72 6.34 2 6 C2 5.34 2 4.68 2 4 C1.01 3.67 0.02 3.34 -1 3 C-0.67 2.01 -0.34 1.02 0 0 Z " fill="#E66272" transform="translate(123,33)"/>
<path d="M0 0 C1.37871915 3.82977542 0.87113444 7.07989501 0 11 C-0.99 11.66 -1.98 12.32 -3 13 C-2.69240822 11.02006459 -2.3787932 9.04106401 -2.0625 7.0625 C-1.88847656 5.96035156 -1.71445312 4.85820313 -1.53515625 3.72265625 C-1 1 -1 1 0 0 Z " fill="#E25F71" transform="translate(52,49)"/>
<path d="M0 0 C2.64 0.66 5.28 1.32 8 2 C7.67 2.66 7.34 3.32 7 4 C5.68 4 4.36 4 3 4 C2.67 4.66 2.34 5.32 2 6 C2 5.01 2 4.02 2 3 C1.01 2.67 0.02 2.34 -1 2 C-0.67 1.34 -0.34 0.68 0 0 Z " fill="#8C2A31" transform="translate(95,88)"/>
<path d="M0 0 C-2.39763185 2.39763185 -3.33273498 2.34280586 -6.625 2.625 C-7.44226562 2.69976562 -8.25953125 2.77453125 -9.1015625 2.8515625 C-9.72804687 2.90054688 -10.35453125 2.94953125 -11 3 C-7.48550811 -0.37391222 -4.73940561 -0.27342725 0 0 Z " fill="#EDC446" transform="translate(69,121)"/>
<path d="M0 0 C0.66 0.66 1.32 1.32 2 2 C1.625 4.125 1.625 4.125 1 6 C0.01 5.67 -0.98 5.34 -2 5 C-2.6875 2.9375 -2.6875 2.9375 -3 1 C-2.01 0.67 -1.02 0.34 0 0 Z " fill="#334A59" transform="translate(52,90)"/>
<path d="M0 0 C0.33 0.66 0.66 1.32 1 2 C1.99 2 2.98 2 4 2 C4.66 3.65 5.32 5.3 6 7 C4.02 6.01 2.04 5.02 0 4 C0 2.68 0 1.36 0 0 Z " fill="#EBC62B" transform="translate(48,114)"/>
<path d="M0 0 C0.99 1.32 1.98 2.64 3 4 C1.02 4.99 -0.96 5.98 -3 7 C-2.625 4.0625 -2.625 4.0625 -2 1 C-1.34 0.67 -0.68 0.34 0 0 Z " fill="#E6595C" transform="translate(130,71)"/>
</svg>
