<svg version="1.1" xmlns="http://www.w3.org/2000/svg" width="159" height="148">
<path d="M0 0 C0.80759766 -0.020625 1.61519531 -0.04125 2.44726562 -0.0625 C7.12617892 -0.09315627 10.4958288 0.02976029 14.1875 3.25 C15.63358787 7.05331464 15.34937283 11.14430492 15.35546875 15.15625 C15.36046135 16.29882263 15.36046135 16.29882263 15.36555481 17.46447754 C15.37060694 19.07152708 15.37296367 20.67858706 15.37280273 22.28564453 C15.37499232 24.74138642 15.39317426 27.19668108 15.41210938 29.65234375 C15.41504305 31.2161443 15.41702802 32.77994698 15.41796875 34.34375 C15.42515427 35.07613892 15.43233978 35.80852783 15.43974304 36.56311035 C15.42328334 40.24124755 15.39939769 43.20689494 13.1875 46.25 C11.015625 46.83984375 11.015625 46.83984375 8.4375 47.1875 C4.52944774 48.16451307 3.45784903 48.82194737 1.265625 52.29296875 C0.23118588 54.64094071 -0.74550036 57.0154021 -1.65625 59.4140625 C-2.8125 62.25 -2.8125 62.25 -4.8125 63.25 C-7.3240887 63.34792892 -9.80159766 63.38907983 -12.3125 63.375 C-13.00214844 63.37886719 -13.69179688 63.38273437 -14.40234375 63.38671875 C-19.55916707 63.37666646 -19.55916707 63.37666646 -21.8125 62.25 C-24.27694644 55.37389017 -24.0488855 47.6521561 -24.125 40.4375 C-24.14256348 39.53032227 -24.16012695 38.62314453 -24.17822266 37.68847656 C-24.17340962 32.47307554 -23.85489841 28.68434539 -20.8125 24.25 C-19.94882812 23.63253906 -19.08515625 23.01507813 -18.1953125 22.37890625 C-15.35378998 19.84016892 -15.1330104 18.08131089 -14.80859375 14.35742188 C-14.76863281 13.64134766 -14.72867188 12.92527344 -14.6875 12.1875 C-14.19601174 4.76868391 -14.19601174 4.76868391 -12.3828125 2.31640625 C-8.4656926 -0.34372741 -4.58126251 0.02883564 0 0 Z " fill="#5AAAE6" transform="translate(67.8125,59.75)"/>
<path d="M0 0 C5.44663315 -0.47285883 8.09437045 0.87038666 12.4296875 4.2265625 C18.79942832 9.7597709 18.79942832 9.7597709 19.125 13.89453125 C19.10179687 14.78785156 19.07859375 15.68117188 19.0546875 16.6015625 C19.03664062 17.50261719 19.01859375 18.40367188 19 19.33203125 C18.97679687 20.01910156 18.95359375 20.70617187 18.9296875 21.4140625 C18.1871875 21.6821875 17.4446875 21.9503125 16.6796875 22.2265625 C13.8987731 23.26090127 13.8987731 23.26090127 11.9296875 25.1640625 C11.2696875 25.5765625 10.6096875 25.9890625 9.9296875 26.4140625 C7.2421875 25.7890625 7.2421875 25.7890625 4.9296875 24.4140625 C4.5996875 23.4240625 4.2696875 22.4340625 3.9296875 21.4140625 C0.9596875 21.4140625 -2.0103125 21.4140625 -5.0703125 21.4140625 C-5.7303125 22.7340625 -6.3903125 24.0540625 -7.0703125 25.4140625 C-8.8828125 26.4140625 -8.8828125 26.4140625 -11.0703125 26.4140625 C-12.74115069 25.08596035 -14.40760963 23.75233554 -16.0703125 22.4140625 C-17.7203125 22.4140625 -19.3703125 22.4140625 -21.0703125 22.4140625 C-21.0703125 15.8140625 -21.0703125 9.2140625 -21.0703125 2.4140625 C-15.8011086 1.78490383 -10.54432893 1.17645353 -5.26660156 0.64550781 C-3.5076701 0.46015132 -1.75280345 0.23638316 0 0 Z " fill="#EDAC51" transform="translate(50.0703125,28.5859375)"/>
<path d="M0 0 C0.33 0 0.66 0 1 0 C1.01458252 0.70084717 1.02916504 1.40169434 1.04418945 2.1237793 C1.11885487 5.31223009 1.21545475 8.49965513 1.3125 11.6875 C1.33505859 12.79029297 1.35761719 13.89308594 1.38085938 15.02929688 C1.41630859 16.09599609 1.45175781 17.16269531 1.48828125 18.26171875 C1.51446533 19.24100342 1.54064941 20.22028809 1.56762695 21.22924805 C2.06418992 24.41134469 3.26423721 26.32029171 5 29 C5 29.66 5 30.32 5 31 C7.48248124 30.66334085 7.48248124 30.66334085 10 29 C11.36075884 26.09244107 12.21362959 23.10712212 13 20 C14.65 20.33 16.3 20.66 18 21 C17.85795259 22.58367747 17.71119847 24.16693318 17.5625 25.75 C17.48128906 26.63171875 17.40007812 27.5134375 17.31640625 28.421875 C17.03761535 30.69350452 16.61209423 32.79851823 16 35 C16.66 35.33 17.32 35.66 18 36 C17.04941561 38.14927727 16.08930503 40.29434362 15.125 42.4375 C14.59132813 43.63246094 14.05765625 44.82742187 13.5078125 46.05859375 C12 49 12 49 10 50 C7.4884113 50.09792892 5.01090234 50.13907983 2.5 50.125 C1.81035156 50.12886719 1.12070312 50.13273437 0.41015625 50.13671875 C-4.74666707 50.12666646 -4.74666707 50.12666646 -7 49 C-9.46444644 42.12389017 -9.2363855 34.4021561 -9.3125 27.1875 C-9.33006348 26.28032227 -9.34762695 25.37314453 -9.36572266 24.43847656 C-9.36090114 19.21388446 -8.97295846 15.49121515 -6 11 C-5.13375 10.360625 -4.2675 9.72125 -3.375 9.0625 C-0.62816861 7.09305814 -0.62816861 7.09305814 -0.1875 3.25 C-0.125625 2.1775 -0.06375 1.105 0 0 Z " fill="#FCC87F" transform="translate(53,73)"/>
<path d="M0 0 C1.73056641 -0.02513672 1.73056641 -0.02513672 3.49609375 -0.05078125 C6.89761139 0.35220109 7.41583872 0.84097307 9.5625 3.3125 C11.89164823 3.67391955 14.22503478 4.00949525 16.5625 4.3125 C18.07179383 7.33108766 17.78760073 10.44150954 17.8125 13.75 C17.833125 14.43126953 17.85375 15.11253906 17.875 15.81445312 C17.91387275 20.77558821 17.91387275 20.77558821 16.45239258 23.00878906 C13.64852452 24.94299077 11.37409459 24.68426811 7.99609375 24.67578125 C6.0615332 24.67481445 6.0615332 24.67481445 4.08789062 24.67382812 C3.41733643 24.66552979 2.74678223 24.65723145 2.0559082 24.64868164 C0.00367112 24.62504229 -2.04727033 24.62812852 -4.09960938 24.63476562 C-14.17065282 24.57934718 -14.17065282 24.57934718 -16.4375 22.3125 C-16.47268471 19.59154879 -16.39072667 17.01588727 -16.1875 14.3125 C-16.14753906 13.57515625 -16.10757813 12.8378125 -16.06640625 12.078125 C-15.69447162 6.56947162 -15.69447162 6.56947162 -13.4375 4.3125 C-11.77083333 3.64583333 -10.10416667 2.97916667 -8.4375 2.3125 C-5.65940605 -0.46559395 -3.86994797 0.01294297 0 0 Z " fill="#B5B6BC" transform="translate(105.4375,29.6875)"/>
<path d="M0 0 C0.80566406 0.04833984 1.61132812 0.09667969 2.44140625 0.14648438 C3.28316406 0.20255859 4.12492187 0.25863281 4.9921875 0.31640625 C6.26642578 0.3947168 6.26642578 0.3947168 7.56640625 0.47460938 C9.66697874 0.60442003 11.76712941 0.74102365 13.8671875 0.87890625 C15.5171875 4.17890625 17.1671875 7.47890625 18.8671875 10.87890625 C17.8771875 10.87890625 16.8871875 10.87890625 15.8671875 10.87890625 C15.8671875 16.15890625 15.8671875 21.43890625 15.8671875 26.87890625 C12.37140177 27.5780634 9.87311957 28.00125109 6.44140625 27.9765625 C5.24741211 27.97172852 5.24741211 27.97172852 4.02929688 27.96679688 C3.21267578 27.95841797 2.39605469 27.95003906 1.5546875 27.94140625 C0.71873047 27.93689453 -0.11722656 27.93238281 -0.97851562 27.92773438 C-3.02997899 27.91601173 -5.08140523 27.89807828 -7.1328125 27.87890625 C-7.1328125 22.26890625 -7.1328125 16.65890625 -7.1328125 10.87890625 C-8.1228125 10.87890625 -9.1128125 10.87890625 -10.1328125 10.87890625 C-7.89968367 3.86050134 -7.89968367 3.86050134 -6.1328125 0.87890625 C-3.77622853 -0.29938574 -2.60708014 -0.16523747 0 0 Z " fill="#F89916" transform="translate(103.1328125,95.12109375)"/>
<path d="M0 0 C0.33 0 0.66 0 1 0 C1.07419134 4.21749219 1.1286204 8.43463811 1.16479492 12.65258789 C1.17987589 14.08722552 1.2003438 15.52181708 1.22631836 16.95629883 C1.26273437 19.01915859 1.27973243 21.08140858 1.29296875 23.14453125 C1.3086792 24.38565674 1.32438965 25.62678223 1.34057617 26.90551758 C1 30 1 30 -0.33081055 31.8659668 C-4.07034564 34.40657533 -7.63569172 34.08234544 -12 34 C-11.50341703 28.33895411 -10.45489316 24.12325529 -8 19 C-9.32 18.34 -10.64 17.68 -12 17 C-9.25 10.125 -9.25 10.125 -7 9 C-6.67 8.01 -6.34 7.02 -6 6 C-4.68 6 -3.36 6 -2 6 C-1.855625 5.195625 -1.71125 4.39125 -1.5625 3.5625 C-1 1 -1 1 0 0 Z " fill="#4199DF" transform="translate(81,74)"/>
<path d="M0 0 C0.80566406 0.04833984 1.61132812 0.09667969 2.44140625 0.14648438 C3.28316406 0.20255859 4.12492187 0.25863281 4.9921875 0.31640625 C6.26642578 0.3947168 6.26642578 0.3947168 7.56640625 0.47460938 C9.66697874 0.60442003 11.76712941 0.74102365 13.8671875 0.87890625 C15.5171875 4.17890625 17.1671875 7.47890625 18.8671875 10.87890625 C5.0071875 10.38390625 5.0071875 10.38390625 -9.1328125 9.87890625 C-7.92228618 3.82627467 -7.92228618 3.82627467 -6.1328125 0.87890625 C-3.77622853 -0.29938574 -2.60708014 -0.16523747 0 0 Z " fill="#F95222" transform="translate(103.1328125,95.12109375)"/>
<path d="M0 0 C-0.99 0.495 -0.99 0.495 -2 1 C-2 4.3 -2 7.6 -2 11 C-8.6 11 -15.2 11 -22 11 C-22 13.97 -22 16.94 -22 20 C-22.33 20 -22.66 20 -23 20 C-23 14.06 -23 8.12 -23 2 C-20.133125 1.67 -17.26625 1.34 -14.3125 1 C-12.97119019 0.84337891 -12.97119019 0.84337891 -11.6027832 0.68359375 C-7.71540658 0.24415497 -3.92007307 -0.12774169 0 0 Z " fill="#DDD6CB" transform="translate(52,29)"/>
<path d="M0 0 C12.87 0.495 12.87 0.495 26 1 C26 6.61 26 12.22 26 18 C22.50421427 18.69915715 20.00593207 19.12234484 16.57421875 19.09765625 C15.38022461 19.09282227 15.38022461 19.09282227 14.16210938 19.08789062 C13.34548828 19.07951172 12.52886719 19.07113281 11.6875 19.0625 C10.85154297 19.05798828 10.01558594 19.05347656 9.15429688 19.04882812 C7.10283351 19.03710548 5.05140727 19.01917203 3 19 C3 13.39 3 7.78 3 2 C2.01 2 1.02 2 0 2 C0 1.34 0 0.68 0 0 Z M4 2 C4 6.95 4 11.9 4 17 C6.31 17 8.62 17 11 17 C11 14.03 11 11.06 11 8 C13.31 8 15.62 8 18 8 C18 10.97 18 13.94 18 17 C20.31 17 22.62 17 25 17 C25 12.05 25 7.1 25 2 C18.07 2 11.14 2 4 2 Z " fill="#F3A446" transform="translate(93,104)"/>
<path d="M0 0 C3.00253029 0.15802791 4.80440524 0.8816137 7.375 2.4375 C9.94671205 6.49289208 8.80287828 10.42708459 8 15 C7.04867187 15.18369141 7.04867187 15.18369141 6.078125 15.37109375 C3.80283433 15.80696091 3.80283433 15.80696091 2.75 18.0625 C2.5025 18.701875 2.255 19.34125 2 20 C1.34 20 0.68 20 0 20 C0 19.01 0 18.02 0 17 C-0.66 17 -1.32 17 -2 17 C-2.05383848 14.54137599 -2.09359038 12.0839245 -2.125 9.625 C-2.14175781 8.92632812 -2.15851562 8.22765625 -2.17578125 7.5078125 C-2.19344267 5.67102514 -2.10303261 3.83398037 -2 2 C-1.34 1.34 -0.68 0.68 0 0 Z " fill="#55A6E3" transform="translate(57,79)"/>
<path d="M0 0 C2.0625 1.25 2.0625 1.25 2.875 3.375 C2.936875 3.99375 2.99875 4.6125 3.0625 5.25 C2.134375 5.37375 2.134375 5.37375 1.1875 5.5 C-1.12187567 6.06258459 -1.12187567 6.06258459 -2.1875 8.3125 C-2.435 8.951875 -2.6825 9.59125 -2.9375 10.25 C-3.5975 10.25 -4.2575 10.25 -4.9375 10.25 C-4.9375 11.9 -4.9375 13.55 -4.9375 15.25 C-6.2575 15.25 -7.5775 15.25 -8.9375 15.25 C-8.9375 13.6 -8.9375 11.95 -8.9375 10.25 C-9.5975 10.25 -10.2575 10.25 -10.9375 10.25 C-10.6075 8.6 -10.2775 6.95 -9.9375 5.25 C-7.6275 5.25 -5.3175 5.25 -2.9375 5.25 C-2.9375 4.26 -2.9375 3.27 -2.9375 2.25 C-5.5775 2.25 -8.2175 2.25 -10.9375 2.25 C-10.9375 2.91 -10.9375 3.57 -10.9375 4.25 C-12.2575 4.25 -13.5775 4.25 -14.9375 4.25 C-14.625 2.3125 -14.625 2.3125 -13.9375 0.25 C-9.22102207 -1.32215931 -4.76043572 -1.2154304 0 0 Z " fill="#B0A177" transform="translate(74.9375,73.75)"/>
<path d="M0 0 C0 0.99 0 1.98 0 3 C1.32 3.66 2.64 4.32 4 5 C4 16.55 4 28.1 4 40 C3.67 40 3.34 40 3 40 C2.67 31.09 2.34 22.18 2 13 C1.01 13.495 1.01 13.495 0 14 C-2.1385485 11.8614515 -2.42655063 10.86724686 -3 8 C-3.99 8 -4.98 8 -6 8 C-5.67 7.34 -5.34 6.68 -5 6 C-4.34 6 -3.68 6 -3 6 C-3 5.01 -3 4.02 -3 3 C-6.3 3 -9.6 3 -13 3 C-12.67 2.01 -12.34 1.02 -12 0 C-7.74433453 -1.16063604 -4.3164922 -0.76173392 0 0 Z " fill="#66B1E5" transform="translate(79,62)"/>
<path d="M0 0 C1.58206057 0.00667536 3.16410534 0.0186375 4.74609375 0.03515625 C5.55240234 0.03966797 6.35871094 0.04417969 7.18945312 0.04882812 C9.18753131 0.06065107 11.18557158 0.07858711 13.18359375 0.09765625 C13.18359375 2.73765625 13.18359375 5.37765625 13.18359375 8.09765625 C11.53359375 8.09765625 9.88359375 8.09765625 8.18359375 8.09765625 C7.85359375 7.10765625 7.52359375 6.11765625 7.18359375 5.09765625 C5.20359375 5.09765625 3.22359375 5.09765625 1.18359375 5.09765625 C0.52359375 6.41765625 -0.13640625 7.73765625 -0.81640625 9.09765625 C-2.13640625 8.76765625 -3.45640625 8.43765625 -4.81640625 8.09765625 C-4.85882348 5.7647085 -4.85733562 3.43063058 -4.81640625 1.09765625 C-3.81640625 0.09765625 -3.81640625 0.09765625 0 0 Z " fill="#F1991F" transform="translate(35.81640625,40.90234375)"/>
<path d="M0 0 C0.33 0 0.66 0 1 0 C1 4.62 1 9.24 1 14 C1.66 14 2.32 14 3 14 C3 14.99 3 15.98 3 17 C5.51083114 15.74458443 5.87125446 14.49936512 7 12 C8.32 12 9.64 12 11 12 C11.33 10.35 11.66 8.7 12 7 C13.32 7 14.64 7 16 7 C16 5.35 16 3.7 16 2 C16.66 2.33 17.32 2.66 18 3 C17.34 4.98 16.68 6.96 16 9 C16.99 9.66 17.98 10.32 19 11 C18.67 12.32 18.34 13.64 18 15 C17.34 14.01 16.68 13.02 16 12 C13.94074861 11.27617533 13.94074861 11.27617533 12 11 C11.87882812 11.62648438 11.75765625 12.25296875 11.6328125 12.8984375 C11.46523437 13.71570313 11.29765625 14.53296875 11.125 15.375 C10.96257812 16.18710938 10.80015625 16.99921875 10.6328125 17.8359375 C10 20 10 20 8 22 C6.68 22 5.36 22 4 22 C-1.24074967 15.28528949 -0.37488712 8.0913137 0 0 Z " fill="#6AA3CA" transform="translate(54,82)"/>
<path d="M0 0 C0.99 0.33 1.98 0.66 3 1 C3 5.95 3 10.9 3 16 C4.65 16.33 6.3 16.66 8 17 C7.67 17.99 7.34 18.98 7 20 C0.25 20.125 0.25 20.125 -2 19 C-2 13.06 -2 7.12 -2 1 C-1.34 0.67 -0.68 0.34 0 0 Z " fill="#F3B237" transform="translate(43,57)"/>
<path d="M0 0 C1.65 0.33 3.3 0.66 5 1 C4.85795259 2.58367747 4.71119847 4.16693318 4.5625 5.75 C4.48128906 6.63171875 4.40007812 7.5134375 4.31640625 8.421875 C4.03761535 10.69350452 3.61209423 12.79851823 3 15 C3.66 15.33 4.32 15.66 5 16 C4.01 17.98 3.02 19.96 2 22 C1.67 22 1.34 22 1 22 C1 19.03 1 16.06 1 13 C-1.97 12.67 -4.94 12.34 -8 12 C-6.68 11.34 -5.36 10.68 -4 10 C-2.65852458 7.61157583 -2.65852458 7.61157583 -1.75 4.875 C-1.41484375 3.96492188 -1.0796875 3.05484375 -0.734375 2.1171875 C-0.49203125 1.41851562 -0.2496875 0.71984375 0 0 Z " fill="#E2C698" transform="translate(66,93)"/>
<path d="M0 0 C0.33 0 0.66 0 1 0 C1.02698189 1.62490954 1.04638757 3.24994633 1.0625 4.875 C1.07410156 5.77992187 1.08570312 6.68484375 1.09765625 7.6171875 C1 10 1 10 0 12 C-1.32 12 -2.64 12 -4 12 C-4.33 11.34 -4.66 10.68 -5 10 C-5.66 11.32 -6.32 12.64 -7 14 C-8.32 14 -9.64 14 -11 14 C-10.7365858 10.49000574 -10.31688095 7.27898067 -9 4 C-6.47092524 2.25436004 -3.96539371 1.67128693 -1 1 C-0.67 0.67 -0.34 0.34 0 0 Z " fill="#3B98E1" transform="translate(80,93)"/>
<path d="M0 0 C1.65 0 3.3 0 5 0 C5.33 3.3 5.66 6.6 6 10 C7.32 10.33 8.64 10.66 10 11 C10 11.66 10 12.32 10 13 C8.35 13 6.7 13 5 13 C4.34 14.98 3.68 16.96 3 19 C2.01 19 1.02 19 0 19 C0 12.73 0 6.46 0 0 Z " fill="#F69A22" transform="translate(50,30)"/>
<path d="M0 0 C3.63575012 -0.65562707 5.4917476 -0.93720457 9 0 C13.10922741 3.30318664 16.54880324 7.0262856 20 11 C19.67 11.99 19.34 12.98 19 14 C15.16070042 13.455177 13.69759392 11.86283624 11.1875 9 C8.55298338 6.23202756 6.84963372 4.49974961 3 4 C2.01 4 1.02 4 0 4 C0 2.68 0 1.36 0 0 Z " fill="#EFAB3E" transform="translate(87,77)"/>
<path d="M0 0 C2.26953125 0.2265625 2.26953125 0.2265625 4 1 C2.53438126 4.39687676 0.63352456 6.60722686 -2 9.1875 C-2.70125 9.88230469 -3.4025 10.57710937 -4.125 11.29296875 C-7.92141634 14.74928946 -11.05610096 14.07974031 -16 14 C-16 12.68 -16 11.36 -16 10 C-15.030625 10.020625 -14.06125 10.04125 -13.0625 10.0625 C-7.94466559 9.42797175 -5.32527442 5.54427775 -2.11328125 1.8359375 C-1.06720703 0.92714844 -1.06720703 0.92714844 0 0 Z " fill="#EEA730" transform="translate(103,58)"/>
<path d="M0 0 C3.95075638 0.9876891 5.563107 1.92712846 8.6875 4.375 C9.47511719 4.98085938 10.26273438 5.58671875 11.07421875 6.2109375 C13 8 13 8 14 11 C9.71 11 5.42 11 1 11 C0.67 7.37 0.34 3.74 0 0 Z " fill="#F1E2C8" transform="translate(54,29)"/>
<path d="M0 0 C0.33 0 0.66 0 1 0 C1.01981934 0.70084717 1.03963867 1.40169434 1.06005859 2.1237793 C1.15556166 5.31205162 1.26513871 8.49969147 1.375 11.6875 C1.4059375 12.79029297 1.436875 13.89308594 1.46875 15.02929688 C1.50742187 16.09599609 1.54609375 17.16269531 1.5859375 18.26171875 C1.6173584 19.24100342 1.6487793 20.22028809 1.68115234 21.22924805 C2.01429569 24.12422801 2.79800587 26.35772167 4 29 C3.34 29 2.68 29 2 29 C-0.44989101 25.25764681 -0.23086143 21.55774581 -0.125 17.25 C-0.11597656 16.55261719 -0.10695313 15.85523437 -0.09765625 15.13671875 C-0.07419888 13.42433042 -0.03833104 11.71211996 0 10 C-3.54414751 11.1813825 -4.43366224 12.59284897 -6.16601562 15.82080078 C-7.73173535 19.91202275 -7.68132598 24.10167204 -7.75 28.4375 C-7.77964844 29.35982422 -7.80929688 30.28214844 -7.83984375 31.23242188 C-7.90997673 33.48836601 -7.9629475 35.74331119 -8 38 C-8.33 38 -8.66 38 -9 38 C-9.08767555 34.62516587 -9.14061628 31.25062785 -9.1875 27.875 C-9.21263672 26.92367187 -9.23777344 25.97234375 -9.26367188 24.9921875 C-9.32014363 19.57089938 -9.14346317 15.64459688 -6 11 C-5.13375 10.360625 -4.2675 9.72125 -3.375 9.0625 C-0.62816861 7.09305814 -0.62816861 7.09305814 -0.1875 3.25 C-0.125625 2.1775 -0.06375 1.105 0 0 Z " fill="#E7E2C1" transform="translate(53,73)"/>
<path d="M0 0 C3.3 0 6.6 0 10 0 C10 0.66 10 1.32 10 2 C10.99 2.33 11.98 2.66 13 3 C8.05 3 3.1 3 -2 3 C-2.33 4.32 -2.66 5.64 -3 7 C-1.68 7 -0.36 7 1 7 C1 6.34 1 5.68 1 5 C3.64 5 6.28 5 9 5 C9 5.99 9 6.98 9 8 C7.88625 8.103125 6.7725 8.20625 5.625 8.3125 C4.42875 8.539375 3.2325 8.76625 2 9 C1.01 10.485 1.01 10.485 0 12 C-0.33 11.01 -0.66 10.02 -1 9 C-1.99 9 -2.98 9 -4 9 C-4.625 7.1875 -4.625 7.1875 -5 5 C-4.34 4.01 -3.68 3.02 -3 2 C-2.01 2 -1.02 2 0 2 C0 1.34 0 0.68 0 0 Z " fill="#7FA3B3" transform="translate(63,71)"/>
<path d="M0 0 C1.4540625 0.0309375 1.4540625 0.0309375 2.9375 0.0625 C4.25918051 2.23938554 4.9506712 3.61467933 4.875 6.1875 C3.9375 8.0625 3.9375 8.0625 1.5625 9.4375 C0.69625 9.64375 -0.17 9.85 -1.0625 10.0625 C-2.0525 9.4025 -3.0425 8.7425 -4.0625 8.0625 C-4.3125 4.5 -4.3125 4.5 -4.0625 1.0625 C-3.0625 0.0625 -3.0625 0.0625 0 0 Z " fill="#927D72" transform="translate(40.0625,44.9375)"/>
<path d="M0 0 C2.5 0.25 2.5 0.25 4.5 2.25 C4.625 5.375 4.625 5.375 4.5 8.25 C2.25 9.4375 2.25 9.4375 -0.5 10.25 C-2.8125 9.1875 -2.8125 9.1875 -4.5 7.25 C-4.875 4.6875 -4.875 4.6875 -4.5 2.25 C-2.5 0.25 -2.5 0.25 0 0 Z " fill="#87776B" transform="translate(58.5,44.75)"/>
<path d="M0 0 C3.3 0 6.6 0 10 0 C10 0.33 10 0.66 10 1 C8.35 1 6.7 1 5 1 C5 1.66 5 2.32 5 3 C7.97 3.33 10.94 3.66 14 4 C14 4.99 14 5.98 14 7 C10.7 7 7.4 7 4 7 C4 6.34 4 5.68 4 5 C3.34 5 2.68 5 2 5 C2 5.66 2 6.32 2 7 C0.68 7 -0.64 7 -2 7 C-2 6.01 -2 5.02 -2 4 C-1.34 4 -0.68 4 0 4 C0 2.68 0 1.36 0 0 Z " fill="#50A6E4" transform="translate(62,61)"/>
<path d="M0 0 C2.5 -0.3125 2.5 -0.3125 5 0 C7 2 7 2 7.25 4.5 C7 7 7 7 5 9 C1.875 8.625 1.875 8.625 -1 8 C-1.625 5.6875 -1.625 5.6875 -2 3 C-1.34 2.01 -0.68 1.02 0 0 Z " fill="#E4E4E7" transform="translate(103,37)"/>
<path d="M0 0 C6.93 0 13.86 0 21 0 C21 0.99 21 1.98 21 3 C14.07 3 7.14 3 0 3 C0 2.01 0 1.02 0 0 Z " fill="#ED8605" transform="translate(97,106)"/>
<path d="M0 0 C0.80566406 0.04833984 1.61132812 0.09667969 2.44140625 0.14648438 C3.28316406 0.20255859 4.12492187 0.25863281 4.9921875 0.31640625 C6.26642578 0.3947168 6.26642578 0.3947168 7.56640625 0.47460938 C9.66697874 0.60442003 11.76712941 0.74102365 13.8671875 0.87890625 C13.8671875 1.20890625 13.8671875 1.53890625 13.8671875 1.87890625 C12.91457031 1.89308594 11.96195313 1.90726562 10.98046875 1.921875 C3.13167132 1.78963147 3.13167132 1.78963147 -3.4453125 5.31640625 C-5.10908919 7.73277067 -5.10908919 7.73277067 -6.1328125 9.87890625 C-7.1228125 9.87890625 -8.1128125 9.87890625 -9.1328125 9.87890625 C-8.5782751 6.55168184 -7.89268207 3.77751495 -6.1328125 0.87890625 C-3.77622853 -0.29938574 -2.60708014 -0.16523747 0 0 Z " fill="#F16D4C" transform="translate(103.1328125,95.12109375)"/>
<path d="M0 0 C0.66 0.33 1.32 0.66 2 1 C2 1.99 2 2.98 2 4 C-2.29 3.34 -6.58 2.68 -11 2 C-11 2.66 -11 3.32 -11 4 C-12.32 4 -13.64 4 -15 4 C-14.6875 2.0625 -14.6875 2.0625 -14 0 C-9.20863728 -1.59712091 -4.74150731 -1.58050244 0 0 Z " fill="#CEA052" transform="translate(75,74)"/>
<path d="M0 0 C1.98 0 3.96 0 6 0 C6 2.64 6 5.28 6 8 C4.02 8 2.04 8 0 8 C0 5.36 0 2.72 0 0 Z " fill="#FADFBE" transform="translate(104,112)"/>
<path d="M0 0 C0.33 0 0.66 0 1 0 C1 3.96 1 7.92 1 12 C1.33 11.34 1.66 10.68 2 10 C2.66 10 3.32 10 4 10 C4 9.34 4 8.68 4 8 C4.66 8 5.32 8 6 8 C5.8125 11.3125 5.8125 11.3125 5 15 C2.525 16.485 2.525 16.485 0 18 C0 12.06 0 6.12 0 0 Z " fill="#6AADDC" transform="translate(54,64)"/>
<path d="M0 0 C0.66 0 1.32 0 2 0 C2.0270043 1.45823212 2.04639787 2.91660675 2.0625 4.375 C2.07410156 5.18710938 2.08570312 5.99921875 2.09765625 6.8359375 C2 9 2 9 1 11 C-0.32 11 -1.64 11 -3 11 C-2.69217504 9.35328588 -2.37860766 7.70764424 -2.0625 6.0625 C-1.88847656 5.14597656 -1.71445313 4.22945313 -1.53515625 3.28515625 C-1 1 -1 1 0 0 Z " fill="#347FBA" transform="translate(72,96)"/>
<path d="M0 0 C2.81962189 2.81962189 2.99187071 3.52850122 3.0625 7.625 C3.041875 8.73875 3.02125 9.8525 3 11 C1.68 11 0.36 11 -1 11 C-1.33 12.32 -1.66 13.64 -2 15 C-2.66 14.67 -3.32 14.34 -4 14 C-3.67 12.68 -3.34 11.36 -3 10 C-1.35 10 0.3 10 2 10 C1.34 8.02 0.68 6.04 0 4 C-0.99 4 -1.98 4 -3 4 C-3.33 3.01 -3.66 2.02 -4 1 C-2.125 0.375 -2.125 0.375 0 0 Z " fill="#61A6D7" transform="translate(76,69)"/>
<path d="M0 0 C0.33 0.99 0.66 1.98 1 3 C-3.95 3 -8.9 3 -14 3 C-14 2.34 -14 1.68 -14 1 C-9.27616037 0.34843591 -4.78025483 -0.11950637 0 0 Z " fill="#FCDA6C" transform="translate(110,120)"/>
<path d="M0 0 C0 0.66 0 1.32 0 2 C-1.65 2 -3.3 2 -5 2 C-5.66 3.98 -6.32 5.96 -7 8 C-7.99 8 -8.98 8 -10 8 C-10.25 5.6875 -10.25 5.6875 -10 3 C-7.00198322 -0.3439418 -4.3216814 -0.2946601 0 0 Z " fill="#FA9912" transform="translate(60,41)"/>
<path d="M0 0 C1.32 0 2.64 0 4 0 C3.25 4.75 3.25 4.75 1 7 C-2.125 7.125 -2.125 7.125 -5 7 C-5.33 5.68 -5.66 4.36 -6 3 C-5.34 2.67 -4.68 2.34 -4 2 C-4 3.32 -4 4.64 -4 6 C-2.68 6 -1.36 6 0 6 C0 4.02 0 2.04 0 0 Z " fill="#D3D1D8" transform="translate(42,32)"/>
<path d="M0 0 C2.39652528 -0.08139142 4.79025436 -0.14067009 7.1875 -0.1875 C7.86103516 -0.21263672 8.53457031 -0.23777344 9.22851562 -0.26367188 C13.70864748 -0.32923478 16.39440999 0.33256351 20 3 C19.67 4.32 19.34 5.64 19 7 C18.01 6.01 17.02 5.02 16 4 C16.33 3.34 16.66 2.68 17 2 C11.39 1.67 5.78 1.34 0 1 C0 0.67 0 0.34 0 0 Z " fill="#74B6E2" transform="translate(62,60)"/>
<path d="M0 0 C1.98 0 3.96 0 6 0 C5.67 1.98 5.34 3.96 5 6 C2.03 5.505 2.03 5.505 -1 5 C-0.67 3.35 -0.34 1.7 0 0 Z " fill="#79757D" transform="translate(37,47)"/>
<path d="M0 0 C1.65 0 3.3 0 5 0 C5 2.64 5 5.28 5 8 C4.34 8 3.68 8 3 8 C3 7.01 3 6.02 3 5 C2.34 5 1.68 5 1 5 C0.67 3.35 0.34 1.7 0 0 Z " fill="#FB9612" transform="translate(62,41)"/>
<path d="M0 0 C2.64 0 5.28 0 8 0 C7.01 0.495 7.01 0.495 6 1 C6 2.65 6 4.3 6 6 C4.68 6 3.36 6 2 6 C2 4.35 2 2.7 2 1 C1.34 0.67 0.68 0.34 0 0 Z " fill="#9AA294" transform="translate(64,83)"/>
<path d="M0 0 C2.97 0 5.94 0 9 0 C9 0.99 9 1.98 9 3 C6.03 3 3.06 3 0 3 C0 2.01 0 1.02 0 0 Z " fill="#4399DD" transform="translate(67,65)"/>
<path d="M0 0 C0.33 0.99 0.66 1.98 1 3 C3.01508358 3.73323796 3.01508358 3.73323796 5 4 C1.36576791 6.32590854 -1.77088331 6.16265833 -6 6 C-5.38125 5.938125 -4.7625 5.87625 -4.125 5.8125 C-1.72238859 5.171081 -1.72238859 5.171081 -0.75 2.4375 C-0.5025 1.633125 -0.255 0.82875 0 0 Z " fill="#51A4DA" transform="translate(75,102)"/>
<path d="M0 0 C0.66 0 1.32 0 2 0 C2 2.31 2 4.62 2 7 C0.02 7.99 0.02 7.99 -2 9 C-2 7.02 -2 5.04 -2 3 C-1.34 3 -0.68 3 0 3 C0 2.01 0 1.02 0 0 Z " fill="#FBC577" transform="translate(67,95)"/>
<path d="M0 0 C4.78504172 2.48454089 7.86077669 4.47951843 11 9 C9.68 8.67 8.36 8.34 7 8 C7 7.34 7 6.68 7 6 C6.21625 5.690625 5.4325 5.38125 4.625 5.0625 C2 4 2 4 0 3 C0 2.01 0 1.02 0 0 Z " fill="#FCFBF5" transform="translate(57,30)"/>
<path d="M0 0 C1.32 0 2.64 0 4 0 C4 1.98 4 3.96 4 6 C2.68 6 1.36 6 0 6 C0 4.02 0 2.04 0 0 Z " fill="#E7E6E9" transform="translate(105,113)"/>
<path d="M0 0 C1.65 1.32 3.3 2.64 5 4 C4.67 4.99 4.34 5.98 4 7 C2.125 6.6875 2.125 6.6875 0 6 C-0.66 5.01 -1.32 4.02 -2 3 C-1.34 2.67 -0.68 2.34 0 2 C0 1.34 0 0.68 0 0 Z " fill="#EDB24C" transform="translate(102,84)"/>
<path d="M0 0 C2.32472205 2.85306797 3.7508258 5.54074837 5 9 C4.01 9 3.02 9 2 9 C2 8.34 2 7.68 2 7 C1.01 7 0.02 7 -1 7 C-0.67 4.69 -0.34 2.38 0 0 Z " fill="#E86038" transform="translate(117,97)"/>
<path d="M0 0 C0.12375 0.639375 0.2475 1.27875 0.375 1.9375 C0.58125 2.618125 0.7875 3.29875 1 4 C1.66 4.33 2.32 4.66 3 5 C2.01 6.98 1.02 8.96 0 11 C-0.33 11 -0.66 11 -1 11 C-1.02688151 9.35425434 -1.04634123 7.70838587 -1.0625 6.0625 C-1.07410156 5.14597656 -1.08570312 4.22945313 -1.09765625 3.28515625 C-1 1 -1 1 0 0 Z " fill="#F0D9B6" transform="translate(68,104)"/>
<path d="M0 0 C1.32 0.33 2.64 0.66 4 1 C3.01 1.33 2.02 1.66 1 2 C-0.22445284 3.62948064 -0.22445284 3.62948064 -1.1875 5.5625 C-1.785625 6.696875 -2.38375 7.83125 -3 9 C-3.75 7.3125 -3.75 7.3125 -4 5 C-2.0625 2.25 -2.0625 2.25 0 0 Z " fill="#F8DEA7" transform="translate(49,82)"/>
<path d="M0 0 C2.97 0 5.94 0 9 0 C8.67 0.99 8.34 1.98 8 3 C5.36 2.67 2.72 2.34 0 2 C0 1.34 0 0.68 0 0 Z " fill="#F99911" transform="translate(38,41)"/>
<path d="M0 0 C1.9375 0.3125 1.9375 0.3125 4 1 C4.33 1.99 4.66 2.98 5 4 C3.1875 4.6875 3.1875 4.6875 1 5 C-0.75 3.5625 -0.75 3.5625 -2 2 C-1.34 2 -0.68 2 0 2 C0 1.34 0 0.68 0 0 Z " fill="#737782" transform="translate(57,50)"/>
<path d="M0 0 C-0.33 1.32 -0.66 2.64 -1 4 C-2.32 4.33 -3.64 4.66 -5 5 C-4.625 3.0625 -4.625 3.0625 -4 1 C-2 0 -2 0 0 0 Z " fill="#F29D17" transform="translate(102,63)"/>
</svg>
